SplineFontDB: 3.0
FontName: DistinguishMono-Light
FullName: Distinguish Mono Light
FamilyName: Distinguish Mono
Weight: Light
Copyright: Copyright 2015 Google Inc. All Rights Reserved.
Version: 2.000;GOOG;noto-source:20170915:90ef993387c0; ttfautohint (v1.7)
ItalicAngle: 0
UnderlinePosition: -125
UnderlineWidth: 50
Ascent: 800
Descent: 200
InvalidEm: 0
sfntRevision: 0x00020000
LayerCount: 2
Layer: 0 1 "Back" 1
Layer: 1 1 "Fore" 0
XUID: [1021 269 1684064080 1746723]
StyleMap: 0x0000
FSType: 0
OS2Version: 4
OS2_WeightWidthSlopeOnly: 1
OS2_UseTypoMetrics: 0
CreationTime: 1435678095
ModificationTime: 1515872482
PfmFamily: 17
TTFWeight: 300
TTFWidth: 5
LineGap: 0
VLineGap: 0
Panose: 2 11 4 9 4 5 4 2 2 4
OS2TypoAscent: 1069
OS2TypoAOffset: 0
OS2TypoDescent: -293
OS2TypoDOffset: 0
OS2TypoLinegap: 0
OS2WinAscent: 1069
OS2WinAOffset: 0
OS2WinDescent: 293
OS2WinDOffset: 0
HheadAscent: 1069
HheadAOffset: 0
HheadDescent: -293
HheadDOffset: 0
OS2SubXSize: 650
OS2SubYSize: 600
OS2SubXOff: 0
OS2SubYOff: 75
OS2SupXSize: 650
OS2SupYSize: 600
OS2SupXOff: 0
OS2SupYOff: 350
OS2StrikeYSize: 50
OS2StrikeYPos: 322
OS2CapHeight: 714
OS2XHeight: 536
OS2Vendor: 'GOOG'
OS2CodePages: 00000000.00000000
OS2UnicodeRanges: e00002ff.400038df.08000029.00100000
Lookup: 1 0 0 "'aalt' Access All Alternates lookup 0" { "'aalt' Access All Alternates lookup 0 subtable"  } ['aalt' ('DFLT' <'dflt' > 'cyrl' <'SRB ' 'dflt' > 'grek' <'dflt' > 'latn' <'CAT ' 'MAH ' 'MOL ' 'NAV ' 'ROM ' 'dflt' > ) ]
Lookup: 3 0 0 "'aalt' Access All Alternates lookup 1" { "'aalt' Access All Alternates lookup 1 subtable"  } ['aalt' ('DFLT' <'dflt' > 'cyrl' <'SRB ' 'dflt' > 'grek' <'dflt' > 'latn' <'CAT ' 'MAH ' 'MOL ' 'NAV ' 'ROM ' 'dflt' > ) ]
Lookup: 4 0 0 "'ccmp' Glyph Composition/Decomposition lookup 2" { "'ccmp' Glyph Composition/Decomposition lookup 2 subtable"  } ['ccmp' ('DFLT' <'dflt' > 'cyrl' <'SRB ' 'dflt' > 'grek' <'dflt' > 'latn' <'CAT ' 'MAH ' 'MOL ' 'NAV ' 'ROM ' 'dflt' > ) ]

StartChar: .notdef
Encoding: 65536 -1 0
Width: 600
Flags: W
LayerCount: 2
Fore
SplineSet
94 0 m 1,0,-1
 94 714 l 1,1,-1
 505 714 l 1,2,-1
 505 0 l 1,3,-1
 94 0 l 1,0,-1
145 51 m 1,4,-1
 454 51 l 1,5,-1
 454 663 l 1,6,-1
 145 663 l 1,7,-1
 145 51 l 1,4,-1
EndSplineSet
EndChar

StartChar: exclam
Encoding: 33 33 4
Width: 600
Flags: W
LayerCount: 2
Fore
SplineSet
275 188 m 1,0,-1
 266 714 l 1,1,-1
 335 714 l 1,2,-1
 326 188 l 1,3,-1
 275 188 l 1,0,-1
300 -11 m 256,4,5
 254 -11 254 -11 254 40 c 0,6,7
 254 92 254 92 300 92 c 256,8,9
 346 92 346 92 346 40 c 0,10,11
 346 -11 346 -11 300 -11 c 256,4,5
EndSplineSet
Substitution2: "'smcp' Lowercase to Small Capitals lookup 33 subtable" exclam.sc
Substitution2: "'c2sc' Capitals to Small Capitals lookup 32 subtable" exclam.sc
Substitution2: "'aalt' Access All Alternates lookup 0 subtable" exclam.sc
EndChar

StartChar: quotedbl
Encoding: 34 34 5
Width: 600
Flags: W
LayerCount: 2
Fore
SplineSet
364 456 m 1,0,-1
 352 714 l 1,1,-1
 414 714 l 1,2,-1
 402 456 l 1,3,-1
 364 456 l 1,0,-1
198 456 m 1,4,-1
 186 714 l 1,5,-1
 248 714 l 1,6,-1
 236 456 l 1,7,-1
 198 456 l 1,4,-1
EndSplineSet
EndChar

StartChar: numbersign
Encoding: 35 35 6
Width: 600
Flags: W
LayerCount: 2
Fore
SplineSet
103 0 m 1,0,-1
 140 220 l 1,1,-1
 22 220 l 1,2,-1
 22 266 l 1,3,-1
 148 266 l 1,4,-1
 180 454 l 1,5,-1
 56 454 l 1,6,-1
 56 498 l 1,7,-1
 188 498 l 1,8,-1
 225 714 l 1,9,-1
 273 714 l 1,10,-1
 236 498 l 1,11,-1
 380 498 l 1,12,-1
 418 714 l 1,13,-1
 464 714 l 1,14,-1
 428 498 l 1,15,-1
 546 498 l 1,16,-1
 546 454 l 1,17,-1
 420 454 l 1,18,-1
 388 266 l 1,19,-1
 512 266 l 1,20,-1
 512 220 l 1,21,-1
 380 220 l 1,22,-1
 341 0 l 1,23,-1
 293 0 l 1,24,-1
 332 220 l 1,25,-1
 188 220 l 1,26,-1
 150 0 l 1,27,-1
 103 0 l 1,0,-1
196 266 m 1,28,-1
 340 266 l 1,29,-1
 372 454 l 1,30,-1
 228 454 l 1,31,-1
 196 266 l 1,28,-1
EndSplineSet
EndChar

StartChar: dollar
Encoding: 36 36 7
Width: 600
Flags: W
LayerCount: 2
Fore
SplineSet
274 -58 m 1,0,-1
 274 27 l 1,1,2
 218 28 218 28 172.5 36.5 c 128,-1,3
 127 45 127 45 95 58 c 1,4,-1
 95 115 l 1,5,6
 129 100 129 100 176.5 89.5 c 128,-1,7
 224 79 224 79 274 78 c 1,8,-1
 274 340 l 1,9,10
 218 360 218 360 176 383 c 128,-1,11
 134 406 134 406 111 439.5 c 128,-1,12
 88 473 88 473 88 526 c 0,13,14
 88 600 88 600 140 642.5 c 128,-1,15
 192 685 192 685 274 690 c 1,16,-1
 274 759 l 1,17,-1
 318 759 l 1,18,-1
 318 690 l 1,19,20
 363 689 363 689 403.5 679.5 c 128,-1,21
 444 670 444 670 482 654 c 1,22,-1
 464 605 l 1,23,24
 388 637 388 637 318 640 c 1,25,-1
 318 382 l 1,26,27
 378 362 378 362 421 340.5 c 128,-1,28
 464 319 464 319 487.5 285.5 c 128,-1,29
 511 252 511 252 511 199 c 0,30,31
 511 124 511 124 458.5 80 c 128,-1,32
 406 36 406 36 318 29 c 1,33,-1
 318 -58 l 1,34,-1
 274 -58 l 1,0,-1
274 398 m 1,35,-1
 274 639 l 1,36,37
 216 635 216 635 180.5 606.5 c 128,-1,38
 145 578 145 578 145 526 c 0,39,40
 145 472 145 472 180 445 c 128,-1,41
 215 418 215 418 274 398 c 1,35,-1
318 80 m 1,42,43
 382 85 382 85 418 115 c 128,-1,44
 454 145 454 145 454 200 c 0,45,46
 454 251 454 251 420.5 276.5 c 128,-1,47
 387 302 387 302 318 325 c 1,48,-1
 318 80 l 1,42,43
EndSplineSet
EndChar

StartChar: percent
Encoding: 37 37 8
Width: 600
Flags: W
LayerCount: 2
Fore
SplineSet
140 383 m 0,0,1
 74 383 74 383 37 429.5 c 128,-1,2
 0 476 0 476 0 554 c 0,3,4
 0 630 0 630 36.5 676 c 128,-1,5
 73 722 73 722 142 722 c 0,6,7
 206 722 206 722 243.5 676 c 128,-1,8
 281 630 281 630 281 554 c 0,9,10
 281 476 281 476 244.5 429.5 c 128,-1,11
 208 383 208 383 140 383 c 0,0,1
88 0 m 1,12,-1
 452 714 l 1,13,-1
 505 714 l 1,14,-1
 142 0 l 1,15,-1
 88 0 l 1,12,-1
141 424 m 0,16,17
 186 424 186 424 208 458 c 128,-1,18
 230 492 230 492 230 554 c 0,19,20
 230 614 230 614 208.5 647 c 128,-1,21
 187 680 187 680 141 680 c 0,22,23
 94 680 94 680 72 647 c 128,-1,24
 50 614 50 614 50 554 c 0,25,26
 50 493 50 493 72 458.5 c 128,-1,27
 94 424 94 424 141 424 c 0,16,17
460 -9 m 0,28,29
 393 -9 393 -9 356 37.5 c 128,-1,30
 319 84 319 84 319 162 c 0,31,32
 319 238 319 238 355 284 c 128,-1,33
 391 330 391 330 460 330 c 0,34,35
 526 330 526 330 563 284 c 128,-1,36
 600 238 600 238 600 162 c 0,37,38
 600 84 600 84 564 37.5 c 128,-1,39
 528 -9 528 -9 460 -9 c 0,28,29
460 32 m 0,40,41
 505 32 505 32 527.5 66 c 128,-1,42
 550 100 550 100 550 162 c 0,43,44
 550 222 550 222 527.5 255 c 128,-1,45
 505 288 505 288 460 288 c 0,46,47
 414 288 414 288 391.5 255 c 128,-1,48
 369 222 369 222 369 162 c 0,49,50
 369 101 369 101 391.5 66.5 c 128,-1,51
 414 32 414 32 460 32 c 0,40,41
EndSplineSet
EndChar

StartChar: ampersand
Encoding: 38 38 9
Width: 600
Flags: W
LayerCount: 2
Fore
SplineSet
243 -10 m 0,0,1
 158 -10 158 -10 110 41 c 128,-1,2
 62 92 62 92 62 176 c 0,3,4
 62 230 62 230 81 269 c 128,-1,5
 100 308 100 308 131.5 337.5 c 128,-1,6
 163 367 163 367 200 393 c 1,7,8
 167 438 167 438 145.5 484 c 128,-1,9
 124 530 124 530 124 580 c 0,10,11
 124 646 124 646 161.5 685.5 c 128,-1,12
 199 725 199 725 262 725 c 256,13,14
 325 725 325 725 362.5 686.5 c 128,-1,15
 400 648 400 648 400 582 c 0,16,17
 400 534 400 534 381 497.5 c 128,-1,18
 362 461 362 461 332.5 433.5 c 128,-1,19
 303 406 303 406 271 382 c 1,20,-1
 437 172 l 1,21,22
 458 209 458 209 472.5 251 c 128,-1,23
 487 293 487 293 492 333 c 1,24,-1
 546 333 l 1,25,26
 537 277 537 277 518.5 224.5 c 128,-1,27
 500 172 500 172 471 128 c 1,28,-1
 572 0 l 1,29,-1
 503 0 l 1,30,-1
 438 84 l 1,31,32
 401 41 401 41 352 15.5 c 128,-1,33
 303 -10 303 -10 243 -10 c 0,0,1
178 580 m 0,34,35
 178 539 178 539 196 498 c 128,-1,36
 214 457 214 457 241 421 c 1,37,38
 266 438 266 438 290 461.5 c 128,-1,39
 314 485 314 485 330 514.5 c 128,-1,40
 346 544 346 544 346 582 c 0,41,42
 346 626 346 626 323.5 652 c 128,-1,43
 301 678 301 678 262 678 c 256,44,45
 223 678 223 678 200.5 651 c 128,-1,46
 178 624 178 624 178 580 c 0,34,35
118 178 m 0,47,48
 118 116 118 116 152.5 78.5 c 128,-1,49
 187 41 187 41 248 41 c 0,50,51
 296 41 296 41 335.5 64.5 c 128,-1,52
 375 88 375 88 406 126 c 1,53,-1
 230 354 l 1,54,55
 185 321 185 321 151.5 281 c 128,-1,56
 118 241 118 241 118 178 c 0,47,48
EndSplineSet
Substitution2: "'smcp' Lowercase to Small Capitals lookup 33 subtable" ampersand.sc
Substitution2: "'c2sc' Capitals to Small Capitals lookup 32 subtable" ampersand.sc
Substitution2: "'aalt' Access All Alternates lookup 0 subtable" ampersand.sc
EndChar

StartChar: quotesingle
Encoding: 39 39 10
Width: 600
Flags: W
LayerCount: 2
Fore
SplineSet
281 456 m 1,0,-1
 269 714 l 1,1,-1
 330 714 l 1,2,-1
 318 456 l 1,3,-1
 281 456 l 1,0,-1
EndSplineSet
EndChar

StartChar: parenleft
Encoding: 40 40 11
Width: 600
Flags: W
LayerCount: 2
Fore
SplineSet
357 -158 m 1,0,1
 285 -72 285 -72 248 38 c 128,-1,2
 211 148 211 148 211 274 c 0,3,4
 211 402 211 402 248 515 c 128,-1,5
 285 628 285 628 357 714 c 1,6,-1
 414 714 l 1,7,8
 340 622 340 622 304.5 509.5 c 128,-1,9
 269 397 269 397 269 275 c 0,10,11
 269 154 269 154 304.5 44 c 128,-1,12
 340 -66 340 -66 412 -158 c 1,13,-1
 357 -158 l 1,0,1
EndSplineSet
Substitution2: "'smcp' Lowercase to Small Capitals lookup 33 subtable" parenleft.sc
Substitution2: "'c2sc' Capitals to Small Capitals lookup 32 subtable" parenleft.sc
Substitution2: "'sups' Superscript lookup 21 subtable" uni207D
Substitution2: "'subs' Subscript lookup 20 subtable" uni208D
AlternateSubs2: "'aalt' Access All Alternates lookup 1 subtable" uni208D uni207D parenleft.sc
EndChar

StartChar: asterisk
Encoding: 42 42 13
Width: 600
Flags: W
LayerCount: 2
Fore
SplineSet
410 346 m 1,0,-1
 312 506 l 1,1,-1
 214 346 l 1,2,-1
 166 378 l 1,3,-1
 280 526 l 1,4,-1
 101 566 l 1,5,-1
 112 616 l 1,6,-1
 294 562 l 1,7,-1
 284 752 l 1,8,-1
 338 752 l 1,9,-1
 330 562 l 1,10,-1
 512 618 l 1,11,-1
 523 564 l 1,12,-1
 346 526 l 1,13,-1
 460 378 l 1,14,-1
 410 346 l 1,0,-1
EndSplineSet
EndChar

StartChar: plus
Encoding: 43 43 14
Width: 600
Flags: W
LayerCount: 2
Fore
SplineSet
276 122 m 1,0,-1
 276 329 l 1,1,-1
 75 329 l 1,2,-1
 75 376 l 1,3,-1
 276 376 l 1,4,-1
 276 584 l 1,5,-1
 324 584 l 1,6,-1
 324 376 l 1,7,-1
 525 376 l 1,8,-1
 525 329 l 1,9,-1
 324 329 l 1,10,-1
 324 122 l 1,11,-1
 276 122 l 1,0,-1
EndSplineSet
Substitution2: "'sups' Superscript lookup 21 subtable" uni207A
Substitution2: "'subs' Subscript lookup 20 subtable" uni208A
AlternateSubs2: "'aalt' Access All Alternates lookup 1 subtable" uni208A uni207A
EndChar

StartChar: comma
Encoding: 44 44 15
Width: 600
Flags: W
LayerCount: 2
Fore
SplineSet
230 -134 m 1,0,1
 248 -65 248 -65 262 0 c 128,-1,2
 276 65 276 65 284 122 c 1,3,-1
 352 122 l 1,4,-1
 358 110 l 1,5,6
 344 53 344 53 323 -12.5 c 128,-1,7
 302 -78 302 -78 278 -134 c 1,8,-1
 230 -134 l 1,0,1
EndSplineSet
EndChar

StartChar: hyphen
Encoding: 45 45 16
Width: 600
Flags: W
LayerCount: 2
Fore
SplineSet
150 248 m 1,0,-1
 150 300 l 1,1,-1
 450 300 l 1,2,-1
 450 248 l 1,3,-1
 150 248 l 1,0,-1
EndSplineSet
EndChar

StartChar: period
Encoding: 46 46 17
Width: 600
Flags: W
LayerCount: 2
Fore
SplineSet
300 -11 m 256,0,1
 254 -11 254 -11 254 40 c 0,2,3
 254 92 254 92 300 92 c 256,4,5
 346 92 346 92 346 40 c 0,6,7
 346 -11 346 -11 300 -11 c 256,0,1
EndSplineSet
EndChar

StartChar: slash
Encoding: 47 47 18
Width: 600
Flags: W
LayerCount: 2
Fore
SplineSet
136 0 m 1,0,-1
 407 714 l 1,1,-1
 464 714 l 1,2,-1
 193 0 l 1,3,-1
 136 0 l 1,0,-1
EndSplineSet
Substitution2: "'frac' Diagonal Fractions lookup 24 subtable" fraction
Substitution2: "'aalt' Access All Alternates lookup 0 subtable" fraction
EndChar

StartChar: zero
Encoding: 48 48 19
Width: 600
Flags: W
LayerCount: 2
Fore
SplineSet
300 -10 m 0,0,1
 185 -10 185 -10 129.5 83 c 128,-1,2
 74 176 74 176 74 358 c 0,3,4
 74 470 74 470 96 552 c 128,-1,5
 118 634 118 634 168 679 c 128,-1,6
 218 724 218 724 301 724 c 256,7,8
 384 724 384 724 433 679.5 c 128,-1,9
 482 635 482 635 504 553.5 c 128,-1,10
 526 472 526 472 526 362 c 0,11,12
 526 180 526 180 472 85 c 128,-1,13
 418 -10 418 -10 300 -10 c 0,0,1
129 359 m 0,14,15
 129 240 129 240 152 166 c 1,16,-1
 417 617 l 1,17,18
 376 672 376 672 301 672 c 0,19,20
 206 672 206 672 167.5 589.5 c 128,-1,21
 129 507 129 507 129 359 c 0,14,15
300 42 m 0,22,23
 389 42 389 42 430.5 120 c 128,-1,24
 472 198 472 198 472 360 c 0,25,26
 472 422 472 422 465.5 473 c 128,-1,27
 459 524 459 524 445 563 c 1,28,-1
 177 109 l 1,29,30
 219 42 219 42 300 42 c 0,22,23
EndSplineSet
Substitution2: "'zero' Slashed Zero lookup 36 subtable" zero.slash
Substitution2: "'onum' Oldstyle Figures lookup 31 subtable" zero.osf
Substitution2: "'frac' Diagonal Fractions lookup 25 subtable" zero.numr
Substitution2: "'dnom' Denominators lookup 23 subtable" zero.dnom
Substitution2: "'numr' Numerators lookup 22 subtable" zero.numr
Substitution2: "'sups' Superscript lookup 21 subtable" uni2070
Substitution2: "'subs' Subscript lookup 20 subtable" uni2080
AlternateSubs2: "'aalt' Access All Alternates lookup 1 subtable" uni2070 zero.osf zero.dnom zero.numr uni2080
EndChar

StartChar: one
Encoding: 49 49 20
Width: 600
Flags: W
LayerCount: 2
Fore
SplineSet
166 0 m 1,0,-1
 166 40 l 1,1,-1
 308 46 l 1,2,-1
 308 504 l 2,3,4
 308 547 308 547 308.5 587 c 128,-1,5
 309 627 309 627 310 654 c 1,6,7
 296 644 296 644 284 636 c 128,-1,8
 272 628 272 628 250 615 c 2,9,-1
 146 548 l 1,10,-1
 119 592 l 1,11,-1
 316 714 l 1,12,-1
 364 714 l 1,13,-1
 364 46 l 1,14,-1
 503 40 l 1,15,-1
 503 0 l 1,16,-1
 166 0 l 1,0,-1
EndSplineSet
Substitution2: "'onum' Oldstyle Figures lookup 31 subtable" one.osf
Substitution2: "'frac' Diagonal Fractions lookup 25 subtable" one.numr
Substitution2: "'dnom' Denominators lookup 23 subtable" one.dnom
Substitution2: "'numr' Numerators lookup 22 subtable" one.numr
Substitution2: "'sups' Superscript lookup 21 subtable" uni00B9
Substitution2: "'subs' Subscript lookup 20 subtable" uni2081
AlternateSubs2: "'aalt' Access All Alternates lookup 1 subtable" uni00B9 one.osf one.dnom one.numr uni2081
EndChar

StartChar: two
Encoding: 50 50 21
Width: 600
Flags: W
LayerCount: 2
Fore
SplineSet
90 0 m 1,0,-1
 90 49 l 1,1,-1
 296 262 l 2,2,3
 344 310 344 310 375.5 352.5 c 128,-1,4
 407 395 407 395 422.5 438.5 c 128,-1,5
 438 482 438 482 438 532 c 0,6,7
 438 601 438 601 399 636.5 c 128,-1,8
 360 672 360 672 296 672 c 0,9,10
 251 672 251 672 207.5 655 c 128,-1,11
 164 638 164 638 126 606 c 1,12,-1
 94 648 l 1,13,14
 137 684 137 684 188.5 704 c 128,-1,15
 240 724 240 724 298 724 c 0,16,17
 389 724 389 724 443 673.5 c 128,-1,18
 497 623 497 623 497 533 c 0,19,20
 497 448 497 448 459.5 380.5 c 128,-1,21
 422 313 422 313 348 240 c 2,22,-1
 168 55 l 1,23,-1
 168 52 l 1,24,-1
 533 52 l 1,25,-1
 533 0 l 1,26,-1
 90 0 l 1,0,-1
EndSplineSet
Substitution2: "'onum' Oldstyle Figures lookup 31 subtable" two.osf
Substitution2: "'frac' Diagonal Fractions lookup 25 subtable" two.numr
Substitution2: "'dnom' Denominators lookup 23 subtable" two.dnom
Substitution2: "'numr' Numerators lookup 22 subtable" two.numr
Substitution2: "'sups' Superscript lookup 21 subtable" uni00B2
Substitution2: "'subs' Subscript lookup 20 subtable" uni2082
AlternateSubs2: "'aalt' Access All Alternates lookup 1 subtable" uni00B2 two.osf two.dnom two.numr uni2082
EndChar

StartChar: three
Encoding: 51 51 22
Width: 600
Flags: W
LayerCount: 2
Fore
SplineSet
272 -10 m 0,0,1
 225 -10 225 -10 175.5 0 c 128,-1,2
 126 10 126 10 86 30 c 1,3,-1
 86 87 l 1,4,5
 126 67 126 67 176.5 54.5 c 128,-1,6
 227 42 227 42 278 42 c 0,7,8
 372 42 372 42 418 85 c 128,-1,9
 464 128 464 128 464 198 c 0,10,11
 464 278 464 278 410.5 311 c 128,-1,12
 357 344 357 344 266 344 c 2,13,-1
 188 344 l 1,14,-1
 188 396 l 1,15,-1
 266 396 l 2,16,17
 342 396 342 396 392 434 c 128,-1,18
 442 472 442 472 442 546 c 0,19,20
 442 608 442 608 404 640 c 128,-1,21
 366 672 366 672 299 672 c 0,22,23
 249 672 249 672 205 655 c 128,-1,24
 161 638 161 638 122 610 c 1,25,-1
 92 650 l 1,26,27
 132 682 132 682 185 703 c 128,-1,28
 238 724 238 724 302 724 c 0,29,30
 396 724 396 724 449 677 c 128,-1,31
 502 630 502 630 502 550 c 0,32,33
 502 477 502 477 461 432 c 128,-1,34
 420 387 420 387 356 376 c 1,35,-1
 356 373 l 1,36,37
 437 362 437 362 480.5 318 c 128,-1,38
 524 274 524 274 524 196 c 0,39,40
 524 105 524 105 462 47.5 c 128,-1,41
 400 -10 400 -10 272 -10 c 0,0,1
EndSplineSet
Substitution2: "'onum' Oldstyle Figures lookup 31 subtable" three.osf
Substitution2: "'frac' Diagonal Fractions lookup 25 subtable" three.numr
Substitution2: "'dnom' Denominators lookup 23 subtable" three.dnom
Substitution2: "'numr' Numerators lookup 22 subtable" three.numr
Substitution2: "'sups' Superscript lookup 21 subtable" uni00B3
Substitution2: "'subs' Subscript lookup 20 subtable" uni2083
AlternateSubs2: "'aalt' Access All Alternates lookup 1 subtable" uni00B3 three.osf three.dnom three.numr uni2083
EndChar

StartChar: four
Encoding: 52 52 23
Width: 600
Flags: W
LayerCount: 2
Fore
SplineSet
380 0 m 1,0,-1
 380 178 l 1,1,-1
 55 178 l 1,2,-1
 55 224 l 1,3,-1
 369 718 l 1,4,-1
 436 718 l 1,5,-1
 436 228 l 1,6,-1
 545 228 l 1,7,-1
 545 178 l 1,8,-1
 436 178 l 1,9,-1
 436 0 l 1,10,-1
 380 0 l 1,0,-1
115 228 m 1,11,-1
 380 228 l 1,12,-1
 380 470 l 2,13,14
 380 529 380 529 381 574.5 c 128,-1,15
 382 620 382 620 384 656 c 1,16,-1
 380 656 l 1,17,18
 357 608 357 608 328 562 c 2,19,-1
 115 228 l 1,11,-1
EndSplineSet
Substitution2: "'onum' Oldstyle Figures lookup 31 subtable" four.osf
Substitution2: "'frac' Diagonal Fractions lookup 25 subtable" four.numr
Substitution2: "'dnom' Denominators lookup 23 subtable" four.dnom
Substitution2: "'numr' Numerators lookup 22 subtable" four.numr
Substitution2: "'sups' Superscript lookup 21 subtable" uni2074
Substitution2: "'subs' Subscript lookup 20 subtable" uni2084
AlternateSubs2: "'aalt' Access All Alternates lookup 1 subtable" uni2074 four.osf four.dnom four.numr uni2084
EndChar

StartChar: five
Encoding: 53 53 24
Width: 600
Flags: W
LayerCount: 2
Fore
SplineSet
266 -10 m 0,0,1
 218 -10 218 -10 171 1 c 128,-1,2
 124 12 124 12 92 30 c 1,3,-1
 92 88 l 1,4,5
 126 66 126 66 171 54 c 128,-1,6
 216 42 216 42 264 42 c 0,7,8
 352 42 352 42 402 86.5 c 128,-1,9
 452 131 452 131 452 216 c 0,10,11
 452 296 452 296 406 339.5 c 128,-1,12
 360 383 360 383 272 383 c 0,13,14
 208 383 208 383 143 364 c 1,15,-1
 112 386 l 1,16,-1
 140 714 l 1,17,-1
 475 714 l 1,18,-1
 475 662 l 1,19,-1
 190 662 l 1,20,-1
 168 417 l 1,21,22
 185 422 185 422 219 427 c 128,-1,23
 253 432 253 432 287 432 c 0,24,25
 388 432 388 432 450 378 c 128,-1,26
 512 324 512 324 512 220 c 0,27,28
 512 114 512 114 448 52 c 128,-1,29
 384 -10 384 -10 266 -10 c 0,0,1
EndSplineSet
Substitution2: "'onum' Oldstyle Figures lookup 31 subtable" five.osf
Substitution2: "'frac' Diagonal Fractions lookup 25 subtable" five.numr
Substitution2: "'dnom' Denominators lookup 23 subtable" five.dnom
Substitution2: "'numr' Numerators lookup 22 subtable" five.numr
Substitution2: "'sups' Superscript lookup 21 subtable" uni2075
Substitution2: "'subs' Subscript lookup 20 subtable" uni2085
AlternateSubs2: "'aalt' Access All Alternates lookup 1 subtable" uni2075 five.osf five.dnom five.numr uni2085
EndChar

StartChar: six
Encoding: 54 54 25
Width: 600
Flags: W
LayerCount: 2
Fore
SplineSet
310 -10 m 0,0,1
 230 -10 230 -10 178 31 c 128,-1,2
 126 72 126 72 100.5 146 c 128,-1,3
 75 220 75 220 75 318 c 0,4,5
 75 438 75 438 106 529.5 c 128,-1,6
 137 621 137 621 204 673 c 128,-1,7
 271 725 271 725 378 725 c 0,8,9
 399 725 399 725 424.5 722 c 128,-1,10
 450 719 450 719 468 714 c 1,11,-1
 468 661 l 1,12,13
 450 668 450 668 426 671 c 128,-1,14
 402 674 402 674 378 674 c 0,15,16
 256 674 256 674 195 589.5 c 128,-1,17
 134 505 134 505 132 343 c 1,18,-1
 136 343 l 1,19,20
 156 383 156 383 200 414.5 c 128,-1,21
 244 446 244 446 318 446 c 0,22,23
 415 446 415 446 471 387.5 c 128,-1,24
 527 329 527 329 527 228 c 0,25,26
 527 120 527 120 469 55 c 128,-1,27
 411 -10 411 -10 310 -10 c 0,0,1
310 40 m 0,28,29
 384 40 384 40 427 87.5 c 128,-1,30
 470 135 470 135 470 228 c 0,31,32
 470 308 470 308 431 353 c 128,-1,33
 392 398 392 398 312 398 c 0,34,35
 258 398 258 398 218.5 376 c 128,-1,36
 179 354 179 354 157.5 319.5 c 128,-1,37
 136 285 136 285 136 246 c 0,38,39
 136 219 136 219 144.5 184 c 128,-1,40
 153 149 153 149 173 116 c 128,-1,41
 193 83 193 83 226.5 61.5 c 128,-1,42
 260 40 260 40 310 40 c 0,28,29
EndSplineSet
Substitution2: "'onum' Oldstyle Figures lookup 31 subtable" six.osf
Substitution2: "'frac' Diagonal Fractions lookup 25 subtable" six.numr
Substitution2: "'dnom' Denominators lookup 23 subtable" six.dnom
Substitution2: "'numr' Numerators lookup 22 subtable" six.numr
Substitution2: "'sups' Superscript lookup 21 subtable" uni2076
Substitution2: "'subs' Subscript lookup 20 subtable" uni2086
AlternateSubs2: "'aalt' Access All Alternates lookup 1 subtable" uni2076 six.osf six.dnom six.numr uni2086
EndChar

StartChar: seven
Encoding: 55 55 26
Width: 600
Flags: W
LayerCount: 2
Fore
SplineSet
194 0 m 1,0,-1
 464 662 l 1,1,-1
 94 662 l 1,2,-1
 94 714 l 1,3,-1
 525 714 l 1,4,-1
 525 670 l 1,5,-1
 256 0 l 1,6,-1
 194 0 l 1,0,-1
EndSplineSet
Substitution2: "'onum' Oldstyle Figures lookup 31 subtable" seven.osf
Substitution2: "'frac' Diagonal Fractions lookup 25 subtable" seven.numr
Substitution2: "'dnom' Denominators lookup 23 subtable" seven.dnom
Substitution2: "'numr' Numerators lookup 22 subtable" seven.numr
Substitution2: "'sups' Superscript lookup 21 subtable" uni2077
Substitution2: "'subs' Subscript lookup 20 subtable" uni2087
AlternateSubs2: "'aalt' Access All Alternates lookup 1 subtable" uni2077 seven.osf seven.dnom seven.numr uni2087
EndChar

StartChar: eight
Encoding: 56 56 27
Width: 600
Flags: W
LayerCount: 2
Fore
SplineSet
286 -10 m 0,0,1
 222 -10 222 -10 173.5 13 c 128,-1,2
 125 36 125 36 98 78.5 c 128,-1,3
 71 121 71 121 71 178 c 0,4,5
 71 255 71 255 116.5 302.5 c 128,-1,6
 162 350 162 350 232 378 c 1,7,8
 195 396 195 396 163.5 420 c 128,-1,9
 132 444 132 444 113 477 c 128,-1,10
 94 510 94 510 94 556 c 0,11,12
 94 609 94 609 120 646.5 c 128,-1,13
 146 684 146 684 191.5 704 c 128,-1,14
 237 724 237 724 294 724 c 0,15,16
 348 724 348 724 392 704.5 c 128,-1,17
 436 685 436 685 462 648.5 c 128,-1,18
 488 612 488 612 488 559 c 0,19,20
 488 492 488 492 449 450.5 c 128,-1,21
 410 409 410 409 344 380 c 1,22,23
 420 347 420 347 466 301 c 128,-1,24
 512 255 512 255 512 180 c 0,25,26
 512 122 512 122 483 79.5 c 128,-1,27
 454 37 454 37 403 13.5 c 128,-1,28
 352 -10 352 -10 286 -10 c 0,0,1
292 404 m 1,29,30
 357 431 357 431 394.5 464.5 c 128,-1,31
 432 498 432 498 432 557 c 0,32,33
 432 613 432 613 394.5 643.5 c 128,-1,34
 357 674 357 674 293 674 c 256,35,36
 229 674 229 674 190 643 c 128,-1,37
 151 612 151 612 151 554 c 0,38,39
 151 513 151 513 169.5 485.5 c 128,-1,40
 188 458 188 458 220 439 c 128,-1,41
 252 420 252 420 292 404 c 1,29,30
288 39 m 256,42,43
 364 39 364 39 409.5 77.5 c 128,-1,44
 455 116 455 116 455 184 c 0,45,46
 455 242 455 242 415.5 279 c 128,-1,47
 376 316 376 316 284 354 c 1,48,49
 216 327 216 327 172 286.5 c 128,-1,50
 128 246 128 246 128 178 c 0,51,52
 128 116 128 116 170 77.5 c 128,-1,53
 212 39 212 39 288 39 c 256,42,43
EndSplineSet
Substitution2: "'onum' Oldstyle Figures lookup 31 subtable" eight.osf
Substitution2: "'frac' Diagonal Fractions lookup 25 subtable" eight.numr
Substitution2: "'dnom' Denominators lookup 23 subtable" eight.dnom
Substitution2: "'numr' Numerators lookup 22 subtable" eight.numr
Substitution2: "'sups' Superscript lookup 21 subtable" uni2078
Substitution2: "'subs' Subscript lookup 20 subtable" uni2088
AlternateSubs2: "'aalt' Access All Alternates lookup 1 subtable" uni2078 eight.osf eight.dnom eight.numr uni2088
EndChar

StartChar: nine
Encoding: 57 57 28
Width: 600
Flags: W
LayerCount: 2
Fore
SplineSet
223 -10 m 0,0,1
 164 -10 164 -10 125 1 c 1,2,-1
 125 54 l 1,3,4
 142 48 142 48 167.5 44 c 128,-1,5
 193 40 193 40 221 40 c 0,6,7
 340 40 340 40 401 124 c 128,-1,8
 462 208 462 208 467 372 c 1,9,-1
 463 372 l 1,10,11
 443 332 443 332 397.5 301 c 128,-1,12
 352 270 352 270 279 270 c 0,13,14
 182 270 182 270 127 328 c 128,-1,15
 72 386 72 386 72 490 c 0,16,17
 72 596 72 596 130 660.5 c 128,-1,18
 188 725 188 725 290 725 c 0,19,20
 406 725 406 725 465 636.5 c 128,-1,21
 524 548 524 548 524 396 c 0,22,23
 524 278 524 278 493 186 c 128,-1,24
 462 94 462 94 396 42 c 128,-1,25
 330 -10 330 -10 223 -10 c 0,0,1
284 317 m 0,26,27
 338 317 338 317 378.5 338.5 c 128,-1,28
 419 360 419 360 441.5 394.5 c 128,-1,29
 464 429 464 429 464 468 c 0,30,31
 464 495 464 495 455 530.5 c 128,-1,32
 446 566 446 566 426 599 c 128,-1,33
 406 632 406 632 373 653.5 c 128,-1,34
 340 675 340 675 290 675 c 0,35,36
 214 675 214 675 171 626.5 c 128,-1,37
 128 578 128 578 128 489 c 0,38,39
 128 404 128 404 168 360.5 c 128,-1,40
 208 317 208 317 284 317 c 0,26,27
EndSplineSet
Substitution2: "'onum' Oldstyle Figures lookup 31 subtable" nine.osf
Substitution2: "'frac' Diagonal Fractions lookup 25 subtable" nine.numr
Substitution2: "'dnom' Denominators lookup 23 subtable" nine.dnom
Substitution2: "'numr' Numerators lookup 22 subtable" nine.numr
Substitution2: "'sups' Superscript lookup 21 subtable" uni2079
Substitution2: "'subs' Subscript lookup 20 subtable" uni2089
AlternateSubs2: "'aalt' Access All Alternates lookup 1 subtable" uni2079 nine.osf nine.dnom nine.numr uni2089
EndChar

StartChar: colon
Encoding: 58 58 29
Width: 600
Flags: W
LayerCount: 2
Fore
SplineSet
300 438 m 0,0,1
 254 438 254 438 254 490 c 0,2,3
 254 541 254 541 300 541 c 0,4,5
 345 541 345 541 345 490 c 0,6,7
 345 438 345 438 300 438 c 0,0,1
300 -11 m 0,8,9
 254 -11 254 -11 254 40 c 0,10,11
 254 92 254 92 300 92 c 0,12,13
 344 92 344 92 344 40 c 0,14,15
 344 -11 344 -11 300 -11 c 0,8,9
EndSplineSet
EndChar

StartChar: semicolon
Encoding: 59 59 30
Width: 600
Flags: W
LayerCount: 2
Fore
SplineSet
316 440 m 0,0,1
 273 440 273 440 273 490 c 0,2,3
 273 539 273 539 316 539 c 0,4,5
 361 539 361 539 361 490 c 0,6,7
 361 440 361 440 316 440 c 0,0,1
224 -134 m 1,8,9
 244 -65 244 -65 257.5 0 c 128,-1,10
 271 65 271 65 280 122 c 1,11,-1
 347 122 l 1,12,-1
 352 110 l 1,13,14
 339 53 339 53 317.5 -12.5 c 128,-1,15
 296 -78 296 -78 272 -134 c 1,16,-1
 224 -134 l 1,8,9
EndSplineSet
EndChar

StartChar: equal
Encoding: 61 61 32
Width: 600
Flags: W
LayerCount: 2
Fore
SplineSet
70 424 m 1,0,-1
 70 477 l 1,1,-1
 530 477 l 1,2,-1
 530 424 l 1,3,-1
 70 424 l 1,0,-1
70 228 m 1,4,-1
 70 280 l 1,5,-1
 530 280 l 1,6,-1
 530 228 l 1,7,-1
 70 228 l 1,4,-1
EndSplineSet
Substitution2: "'sups' Superscript lookup 21 subtable" uni207C
Substitution2: "'subs' Subscript lookup 20 subtable" uni208C
AlternateSubs2: "'aalt' Access All Alternates lookup 1 subtable" uni208C uni207C
EndChar

StartChar: greater
Encoding: 62 62 33
Width: 600
Flags: W
LayerCount: 2
Fore
SplineSet
80 127 m 1,0,-1
 80 179 l 1,1,-1
 455 356 l 1,2,-1
 80 545 l 1,3,-1
 80 597 l 1,4,-1
 520 372 l 1,5,-1
 520 338 l 1,6,-1
 80 127 l 1,0,-1
EndSplineSet
EndChar

StartChar: question
Encoding: 63 63 34
Width: 600
Flags: W
LayerCount: 2
Fore
SplineSet
234 188 m 1,0,-1
 234 203 l 2,1,2
 234 246 234 246 242 276.5 c 128,-1,3
 250 307 250 307 270 331.5 c 128,-1,4
 290 356 290 356 327 382 c 0,5,6
 362 406 362 406 385.5 429 c 128,-1,7
 409 452 409 452 421 480.5 c 128,-1,8
 433 509 433 509 433 550 c 0,9,10
 433 608 433 608 394.5 640 c 128,-1,11
 356 672 356 672 290 672 c 0,12,13
 245 672 245 672 207.5 662 c 128,-1,14
 170 652 170 652 132 634 c 1,15,-1
 111 684 l 1,16,17
 153 702 153 702 193.5 713 c 128,-1,18
 234 724 234 724 288 724 c 0,19,20
 380 724 380 724 434.5 679 c 128,-1,21
 489 634 489 634 489 552 c 0,22,23
 489 503 489 503 474.5 468 c 128,-1,24
 460 433 460 433 433 405.5 c 128,-1,25
 406 378 406 378 367 350 c 0,26,27
 334 326 334 326 316.5 305.5 c 128,-1,28
 299 285 299 285 292.5 260 c 128,-1,29
 286 235 286 235 286 198 c 2,30,-1
 286 188 l 1,31,-1
 234 188 l 1,0,-1
262 -11 m 0,32,33
 218 -11 218 -11 218 40 c 0,34,35
 218 92 218 92 262 92 c 0,36,37
 308 92 308 92 308 40 c 0,38,39
 308 -11 308 -11 262 -11 c 0,32,33
EndSplineSet
Substitution2: "'smcp' Lowercase to Small Capitals lookup 33 subtable" question.sc
Substitution2: "'c2sc' Capitals to Small Capitals lookup 32 subtable" question.sc
Substitution2: "'aalt' Access All Alternates lookup 0 subtable" question.sc
EndChar

StartChar: at
Encoding: 64 64 35
Width: 600
Flags: W
LayerCount: 2
Fore
SplineSet
324 -89 m 0,0,1
 225 -89 225 -89 156 -42 c 128,-1,2
 87 5 87 5 51 91 c 128,-1,3
 15 177 15 177 15 294 c 0,4,5
 15 422 15 422 52 516.5 c 128,-1,6
 89 611 89 611 157 662.5 c 128,-1,7
 225 714 225 714 318 714 c 0,8,9
 400 714 400 714 460 670.5 c 128,-1,10
 520 627 520 627 552.5 546.5 c 128,-1,11
 585 466 585 466 585 356 c 0,12,13
 585 292 585 292 573 236 c 128,-1,14
 561 180 561 180 535.5 145.5 c 128,-1,15
 510 111 510 111 469 111 c 0,16,17
 435 111 435 111 414.5 135.5 c 128,-1,18
 394 160 394 160 390 196 c 1,19,-1
 388 196 l 1,20,21
 374 158 374 158 345.5 134.5 c 128,-1,22
 317 111 317 111 278 111 c 0,23,24
 220 111 220 111 189 160.5 c 128,-1,25
 158 210 158 210 158 292 c 0,26,27
 158 358 158 358 178 408.5 c 128,-1,28
 198 459 198 459 235 487.5 c 128,-1,29
 272 516 272 516 324 516 c 0,30,31
 352 516 352 516 382 510 c 128,-1,32
 412 504 412 504 433 495 c 1,33,-1
 424 321 l 2,34,35
 423 308 423 308 422.5 289.5 c 128,-1,36
 422 271 422 271 422 257 c 0,37,38
 422 202 422 202 434 178.5 c 128,-1,39
 446 155 446 155 469 155 c 0,40,41
 494 155 494 155 509 182 c 128,-1,42
 524 209 524 209 531 254.5 c 128,-1,43
 538 300 538 300 538 356 c 0,44,45
 538 502 538 502 480 585 c 128,-1,46
 422 668 422 668 320 668 c 0,47,48
 240 668 240 668 182.5 623 c 128,-1,49
 125 578 125 578 94 494 c 128,-1,50
 63 410 63 410 63 294 c 0,51,52
 63 138 63 138 130.5 47.5 c 128,-1,53
 198 -43 198 -43 325 -43 c 0,54,55
 372 -43 372 -43 415 -32.5 c 128,-1,56
 458 -22 458 -22 496 -3 c 1,57,-1
 496 -49 l 1,58,59
 460 -68 460 -68 417 -78.5 c 128,-1,60
 374 -89 374 -89 324 -89 c 0,0,1
286 155 m 0,61,62
 326 155 326 155 347 198 c 128,-1,63
 368 241 368 241 372 323 c 2,64,-1
 380 460 l 1,65,66
 354 472 354 472 322 472 c 0,67,68
 266 472 266 472 238 420 c 128,-1,69
 210 368 210 368 210 291 c 0,70,71
 210 155 210 155 286 155 c 0,61,62
EndSplineSet
EndChar

StartChar: A
Encoding: 65 65 36
Width: 600
GlyphClass: 2
Flags: W
AnchorPoint: "Anchor-4" 580 714 basechar 0
AnchorPoint: "Anchor-3" 300 714 basechar 0
AnchorPoint: "Anchor-2" 540 10 basechar 0
AnchorPoint: "Anchor-0" 300 0 basechar 0
LayerCount: 2
Fore
SplineSet
20 0 m 1,0,-1
 270 716 l 1,1,-1
 330 716 l 1,2,-1
 580 0 l 1,3,-1
 520 0 l 1,4,-1
 437 245 l 1,5,-1
 163 245 l 1,6,-1
 79 0 l 1,7,-1
 20 0 l 1,0,-1
269 552 m 2,8,-1
 182 298 l 1,9,-1
 419 298 l 1,10,-1
 332 552 l 2,11,12
 325 570 325 570 316.5 597.5 c 128,-1,13
 308 625 308 625 300 652 c 1,14,15
 292 625 292 625 284 597.5 c 128,-1,16
 276 570 276 570 269 552 c 2,8,-1
EndSplineSet
Substitution2: "'c2sc' Capitals to Small Capitals lookup 32 subtable" a.sc
Substitution2: "Single Substitution lookup 30 subtable" ordfeminine
AlternateSubs2: "'aalt' Access All Alternates lookup 1 subtable" ordfeminine a.sc
EndChar

StartChar: B
Encoding: 66 66 37
Width: 600
GlyphClass: 2
Flags: W
AnchorPoint: "Anchor-4" 580 714 basechar 0
AnchorPoint: "Anchor-3" 300 714 basechar 0
AnchorPoint: "Anchor-0" 300 0 basechar 0
LayerCount: 2
Fore
SplineSet
105 0 m 1,0,-1
 105 714 l 1,1,-1
 284 714 l 2,2,3
 404 714 404 714 464 673 c 128,-1,4
 524 632 524 632 524 540 c 0,5,6
 524 476 524 476 489 432 c 128,-1,7
 454 388 454 388 389 378 c 1,8,-1
 389 374 l 1,9,10
 464 362 464 362 503 321.5 c 128,-1,11
 542 281 542 281 542 205 c 0,12,13
 542 101 542 101 475.5 50.5 c 128,-1,14
 409 0 409 0 302 0 c 2,15,-1
 105 0 l 1,0,-1
160 400 m 1,16,-1
 290 400 l 2,17,18
 381 400 381 400 422.5 434 c 128,-1,19
 464 468 464 468 464 534 c 0,20,21
 464 603 464 603 421 632.5 c 128,-1,22
 378 662 378 662 277 662 c 2,23,-1
 160 662 l 1,24,-1
 160 400 l 1,16,-1
160 51 m 1,25,-1
 292 51 l 2,26,27
 388 51 388 51 435.5 90.5 c 128,-1,28
 483 130 483 130 483 205 c 256,29,30
 483 280 483 280 435 314 c 128,-1,31
 387 348 387 348 289 348 c 2,32,-1
 160 348 l 1,33,-1
 160 51 l 1,25,-1
EndSplineSet
Substitution2: "'c2sc' Capitals to Small Capitals lookup 32 subtable" b.sc
Substitution2: "'aalt' Access All Alternates lookup 0 subtable" b.sc
EndChar

StartChar: C
Encoding: 67 67 38
Width: 600
GlyphClass: 2
Flags: W
AnchorPoint: "Anchor-4" 580 714 basechar 0
AnchorPoint: "Anchor-3" 360 714 basechar 0
AnchorPoint: "Anchor-0" 349 0 basechar 0
LayerCount: 2
Fore
SplineSet
364 -10 m 0,0,1
 262 -10 262 -10 196.5 36.5 c 128,-1,2
 131 83 131 83 99.5 164.5 c 128,-1,3
 68 246 68 246 68 353 c 0,4,5
 68 466 68 466 104 549.5 c 128,-1,6
 140 633 140 633 209 678.5 c 128,-1,7
 278 724 278 724 376 724 c 0,8,9
 422 724 422 724 466.5 714 c 128,-1,10
 511 704 511 704 550 684 c 1,11,-1
 528 636 l 1,12,13
 490 655 490 655 450 663.5 c 128,-1,14
 410 672 410 672 376 672 c 0,15,16
 256 672 256 672 191.5 587.5 c 128,-1,17
 127 503 127 503 127 353 c 0,18,19
 127 260 127 260 153 190.5 c 128,-1,20
 179 121 179 121 232.5 82.5 c 128,-1,21
 286 44 286 44 368 44 c 0,22,23
 407 44 407 44 448.5 52.5 c 128,-1,24
 490 61 490 61 528 76 c 1,25,-1
 528 20 l 1,26,27
 492 6 492 6 451.5 -2 c 128,-1,28
 411 -10 411 -10 364 -10 c 0,0,1
EndSplineSet
Substitution2: "'c2sc' Capitals to Small Capitals lookup 32 subtable" c.sc
Substitution2: "'aalt' Access All Alternates lookup 0 subtable" c.sc
EndChar

StartChar: D
Encoding: 68 68 39
Width: 600
GlyphClass: 2
Flags: W
AnchorPoint: "Anchor-4" 600 714 basechar 0
AnchorPoint: "Anchor-3" 290 714 basechar 0
AnchorPoint: "Anchor-1" 292 357 basechar 0
AnchorPoint: "Anchor-0" 267 0 basechar 0
LayerCount: 2
Fore
SplineSet
82 0 m 1,0,-1
 82 714 l 1,1,-1
 240 714 l 2,2,3
 388 714 388 714 469 624.5 c 128,-1,4
 550 535 550 535 550 364 c 0,5,6
 550 184 550 184 466 92 c 128,-1,7
 382 0 382 0 226 0 c 2,8,-1
 82 0 l 1,0,-1
140 51 m 1,9,-1
 216 51 l 2,10,11
 356 51 356 51 423 129.5 c 128,-1,12
 490 208 490 208 490 362 c 0,13,14
 490 662 490 662 230 662 c 2,15,-1
 140 662 l 1,16,-1
 140 51 l 1,9,-1
EndSplineSet
Substitution2: "'c2sc' Capitals to Small Capitals lookup 32 subtable" d.sc
Substitution2: "'aalt' Access All Alternates lookup 0 subtable" d.sc
EndChar

StartChar: E
Encoding: 69 69 40
Width: 600
GlyphClass: 2
Flags: W
AnchorPoint: "Anchor-4" 580 714 basechar 0
AnchorPoint: "Anchor-3" 308 714 basechar 0
AnchorPoint: "Anchor-2" 457 10 basechar 0
AnchorPoint: "Anchor-0" 307 0 basechar 0
LayerCount: 2
Fore
SplineSet
105 0 m 1,0,-1
 105 714 l 1,1,-1
 512 714 l 1,2,-1
 512 662 l 1,3,-1
 163 662 l 1,4,-1
 163 401 l 1,5,-1
 493 401 l 1,6,-1
 493 348 l 1,7,-1
 163 348 l 1,8,-1
 163 52 l 1,9,-1
 512 52 l 1,10,-1
 512 0 l 1,11,-1
 105 0 l 1,0,-1
EndSplineSet
Substitution2: "'c2sc' Capitals to Small Capitals lookup 32 subtable" e.sc
Substitution2: "'aalt' Access All Alternates lookup 0 subtable" e.sc
EndChar

StartChar: F
Encoding: 70 70 41
Width: 600
GlyphClass: 2
Flags: W
AnchorPoint: "Anchor-4" 580 714 basechar 0
AnchorPoint: "Anchor-3" 320 714 basechar 0
AnchorPoint: "Anchor-0" 315 0 basechar 0
LayerCount: 2
Fore
SplineSet
105 0 m 1,0,-1
 105 714 l 1,1,-1
 512 714 l 1,2,-1
 512 662 l 1,3,-1
 163 662 l 1,4,-1
 163 368 l 1,5,-1
 494 368 l 1,6,-1
 494 316 l 1,7,-1
 163 316 l 1,8,-1
 163 0 l 1,9,-1
 105 0 l 1,0,-1
EndSplineSet
Substitution2: "'c2sc' Capitals to Small Capitals lookup 32 subtable" f.sc
Substitution2: "'aalt' Access All Alternates lookup 0 subtable" f.sc
EndChar

StartChar: G
Encoding: 71 71 42
Width: 600
GlyphClass: 2
Flags: W
AnchorPoint: "Anchor-4" 580 714 basechar 0
AnchorPoint: "Anchor-3" 324 714 basechar 0
AnchorPoint: "Anchor-0" 334 0 basechar 0
LayerCount: 2
Fore
SplineSet
332 -10 m 0,0,1
 192 -10 192 -10 121 83 c 128,-1,2
 50 176 50 176 50 345 c 0,3,4
 50 462 50 462 84 547.5 c 128,-1,5
 118 633 118 633 183.5 679 c 128,-1,6
 249 725 249 725 344 725 c 0,7,8
 388 725 388 725 430 715 c 128,-1,9
 472 705 472 705 510 684 c 1,10,-1
 488 634 l 1,11,12
 454 654 454 654 417 663 c 128,-1,13
 380 672 380 672 345 672 c 0,14,15
 230 672 230 672 169.5 586 c 128,-1,16
 109 500 109 500 109 346 c 0,17,18
 109 202 109 202 164.5 122 c 128,-1,19
 220 42 220 42 335 42 c 0,20,21
 372 42 372 42 403.5 50 c 128,-1,22
 435 58 435 58 461 68 c 1,23,-1
 461 311 l 1,24,-1
 315 311 l 1,25,-1
 315 364 l 1,26,-1
 518 364 l 1,27,-1
 518 32 l 1,28,29
 479 12 479 12 430.5 1 c 128,-1,30
 382 -10 382 -10 332 -10 c 0,0,1
EndSplineSet
Substitution2: "'c2sc' Capitals to Small Capitals lookup 32 subtable" g.sc
Substitution2: "'aalt' Access All Alternates lookup 0 subtable" g.sc
EndChar

StartChar: H
Encoding: 72 72 43
Width: 600
GlyphClass: 2
Flags: W
AnchorPoint: "Anchor-4" 600 714 basechar 0
AnchorPoint: "Anchor-3" 300 714 basechar 0
AnchorPoint: "Anchor-1" 300 376 basechar 0
AnchorPoint: "Anchor-0" 300 0 basechar 0
LayerCount: 2
Fore
SplineSet
82 0 m 1,0,-1
 82 714 l 1,1,-1
 140 714 l 1,2,-1
 140 400 l 1,3,-1
 460 400 l 1,4,-1
 460 714 l 1,5,-1
 518 714 l 1,6,-1
 518 0 l 1,7,-1
 460 0 l 1,8,-1
 460 348 l 1,9,-1
 140 348 l 1,10,-1
 140 0 l 1,11,-1
 82 0 l 1,0,-1
EndSplineSet
Substitution2: "'c2sc' Capitals to Small Capitals lookup 32 subtable" h.sc
Substitution2: "'aalt' Access All Alternates lookup 0 subtable" h.sc
EndChar

StartChar: I
Encoding: 73 73 44
Width: 600
GlyphClass: 2
Flags: W
AnchorPoint: "Anchor-4" 580 714 basechar 0
AnchorPoint: "Anchor-3" 300 714 basechar 0
AnchorPoint: "Anchor-2" 352 10 basechar 0
AnchorPoint: "Anchor-0" 300 0 basechar 0
LayerCount: 2
Fore
SplineSet
135 0 m 1,0,-1
 135 41 l 1,1,-1
 270 49 l 1,2,-1
 270 664 l 1,3,-1
 135 673 l 1,4,-1
 135 714 l 1,5,-1
 465 714 l 1,6,-1
 465 673 l 1,7,-1
 328 664 l 1,8,-1
 328 49 l 1,9,-1
 465 41 l 1,10,-1
 465 0 l 1,11,-1
 135 0 l 1,0,-1
EndSplineSet
Substitution2: "'c2sc' Capitals to Small Capitals lookup 32 subtable" i.sc
Substitution2: "'aalt' Access All Alternates lookup 0 subtable" i.sc
EndChar

StartChar: J
Encoding: 74 74 45
Width: 600
GlyphClass: 2
Flags: W
AnchorPoint: "Anchor-4" 580 714 basechar 0
AnchorPoint: "Anchor-3" 414 714 basechar 0
AnchorPoint: "Anchor-0" 300 0 basechar 0
LayerCount: 2
Fore
SplineSet
254 -12 m 0,0,1
 214 -12 214 -12 176 -2.5 c 128,-1,2
 138 7 138 7 110 23 c 1,3,-1
 110 79 l 1,4,5
 136 66 136 66 172 53.5 c 128,-1,6
 208 41 208 41 250 41 c 0,7,8
 318 41 318 41 351 83.5 c 128,-1,9
 384 126 384 126 384 216 c 2,10,-1
 384 714 l 1,11,-1
 442 714 l 1,12,-1
 442 206 l 2,13,14
 442 102 442 102 397 45 c 128,-1,15
 352 -12 352 -12 254 -12 c 0,0,1
EndSplineSet
Substitution2: "'c2sc' Capitals to Small Capitals lookup 32 subtable" j.sc
Substitution2: "'aalt' Access All Alternates lookup 0 subtable" j.sc
EndChar

StartChar: K
Encoding: 75 75 46
Width: 600
GlyphClass: 2
Flags: W
AnchorPoint: "Anchor-4" 580 714 basechar 0
AnchorPoint: "Anchor-3" 300 714 basechar 0
AnchorPoint: "Anchor-0" 315 0 basechar 0
LayerCount: 2
Fore
SplineSet
82 0 m 1,0,-1
 82 714 l 1,1,-1
 140 714 l 1,2,-1
 140 326 l 1,3,4
 156 347 156 347 170.5 367 c 128,-1,5
 185 387 185 387 203 408 c 2,6,-1
 468 714 l 1,7,-1
 538 714 l 1,8,-1
 274 404 l 1,9,-1
 545 0 l 1,10,-1
 478 0 l 1,11,-1
 235 365 l 1,12,-1
 140 265 l 1,13,-1
 140 0 l 1,14,-1
 82 0 l 1,0,-1
EndSplineSet
Substitution2: "'c2sc' Capitals to Small Capitals lookup 32 subtable" k.sc
Substitution2: "'aalt' Access All Alternates lookup 0 subtable" k.sc
EndChar

StartChar: L
Encoding: 76 76 47
Width: 600
GlyphClass: 2
Flags: W
AnchorPoint: "Anchor-4" 434 714 basechar 0
AnchorPoint: "Anchor-3" 162 714 basechar 0
AnchorPoint: "Anchor-1" 300 357 basechar 0
AnchorPoint: "Anchor-0" 335 0 basechar 0
LayerCount: 2
Fore
SplineSet
132 0 m 1,0,-1
 132 714 l 1,1,-1
 190 714 l 1,2,-1
 190 54 l 1,3,-1
 512 54 l 1,4,-1
 512 0 l 1,5,-1
 132 0 l 1,0,-1
EndSplineSet
Substitution2: "'c2sc' Capitals to Small Capitals lookup 32 subtable" l.sc
Substitution2: "'aalt' Access All Alternates lookup 0 subtable" l.sc
EndChar

StartChar: M
Encoding: 77 77 48
Width: 600
GlyphClass: 2
Flags: W
AnchorPoint: "Anchor-4" 600 714 basechar 0
AnchorPoint: "Anchor-3" 304 714 basechar 0
AnchorPoint: "Anchor-0" 300 0 basechar 0
LayerCount: 2
Fore
SplineSet
55 0 m 1,0,-1
 55 714 l 1,1,-1
 138 714 l 1,2,-1
 298 265 l 1,3,-1
 301 265 l 1,4,-1
 461 714 l 1,5,-1
 545 714 l 1,6,-1
 545 0 l 1,7,-1
 490 0 l 1,8,-1
 490 485 l 2,9,10
 490 526 490 526 491 568.5 c 128,-1,11
 492 611 492 611 496 649 c 1,12,-1
 492 649 l 1,13,-1
 328 190 l 1,14,-1
 272 190 l 1,15,-1
 106 650 l 1,16,-1
 102 650 l 1,17,18
 106 611 106 611 108 568.5 c 128,-1,19
 110 526 110 526 110 487 c 2,20,-1
 110 0 l 1,21,-1
 55 0 l 1,0,-1
EndSplineSet
Substitution2: "'c2sc' Capitals to Small Capitals lookup 32 subtable" m.sc
Substitution2: "'aalt' Access All Alternates lookup 0 subtable" m.sc
EndChar

StartChar: N
Encoding: 78 78 49
Width: 600
GlyphClass: 2
Flags: W
AnchorPoint: "Anchor-4" 600 714 basechar 0
AnchorPoint: "Anchor-3" 305 714 basechar 0
AnchorPoint: "Anchor-0" 300 0 basechar 0
LayerCount: 2
Fore
SplineSet
82 0 m 1,0,-1
 82 714 l 1,1,-1
 156 714 l 1,2,-1
 464 86 l 1,3,-1
 466 86 l 1,4,5
 463 132 463 132 462 175.5 c 128,-1,6
 461 219 461 219 461 264 c 2,7,-1
 461 714 l 1,8,-1
 518 714 l 1,9,-1
 518 0 l 1,10,-1
 450 0 l 1,11,-1
 135 644 l 1,12,-1
 132 644 l 1,13,14
 135 599 135 599 137 556 c 128,-1,15
 139 513 139 513 139 464 c 2,16,-1
 139 0 l 1,17,-1
 82 0 l 1,0,-1
EndSplineSet
Substitution2: "'c2sc' Capitals to Small Capitals lookup 32 subtable" n.sc
Substitution2: "'aalt' Access All Alternates lookup 0 subtable" n.sc
EndChar

StartChar: O
Encoding: 79 79 50
Width: 600
GlyphClass: 2
Flags: W
AnchorPoint: "Anchor-4" 600 714 basechar 0
AnchorPoint: "Anchor-3" 300 714 basechar 0
AnchorPoint: "Anchor-2" 300 10 basechar 0
AnchorPoint: "Anchor-1" 300 357 basechar 0
AnchorPoint: "Anchor-0" 300 0 basechar 0
LayerCount: 2
Fore
SplineSet
300 -10 m 256,0,1
 212 -10 212 -10 157 38 c 128,-1,2
 102 86 102 86 76 169.5 c 128,-1,3
 50 253 50 253 50 358 c 0,4,5
 50 470 50 470 78 552.5 c 128,-1,6
 106 635 106 635 162 680 c 128,-1,7
 218 725 218 725 302 725 c 0,8,9
 387 725 387 725 442 679.5 c 128,-1,10
 497 634 497 634 523.5 552 c 128,-1,11
 550 470 550 470 550 360 c 0,12,13
 550 253 550 253 524 169.5 c 128,-1,14
 498 86 498 86 443 38 c 128,-1,15
 388 -10 388 -10 300 -10 c 256,0,1
302 42 m 0,16,17
 401 42 401 42 445.5 126.5 c 128,-1,18
 490 211 490 211 490 358 c 0,19,20
 490 508 490 508 445 590 c 128,-1,21
 400 672 400 672 302 672 c 0,22,23
 202 672 202 672 155.5 587 c 128,-1,24
 109 502 109 502 109 358 c 0,25,26
 109 212 109 212 155.5 127 c 128,-1,27
 202 42 202 42 302 42 c 0,16,17
EndSplineSet
Substitution2: "'c2sc' Capitals to Small Capitals lookup 32 subtable" o.sc
Substitution2: "Single Substitution lookup 30 subtable" ordmasculine
AlternateSubs2: "'aalt' Access All Alternates lookup 1 subtable" ordmasculine o.sc
EndChar

StartChar: P
Encoding: 80 80 51
Width: 600
GlyphClass: 2
Flags: W
AnchorPoint: "Anchor-4" 600 714 basechar 0
AnchorPoint: "Anchor-3" 300 714 basechar 0
AnchorPoint: "Anchor-0" 300 0 basechar 0
LayerCount: 2
Fore
SplineSet
105 0 m 1,0,-1
 105 714 l 1,1,-1
 296 714 l 2,2,3
 421 714 421 714 481.5 664 c 128,-1,4
 542 614 542 614 542 510 c 0,5,6
 542 409 542 409 479.5 349.5 c 128,-1,7
 417 290 417 290 283 290 c 2,8,-1
 163 290 l 1,9,-1
 163 0 l 1,10,-1
 105 0 l 1,0,-1
163 342 m 1,11,-1
 277 342 l 2,12,13
 374 342 374 342 428.5 378.5 c 128,-1,14
 483 415 483 415 483 508 c 0,15,16
 483 590 483 590 436 626 c 128,-1,17
 389 662 389 662 290 662 c 2,18,-1
 163 662 l 1,19,-1
 163 342 l 1,11,-1
EndSplineSet
Substitution2: "'c2sc' Capitals to Small Capitals lookup 32 subtable" p.sc
Substitution2: "'aalt' Access All Alternates lookup 0 subtable" p.sc
EndChar

StartChar: Q
Encoding: 81 81 52
Width: 600
GlyphClass: 2
Flags: W
AnchorPoint: "Anchor-4" 600 714 basechar 0
AnchorPoint: "Anchor-3" 300 714 basechar 0
AnchorPoint: "Anchor-2" 300 10 basechar 0
AnchorPoint: "Anchor-1" 300 357 basechar 0
AnchorPoint: "Anchor-0" 300 -215 basechar 0
LayerCount: 2
Fore
SplineSet
300 -10 m 0,0,1
 212 -10 212 -10 157 38 c 128,-1,2
 102 86 102 86 76 169.5 c 128,-1,3
 50 253 50 253 50 358 c 0,4,5
 50 470 50 470 78 552.5 c 128,-1,6
 106 635 106 635 162 680 c 128,-1,7
 218 725 218 725 302 725 c 0,8,9
 387 725 387 725 442 679.5 c 128,-1,10
 497 634 497 634 523.5 552 c 128,-1,11
 550 470 550 470 550 360 c 0,12,13
 550 239 550 239 517 148 c 128,-1,14
 484 57 484 57 412 17 c 1,15,-1
 519 -175 l 1,16,-1
 454 -175 l 1,17,-1
 361 -3 l 1,18,19
 332 -10 332 -10 300 -10 c 0,0,1
302 42 m 0,20,21
 401 42 401 42 445.5 126.5 c 128,-1,22
 490 211 490 211 490 358 c 0,23,24
 490 508 490 508 445 590 c 128,-1,25
 400 672 400 672 302 672 c 0,26,27
 202 672 202 672 155.5 587 c 128,-1,28
 109 502 109 502 109 358 c 0,29,30
 109 212 109 212 155.5 127 c 128,-1,31
 202 42 202 42 302 42 c 0,20,21
EndSplineSet
Substitution2: "'c2sc' Capitals to Small Capitals lookup 32 subtable" q.sc
Substitution2: "'aalt' Access All Alternates lookup 0 subtable" q.sc
EndChar

StartChar: R
Encoding: 82 82 53
Width: 600
GlyphClass: 2
Flags: W
AnchorPoint: "Anchor-4" 580 714 basechar 0
AnchorPoint: "Anchor-3" 300 714 basechar 0
AnchorPoint: "Anchor-0" 335 0 basechar 0
LayerCount: 2
Fore
SplineSet
105 0 m 1,0,-1
 105 714 l 1,1,-1
 269 714 l 2,2,3
 391 714 391 714 456.5 668.5 c 128,-1,4
 522 623 522 623 522 517 c 0,5,6
 522 432 522 432 482 387 c 128,-1,7
 442 342 442 342 374 322 c 1,8,-1
 567 0 l 1,9,-1
 502 0 l 1,10,-1
 320 306 l 1,11,-1
 163 306 l 1,12,-1
 163 0 l 1,13,-1
 105 0 l 1,0,-1
163 358 m 1,14,-1
 283 358 l 2,15,16
 368 358 368 358 415 396 c 128,-1,17
 462 434 462 434 462 514 c 0,18,19
 462 596 462 596 412 629 c 128,-1,20
 362 662 362 662 264 662 c 2,21,-1
 163 662 l 1,22,-1
 163 358 l 1,14,-1
EndSplineSet
Substitution2: "'c2sc' Capitals to Small Capitals lookup 32 subtable" r.sc
Substitution2: "'aalt' Access All Alternates lookup 0 subtable" r.sc
EndChar

StartChar: S
Encoding: 83 83 54
Width: 600
GlyphClass: 2
Flags: W
AnchorPoint: "Anchor-4" 580 714 basechar 0
AnchorPoint: "Anchor-3" 320 714 basechar 0
AnchorPoint: "Anchor-0" 300 0 basechar 0
LayerCount: 2
Fore
SplineSet
280 -10 m 0,0,1
 223 -10 223 -10 171.5 0 c 128,-1,2
 120 10 120 10 88 24 c 1,3,-1
 88 79 l 1,4,5
 126 63 126 63 177.5 52 c 128,-1,6
 229 41 229 41 280 41 c 0,7,8
 366 41 366 41 417 76.5 c 128,-1,9
 468 112 468 112 468 186 c 0,10,11
 468 228 468 228 449 253.5 c 128,-1,12
 430 279 430 279 389.5 298 c 128,-1,13
 349 317 349 317 286 342 c 0,14,15
 235 361 235 361 192.5 383.5 c 128,-1,16
 150 406 150 406 125 442 c 128,-1,17
 100 478 100 478 100 537 c 0,18,19
 100 631 100 631 163.5 677.5 c 128,-1,20
 227 724 227 724 329 724 c 0,21,22
 378 724 378 724 424 714 c 128,-1,23
 470 704 470 704 510 686 c 1,24,-1
 490 636 l 1,25,26
 450 654 450 654 408 663 c 128,-1,27
 366 672 366 672 328 672 c 0,28,29
 282 672 282 672 243.5 659 c 128,-1,30
 205 646 205 646 182 616 c 128,-1,31
 159 586 159 586 159 537 c 0,32,33
 159 494 159 494 178.5 468 c 128,-1,34
 198 442 198 442 235 424 c 128,-1,35
 272 406 272 406 324 386 c 0,36,37
 383 364 383 364 429 341 c 128,-1,38
 475 318 475 318 501 282.5 c 128,-1,39
 527 247 527 247 527 186 c 0,40,41
 527 90 527 90 461.5 40 c 128,-1,42
 396 -10 396 -10 280 -10 c 0,0,1
EndSplineSet
Substitution2: "'c2sc' Capitals to Small Capitals lookup 32 subtable" s.sc
Substitution2: "'aalt' Access All Alternates lookup 0 subtable" s.sc
EndChar

StartChar: T
Encoding: 84 84 55
Width: 600
GlyphClass: 2
Flags: W
AnchorPoint: "Anchor-4" 580 714 basechar 0
AnchorPoint: "Anchor-3" 300 714 basechar 0
AnchorPoint: "Anchor-1" 300 357 basechar 0
AnchorPoint: "Anchor-0" 300 0 basechar 0
LayerCount: 2
Fore
SplineSet
271 0 m 1,0,-1
 271 662 l 1,1,-1
 48 662 l 1,2,-1
 48 714 l 1,3,-1
 552 714 l 1,4,-1
 552 662 l 1,5,-1
 329 662 l 1,6,-1
 329 0 l 1,7,-1
 271 0 l 1,0,-1
EndSplineSet
Substitution2: "'c2sc' Capitals to Small Capitals lookup 32 subtable" t.sc
Substitution2: "'aalt' Access All Alternates lookup 0 subtable" t.sc
EndChar

StartChar: U
Encoding: 85 85 56
Width: 600
GlyphClass: 2
Flags: W
AnchorPoint: "Anchor-4" 580 714 basechar 0
AnchorPoint: "Anchor-3" 300 714 basechar 0
AnchorPoint: "Anchor-2" 540 10 basechar 0
AnchorPoint: "Anchor-0" 300 0 basechar 0
LayerCount: 2
Fore
SplineSet
297 -10 m 0,0,1
 183 -10 183 -10 132.5 60 c 128,-1,2
 82 130 82 130 82 254 c 2,3,-1
 82 714 l 1,4,-1
 140 714 l 1,5,-1
 140 258 l 2,6,7
 140 155 140 155 176 98.5 c 128,-1,8
 212 42 212 42 298 42 c 0,9,10
 386 42 386 42 423 99 c 128,-1,11
 460 156 460 156 460 259 c 2,12,-1
 460 714 l 1,13,-1
 518 714 l 1,14,-1
 518 252 l 2,15,16
 518 129 518 129 465 59.5 c 128,-1,17
 412 -10 412 -10 297 -10 c 0,0,1
EndSplineSet
Substitution2: "'c2sc' Capitals to Small Capitals lookup 32 subtable" u.sc
Substitution2: "'aalt' Access All Alternates lookup 0 subtable" u.sc
EndChar

StartChar: V
Encoding: 86 86 57
Width: 600
GlyphClass: 2
Flags: W
AnchorPoint: "Anchor-4" 580 714 basechar 0
AnchorPoint: "Anchor-3" 300 714 basechar 0
AnchorPoint: "Anchor-0" 300 0 basechar 0
LayerCount: 2
Fore
SplineSet
271 0 m 1,0,-1
 32 714 l 1,1,-1
 93 714 l 1,2,-1
 262 196 l 2,3,4
 274 157 274 157 283 123 c 128,-1,5
 292 89 292 89 300 60 c 1,6,-1
 302 60 l 1,7,8
 310 89 310 89 319 123.5 c 128,-1,9
 328 158 328 158 341 198 c 2,10,-1
 506 714 l 1,11,-1
 568 714 l 1,12,-1
 332 0 l 1,13,-1
 271 0 l 1,0,-1
EndSplineSet
Substitution2: "'c2sc' Capitals to Small Capitals lookup 32 subtable" v.sc
Substitution2: "'aalt' Access All Alternates lookup 0 subtable" v.sc
EndChar

StartChar: W
Encoding: 87 87 58
Width: 600
GlyphClass: 2
Flags: W
AnchorPoint: "Anchor-4" 580 714 basechar 0
AnchorPoint: "Anchor-3" 300 714 basechar 0
AnchorPoint: "Anchor-0" 300 0 basechar 0
LayerCount: 2
Fore
SplineSet
130 0 m 1,0,-1
 32 714 l 1,1,-1
 88 714 l 1,2,3
 102 604 102 604 116.5 494 c 128,-1,4
 131 384 131 384 146 275 c 0,5,6
 154 213 154 213 159 154 c 128,-1,7
 164 95 164 95 166 63 c 1,8,-1
 168 63 l 1,9,10
 173 96 173 96 182.5 137.5 c 128,-1,11
 192 179 192 179 202 228 c 2,12,-1
 272 532 l 1,13,-1
 329 532 l 1,14,-1
 399 229 l 2,15,16
 410 183 410 183 419 140.5 c 128,-1,17
 428 98 428 98 434 63 c 1,18,-1
 436 63 l 1,19,20
 440 98 440 98 444 156 c 128,-1,21
 448 214 448 214 455 279 c 0,22,23
 469 388 469 388 483.5 496.5 c 128,-1,24
 498 605 498 605 512 714 c 1,25,-1
 568 714 l 1,26,-1
 473 0 l 1,27,-1
 407 0 l 1,28,-1
 324 358 l 2,29,30
 315 398 315 398 310.5 424 c 128,-1,31
 306 450 306 450 302 472 c 1,32,-1
 300 472 l 1,33,34
 296 450 296 450 290.5 424 c 128,-1,35
 285 398 285 398 276 358 c 2,36,-1
 196 0 l 1,37,-1
 130 0 l 1,0,-1
EndSplineSet
Substitution2: "'c2sc' Capitals to Small Capitals lookup 32 subtable" w.sc
Substitution2: "'aalt' Access All Alternates lookup 0 subtable" w.sc
EndChar

StartChar: X
Encoding: 88 88 59
Width: 600
GlyphClass: 2
Flags: W
AnchorPoint: "Anchor-4" 580 714 basechar 0
AnchorPoint: "Anchor-3" 300 714 basechar 0
AnchorPoint: "Anchor-0" 300 0 basechar 0
LayerCount: 2
Fore
SplineSet
42 0 m 1,0,-1
 273 370 l 1,1,-1
 63 714 l 1,2,-1
 126 714 l 1,3,-1
 301 417 l 1,4,-1
 478 714 l 1,5,-1
 541 714 l 1,6,-1
 330 370 l 1,7,-1
 558 0 l 1,8,-1
 496 0 l 1,9,-1
 302 324 l 1,10,-1
 106 0 l 1,11,-1
 42 0 l 1,0,-1
EndSplineSet
Substitution2: "'c2sc' Capitals to Small Capitals lookup 32 subtable" x.sc
Substitution2: "'aalt' Access All Alternates lookup 0 subtable" x.sc
EndChar

StartChar: Y
Encoding: 89 89 60
Width: 600
GlyphClass: 2
Flags: W
AnchorPoint: "Anchor-4" 580 714 basechar 0
AnchorPoint: "Anchor-3" 300 714 basechar 0
AnchorPoint: "Anchor-0" 300 0 basechar 0
LayerCount: 2
Fore
SplineSet
273 0 m 1,0,-1
 273 274 l 1,1,-1
 42 714 l 1,2,-1
 106 714 l 1,3,-1
 302 324 l 1,4,-1
 495 714 l 1,5,-1
 558 714 l 1,6,-1
 329 274 l 1,7,-1
 329 0 l 1,8,-1
 273 0 l 1,0,-1
EndSplineSet
Substitution2: "'c2sc' Capitals to Small Capitals lookup 32 subtable" y.sc
Substitution2: "'aalt' Access All Alternates lookup 0 subtable" y.sc
EndChar

StartChar: Z
Encoding: 90 90 61
Width: 600
GlyphClass: 2
Flags: W
AnchorPoint: "Anchor-4" 580 714 basechar 0
AnchorPoint: "Anchor-3" 314 714 basechar 0
AnchorPoint: "Anchor-0" 316 0 basechar 0
LayerCount: 2
Fore
SplineSet
105 0 m 1,0,-1
 105 44 l 1,1,-1
 431 662 l 1,2,-1
 129 662 l 1,3,-1
 129 714 l 1,4,-1
 494 714 l 1,5,-1
 494 670 l 1,6,-1
 170 52 l 1,7,-1
 500 52 l 1,8,-1
 500 0 l 1,9,-1
 105 0 l 1,0,-1
EndSplineSet
Substitution2: "'c2sc' Capitals to Small Capitals lookup 32 subtable" z.sc
Substitution2: "'aalt' Access All Alternates lookup 0 subtable" z.sc
EndChar

StartChar: bracketleft
Encoding: 91 91 62
Width: 600
Flags: W
LayerCount: 2
Fore
SplineSet
239 -158 m 1,0,-1
 239 714 l 1,1,-1
 452 714 l 1,2,-1
 452 666 l 1,3,-1
 294 666 l 1,4,-1
 294 -109 l 1,5,-1
 452 -109 l 1,6,-1
 452 -158 l 1,7,-1
 239 -158 l 1,0,-1
EndSplineSet
Substitution2: "'smcp' Lowercase to Small Capitals lookup 33 subtable" bracketleft.sc
Substitution2: "'c2sc' Capitals to Small Capitals lookup 32 subtable" bracketleft.sc
Substitution2: "'aalt' Access All Alternates lookup 0 subtable" bracketleft.sc
EndChar

StartChar: asciicircum
Encoding: 94 94 65
Width: 600
Flags: W
LayerCount: 2
Fore
SplineSet
56 272 m 1,0,-1
 280 719 l 1,1,-1
 317 719 l 1,2,-1
 544 272 l 1,3,-1
 491 272 l 1,4,-1
 298 656 l 1,5,-1
 109 272 l 1,6,-1
 56 272 l 1,0,-1
EndSplineSet
EndChar

StartChar: underscore
Encoding: 95 95 66
Width: 600
Flags: W
LayerCount: 2
Fore
SplineSet
0 -132 m 1,0,-1
 0 -80 l 1,1,-1
 600 -80 l 1,2,-1
 600 -132 l 1,3,-1
 0 -132 l 1,0,-1
EndSplineSet
EndChar

StartChar: grave
Encoding: 96 96 67
Width: 600
Flags: W
LayerCount: 2
Fore
SplineSet
345 606 m 1,0,1
 320 626 320 626 292 653.5 c 128,-1,2
 264 681 264 681 239 709 c 128,-1,3
 214 737 214 737 200 758 c 1,4,-1
 200 766 l 1,5,-1
 268 766 l 1,6,7
 280 744 280 744 300.5 716 c 128,-1,8
 321 688 321 688 343.5 661 c 128,-1,9
 366 634 366 634 385 615 c 1,10,-1
 385 606 l 1,11,-1
 345 606 l 1,0,1
EndSplineSet
EndChar

StartChar: a
Encoding: 97 97 68
Width: 600
GlyphClass: 2
Flags: W
AnchorPoint: "Anchor-4" 580 532 basechar 0
AnchorPoint: "Anchor-3" 305 532 basechar 0
AnchorPoint: "Anchor-2" 540 10 basechar 0
AnchorPoint: "Anchor-0" 303 0 basechar 0
LayerCount: 2
Fore
SplineSet
250 -10 m 0,0,1
 170 -10 170 -10 125 28.5 c 128,-1,2
 80 67 80 67 80 138 c 0,3,4
 80 224 80 224 145.5 264 c 128,-1,5
 211 304 211 304 327 308 c 2,6,-1
 446 313 l 1,7,-1
 446 346 l 2,8,9
 446 427 446 427 408 459.5 c 128,-1,10
 370 492 370 492 300 492 c 0,11,12
 260 492 260 492 221 482.5 c 128,-1,13
 182 473 182 473 144 452 c 1,14,-1
 124 498 l 1,15,16
 162 518 162 518 206 530 c 128,-1,17
 250 542 250 542 302 542 c 0,18,19
 400 542 400 542 450 497 c 128,-1,20
 500 452 500 452 500 354 c 2,21,-1
 500 0 l 1,22,-1
 453 0 l 1,23,-1
 446 88 l 1,24,-1
 443 88 l 1,25,26
 415 44 415 44 367.5 17 c 128,-1,27
 320 -10 320 -10 250 -10 c 0,0,1
258 39 m 0,28,29
 343 39 343 39 394.5 86.5 c 128,-1,30
 446 134 446 134 446 217 c 2,31,-1
 446 268 l 1,32,-1
 339 264 l 2,33,34
 241 261 241 261 188.5 231 c 128,-1,35
 136 201 136 201 136 139 c 0,36,37
 136 90 136 90 168 64.5 c 128,-1,38
 200 39 200 39 258 39 c 0,28,29
EndSplineSet
Substitution2: "'smcp' Lowercase to Small Capitals lookup 33 subtable" a.sc
Substitution2: "Single Substitution lookup 30 subtable" ordfeminine
AlternateSubs2: "'aalt' Access All Alternates lookup 1 subtable" ordfeminine a.sc
EndChar

StartChar: b
Encoding: 98 98 69
Width: 600
GlyphClass: 2
Flags: W
AnchorPoint: "Anchor-4" 580 760 basechar 0
AnchorPoint: "Anchor-3" 300 760 basechar 0
AnchorPoint: "Anchor-0" 300 0 basechar 0
LayerCount: 2
Fore
SplineSet
319 -10 m 0,0,1
 253 -10 253 -10 211.5 18 c 128,-1,2
 170 46 170 46 150 86 c 1,3,-1
 146 86 l 1,4,-1
 140 0 l 1,5,-1
 92 0 l 1,6,-1
 92 760 l 1,7,-1
 149 760 l 1,8,-1
 149 550 l 2,9,10
 149 524 149 524 148.5 493 c 128,-1,11
 148 462 148 462 146 432 c 1,12,-1
 149 432 l 1,13,14
 168 477 168 477 212.5 509.5 c 128,-1,15
 257 542 257 542 327 542 c 0,16,17
 425 542 425 542 481.5 471.5 c 128,-1,18
 538 401 538 401 538 271 c 256,19,20
 538 141 538 141 482.5 65.5 c 128,-1,21
 427 -10 427 -10 319 -10 c 0,0,1
310 39 m 0,22,23
 394 39 394 39 436 98.5 c 128,-1,24
 478 158 478 158 478 270 c 0,25,26
 478 375 478 375 439 433.5 c 128,-1,27
 400 492 400 492 317 492 c 256,28,29
 234 492 234 492 191.5 433 c 128,-1,30
 149 374 149 374 149 264 c 0,31,32
 149 153 149 153 188.5 96 c 128,-1,33
 228 39 228 39 310 39 c 0,22,23
EndSplineSet
Substitution2: "'smcp' Lowercase to Small Capitals lookup 33 subtable" b.sc
Substitution2: "'aalt' Access All Alternates lookup 0 subtable" b.sc
EndChar

StartChar: c
Encoding: 99 99 70
Width: 600
GlyphClass: 2
Flags: W
AnchorPoint: "Anchor-4" 580 532 basechar 0
AnchorPoint: "Anchor-3" 329 532 basechar 0
AnchorPoint: "Anchor-0" 334 0 basechar 0
LayerCount: 2
Fore
SplineSet
344 -10 m 0,0,1
 217 -10 217 -10 152.5 61 c 128,-1,2
 88 132 88 132 88 260 c 0,3,4
 88 401 88 401 161.5 471.5 c 128,-1,5
 235 542 235 542 359 542 c 0,6,7
 400 542 400 542 435 534 c 128,-1,8
 470 526 470 526 502 511 c 1,9,-1
 486 462 l 1,10,11
 455 477 455 477 423.5 483.5 c 128,-1,12
 392 490 392 490 360 490 c 0,13,14
 255 490 255 490 201 430 c 128,-1,15
 147 370 147 370 147 262 c 0,16,17
 147 158 147 158 196 99.5 c 128,-1,18
 245 41 245 41 350 41 c 0,19,20
 390 41 390 41 429 49.5 c 128,-1,21
 468 58 468 58 498 70 c 1,22,-1
 498 18 l 1,23,24
 470 6 470 6 429 -2 c 128,-1,25
 388 -10 388 -10 344 -10 c 0,0,1
EndSplineSet
Substitution2: "'smcp' Lowercase to Small Capitals lookup 33 subtable" c.sc
Substitution2: "'aalt' Access All Alternates lookup 0 subtable" c.sc
EndChar

StartChar: d
Encoding: 100 100 71
Width: 600
GlyphClass: 2
Flags: W
AnchorPoint: "Anchor-4" 580 760 basechar 0
AnchorPoint: "Anchor-3" 300 760 basechar 0
AnchorPoint: "Anchor-1" 300 266 basechar 0
AnchorPoint: "Anchor-0" 300 0 basechar 0
LayerCount: 2
Fore
SplineSet
278 -10 m 0,0,1
 175 -10 175 -10 118.5 59 c 128,-1,2
 62 128 62 128 62 262 c 0,3,4
 62 398 62 398 119 470 c 128,-1,5
 176 542 176 542 286 542 c 0,6,7
 354 542 354 542 393 511.5 c 128,-1,8
 432 481 432 481 450 438 c 1,9,-1
 454 438 l 1,10,11
 452 462 452 462 451 491 c 128,-1,12
 450 520 450 520 450 545 c 2,13,-1
 450 760 l 1,14,-1
 508 760 l 1,15,-1
 508 0 l 1,16,-1
 460 0 l 1,17,-1
 454 92 l 1,18,-1
 450 92 l 1,19,20
 429 48 429 48 388.5 19 c 128,-1,21
 348 -10 348 -10 278 -10 c 0,0,1
287 39 m 0,22,23
 373 39 373 39 411.5 96.5 c 128,-1,24
 450 154 450 154 450 255 c 2,25,-1
 450 266 l 2,26,27
 450 370 450 370 413 431 c 128,-1,28
 376 492 376 492 292 492 c 0,29,30
 211 492 211 492 166.5 434 c 128,-1,31
 122 376 122 376 122 258 c 0,32,33
 122 39 122 39 287 39 c 0,22,23
EndSplineSet
Substitution2: "'smcp' Lowercase to Small Capitals lookup 33 subtable" d.sc
Substitution2: "'aalt' Access All Alternates lookup 0 subtable" d.sc
EndChar

StartChar: e
Encoding: 101 101 72
Width: 600
GlyphClass: 2
Flags: W
AnchorPoint: "Anchor-4" 580 532 basechar 0
AnchorPoint: "Anchor-3" 304 532 basechar 0
AnchorPoint: "Anchor-2" 310 10 basechar 0
AnchorPoint: "Anchor-0" 310 0 basechar 0
LayerCount: 2
Fore
SplineSet
336 -10 m 0,0,1
 201 -10 201 -10 134.5 63.5 c 128,-1,2
 68 137 68 137 68 260 c 0,3,4
 68 343 68 343 96.5 406.5 c 128,-1,5
 125 470 125 470 180.5 506 c 128,-1,6
 236 542 236 542 316 542 c 0,7,8
 388 542 388 542 436 510.5 c 128,-1,9
 484 479 484 479 508 422.5 c 128,-1,10
 532 366 532 366 532 292 c 2,11,-1
 532 258 l 1,12,-1
 126 258 l 1,13,14
 129 39 129 39 340 39 c 0,15,16
 386 39 386 39 428 49.5 c 128,-1,17
 470 60 470 60 513 79 c 1,18,-1
 513 26 l 1,19,20
 470 7 470 7 424.5 -1.5 c 128,-1,21
 379 -10 379 -10 336 -10 c 0,0,1
128 307 m 1,22,-1
 474 307 l 1,23,24
 472 392 472 392 433 442 c 128,-1,25
 394 492 394 492 316 492 c 256,26,27
 238 492 238 492 188 444 c 128,-1,28
 138 396 138 396 128 307 c 1,22,-1
EndSplineSet
Substitution2: "'smcp' Lowercase to Small Capitals lookup 33 subtable" e.sc
Substitution2: "'aalt' Access All Alternates lookup 0 subtable" e.sc
EndChar

StartChar: f
Encoding: 102 102 73
Width: 600
GlyphClass: 2
Flags: W
AnchorPoint: "Anchor-4" 580 765 basechar 0
AnchorPoint: "Anchor-3" 413 765 basechar 0
AnchorPoint: "Anchor-0" 300 0 basechar 0
LayerCount: 2
Fore
SplineSet
257 0 m 1,0,-1
 257 482 l 1,1,-1
 80 482 l 1,2,-1
 80 524 l 1,3,-1
 257 532 l 1,4,-1
 257 600 l 2,5,6
 257 687 257 687 304.5 726 c 128,-1,7
 352 765 352 765 440 765 c 0,8,9
 475 765 475 765 509 760 c 128,-1,10
 543 755 543 755 565 748 c 1,11,-1
 553 702 l 1,12,13
 533 708 533 708 502.5 712 c 128,-1,14
 472 716 472 716 443 716 c 0,15,16
 379 716 379 716 347 689 c 128,-1,17
 315 662 315 662 315 588 c 2,18,-1
 315 532 l 1,19,-1
 530 532 l 1,20,-1
 530 482 l 1,21,-1
 315 482 l 1,22,-1
 315 0 l 1,23,-1
 257 0 l 1,0,-1
EndSplineSet
Substitution2: "'smcp' Lowercase to Small Capitals lookup 33 subtable" f.sc
Substitution2: "'aalt' Access All Alternates lookup 0 subtable" f.sc
EndChar

StartChar: g
Encoding: 103 103 74
Width: 600
GlyphClass: 2
Flags: W
AnchorPoint: "Anchor-4" 580 532 basechar 0
AnchorPoint: "Anchor-3" 300 532 basechar 0
AnchorPoint: "Anchor-0" 300 -246 basechar 0
LayerCount: 2
Fore
SplineSet
275 -246 m 0,0,1
 220 -246 220 -246 174 -235 c 128,-1,2
 128 -224 128 -224 90 -208 c 1,3,-1
 90 -154 l 1,4,5
 128 -174 128 -174 176.5 -186 c 128,-1,6
 225 -198 225 -198 274 -198 c 0,7,8
 373 -198 373 -198 412.5 -150.5 c 128,-1,9
 452 -103 452 -103 452 -23 c 2,10,-1
 452 11 l 2,11,12
 452 32 452 32 452.5 49.5 c 128,-1,13
 453 67 453 67 455 93 c 1,14,-1
 452 93 l 1,15,16
 406 -10 406 -10 280 -10 c 0,17,18
 176 -10 176 -10 119 60 c 128,-1,19
 62 130 62 130 62 261 c 256,20,21
 62 392 62 392 119.5 467 c 128,-1,22
 177 542 177 542 283 542 c 0,23,24
 347 542 347 542 385 518 c 128,-1,25
 423 494 423 494 448 451 c 1,26,-1
 452 451 l 1,27,-1
 460 532 l 1,28,-1
 508 532 l 1,29,-1
 508 -26 l 2,30,31
 508 -131 508 -131 453.5 -188.5 c 128,-1,32
 399 -246 399 -246 275 -246 c 0,0,1
290 39 m 0,33,34
 350 39 350 39 386 66 c 128,-1,35
 422 93 422 93 438 140 c 128,-1,36
 454 187 454 187 454 246 c 2,37,-1
 454 280 l 2,38,39
 454 380 454 380 416 436 c 128,-1,40
 378 492 378 492 292 492 c 0,41,42
 204 492 204 492 163 431.5 c 128,-1,43
 122 371 122 371 122 263 c 0,44,45
 122 153 122 153 163.5 96 c 128,-1,46
 205 39 205 39 290 39 c 0,33,34
EndSplineSet
Substitution2: "'smcp' Lowercase to Small Capitals lookup 33 subtable" g.sc
Substitution2: "'aalt' Access All Alternates lookup 0 subtable" g.sc
EndChar

StartChar: h
Encoding: 104 104 75
Width: 600
GlyphClass: 2
Flags: W
AnchorPoint: "Anchor-4" 580 760 basechar 0
AnchorPoint: "Anchor-3" 121 760 basechar 0
AnchorPoint: "Anchor-1" 300 266 basechar 0
AnchorPoint: "Anchor-0" 300 0 basechar 0
LayerCount: 2
Fore
SplineSet
92 0 m 1,0,-1
 92 760 l 1,1,-1
 150 760 l 1,2,-1
 150 520 l 2,3,4
 150 499 150 499 149 475 c 128,-1,5
 148 451 148 451 148 431 c 1,6,-1
 151 431 l 1,7,8
 171 480 171 480 216 511 c 128,-1,9
 261 542 261 542 330 542 c 0,10,11
 413 542 413 542 462.5 495.5 c 128,-1,12
 512 449 512 449 512 350 c 2,13,-1
 512 0 l 1,14,-1
 454 0 l 1,15,-1
 454 338 l 2,16,17
 454 419 454 419 418 455.5 c 128,-1,18
 382 492 382 492 318 492 c 0,19,20
 242 492 242 492 196 441 c 128,-1,21
 150 390 150 390 150 290 c 2,22,-1
 150 0 l 1,23,-1
 92 0 l 1,0,-1
EndSplineSet
Substitution2: "'smcp' Lowercase to Small Capitals lookup 33 subtable" h.sc
Substitution2: "'subs' Subscript lookup 20 subtable" uni2095
AlternateSubs2: "'aalt' Access All Alternates lookup 1 subtable" h.sc uni2095
EndChar

StartChar: i
Encoding: 105 105 76
Width: 600
GlyphClass: 2
Flags: W
AnchorPoint: "Anchor-4" 494 747 basechar 0
AnchorPoint: "Anchor-3" 310 747 basechar 0
AnchorPoint: "Anchor-0" 321 0 basechar 0
LayerCount: 2
Fore
SplineSet
312 646 m 256,0,1
 290 646 290 646 277 660 c 128,-1,2
 264 674 264 674 264 696 c 0,3,4
 264 720 264 720 277 733.5 c 128,-1,5
 290 747 290 747 312 747 c 0,6,7
 358 747 358 747 358 696 c 0,8,9
 358 674 358 674 346 660 c 128,-1,10
 334 646 334 646 312 646 c 256,0,1
90 0 m 1,11,-1
 90 40 l 1,12,-1
 289 50 l 1,13,-1
 289 482 l 1,14,-1
 107 490 l 1,15,-1
 107 532 l 1,16,-1
 347 532 l 1,17,-1
 347 50 l 1,18,-1
 535 40 l 1,19,-1
 535 0 l 1,20,-1
 90 0 l 1,11,-1
EndSplineSet
Substitution2: "'smcp' Lowercase to Small Capitals lookup 33 subtable" i.sc
Substitution2: "Single Substitution lookup 5 subtable" dotlessi
Substitution2: "Single Substitution lookup 4 subtable" dotlessi
AlternateSubs2: "'aalt' Access All Alternates lookup 1 subtable" dotlessi i.sc
EndChar

StartChar: j
Encoding: 106 106 77
Width: 600
GlyphClass: 2
Flags: W
AnchorPoint: "Anchor-4" 580 747 basechar 0
AnchorPoint: "Anchor-3" 340 747 basechar 0
AnchorPoint: "Anchor-0" 240 -246 basechar 0
LayerCount: 2
Fore
SplineSet
341 646 m 0,0,1
 318 646 318 646 306 660 c 128,-1,2
 294 674 294 674 294 697 c 256,3,4
 294 720 294 720 306 733.5 c 128,-1,5
 318 747 318 747 341 747 c 0,6,7
 363 747 363 747 375.5 733.5 c 128,-1,8
 388 720 388 720 388 697 c 256,9,10
 388 674 388 674 375.5 660 c 128,-1,11
 363 646 363 646 341 646 c 0,0,1
196 -246 m 0,12,13
 162 -246 162 -246 125.5 -240 c 128,-1,14
 89 -234 89 -234 70 -228 c 1,15,-1
 70 -175 l 1,16,17
 91 -183 91 -183 126.5 -189.5 c 128,-1,18
 162 -196 162 -196 192 -196 c 0,19,20
 258 -196 258 -196 288 -161 c 128,-1,21
 318 -126 318 -126 318 -59 c 2,22,-1
 318 482 l 1,23,-1
 136 490 l 1,24,-1
 136 532 l 1,25,-1
 376 532 l 1,26,-1
 376 -70 l 2,27,28
 376 -157 376 -157 328 -201.5 c 128,-1,29
 280 -246 280 -246 196 -246 c 0,12,13
EndSplineSet
Substitution2: "'smcp' Lowercase to Small Capitals lookup 33 subtable" j.sc
Substitution2: "Single Substitution lookup 5 subtable" uni0237
Substitution2: "Single Substitution lookup 4 subtable" uni0237
AlternateSubs2: "'aalt' Access All Alternates lookup 1 subtable" uni0237 j.sc
EndChar

StartChar: k
Encoding: 107 107 78
Width: 600
GlyphClass: 2
Flags: W
AnchorPoint: "Anchor-4" 580 760 basechar 0
AnchorPoint: "Anchor-3" 340 760 basechar 0
AnchorPoint: "Anchor-0" 336 0 basechar 0
LayerCount: 2
Fore
SplineSet
123 0 m 1,0,-1
 123 760 l 1,1,-1
 180 760 l 1,2,-1
 180 390 l 2,3,4
 180 350 180 350 179 307 c 128,-1,5
 178 264 178 264 176 222 c 1,6,-1
 178 222 l 1,7,8
 196 242 196 242 213 261 c 128,-1,9
 230 280 230 280 249 300 c 2,10,-1
 470 532 l 1,11,-1
 540 532 l 1,12,-1
 330 310 l 1,13,-1
 558 0 l 1,14,-1
 490 0 l 1,15,-1
 292 274 l 1,16,-1
 180 168 l 1,17,-1
 180 0 l 1,18,-1
 123 0 l 1,0,-1
EndSplineSet
Substitution2: "'smcp' Lowercase to Small Capitals lookup 33 subtable" k.sc
Substitution2: "'subs' Subscript lookup 20 subtable" uni2096
AlternateSubs2: "'aalt' Access All Alternates lookup 1 subtable" k.sc uni2096
EndChar

StartChar: l
Encoding: 108 108 79
Width: 600
GlyphClass: 2
Flags: W
AnchorPoint: "Anchor-4" 490 760 basechar 0
AnchorPoint: "Anchor-3" 300 760 basechar 0
AnchorPoint: "Anchor-1" 318 383 basechar 0
AnchorPoint: "Anchor-0" 318 0 basechar 0
LayerCount: 2
Fore
SplineSet
90 0 m 1,0,-1
 90 40 l 1,1,-1
 288 50 l 1,2,-1
 288 710 l 1,3,-1
 104 718 l 1,4,-1
 104 760 l 1,5,-1
 346 760 l 1,6,-1
 346 50 l 1,7,-1
 535 40 l 1,8,-1
 535 0 l 1,9,-1
 90 0 l 1,0,-1
EndSplineSet
Substitution2: "'smcp' Lowercase to Small Capitals lookup 33 subtable" l.sc
Substitution2: "'subs' Subscript lookup 20 subtable" uni2097
AlternateSubs2: "'aalt' Access All Alternates lookup 1 subtable" l.sc uni2097
EndChar

StartChar: m
Encoding: 109 109 80
Width: 600
GlyphClass: 2
Flags: W
AnchorPoint: "Anchor-4" 580 532 basechar 0
AnchorPoint: "Anchor-3" 318 532 basechar 0
AnchorPoint: "Anchor-0" 304 0 basechar 0
LayerCount: 2
Fore
SplineSet
60 0 m 1,0,-1
 60 532 l 1,1,-1
 100 532 l 1,2,-1
 108 454 l 1,3,-1
 112 454 l 1,4,5
 127 491 127 491 150.5 516.5 c 128,-1,6
 174 542 174 542 218 542 c 0,7,8
 264 542 264 542 286.5 516 c 128,-1,9
 309 490 309 490 318 450 c 1,10,-1
 320 450 l 1,11,12
 336 490 336 490 362 516 c 128,-1,13
 388 542 388 542 434 542 c 0,14,15
 490 542 490 542 516.5 499 c 128,-1,16
 543 456 543 456 543 366 c 2,17,-1
 543 0 l 1,18,-1
 490 0 l 1,19,-1
 490 354 l 2,20,21
 490 424 490 424 474 457 c 128,-1,22
 458 490 458 490 421 490 c 0,23,24
 378 490 378 490 353.5 441 c 128,-1,25
 329 392 329 392 329 304 c 2,26,-1
 329 0 l 1,27,-1
 276 0 l 1,28,-1
 276 345 l 2,29,30
 276 424 276 424 257.5 457 c 128,-1,31
 239 490 239 490 204 490 c 0,32,33
 170 490 170 490 150.5 463 c 128,-1,34
 131 436 131 436 122 392.5 c 128,-1,35
 113 349 113 349 113 298 c 2,36,-1
 113 0 l 1,37,-1
 60 0 l 1,0,-1
EndSplineSet
Substitution2: "'smcp' Lowercase to Small Capitals lookup 33 subtable" m.sc
Substitution2: "'subs' Subscript lookup 20 subtable" uni2098
AlternateSubs2: "'aalt' Access All Alternates lookup 1 subtable" m.sc uni2098
EndChar

StartChar: n
Encoding: 110 110 81
Width: 600
GlyphClass: 2
Flags: W
AnchorPoint: "Anchor-4" 580 532 basechar 0
AnchorPoint: "Anchor-3" 310 532 basechar 0
AnchorPoint: "Anchor-0" 308 0 basechar 0
LayerCount: 2
Fore
SplineSet
92 0 m 1,0,-1
 92 532 l 1,1,-1
 140 532 l 1,2,-1
 148 437 l 1,3,-1
 151 437 l 1,4,5
 171 483 171 483 215.5 512.5 c 128,-1,6
 260 542 260 542 332 542 c 0,7,8
 414 542 414 542 463 496 c 128,-1,9
 512 450 512 450 512 356 c 2,10,-1
 512 0 l 1,11,-1
 454 0 l 1,12,-1
 454 344 l 2,13,14
 454 421 454 421 420 456.5 c 128,-1,15
 386 492 386 492 319 492 c 0,16,17
 150 492 150 492 150 288 c 2,18,-1
 150 0 l 1,19,-1
 92 0 l 1,0,-1
EndSplineSet
Substitution2: "'smcp' Lowercase to Small Capitals lookup 33 subtable" n.sc
Substitution2: "'sups' Superscript lookup 21 subtable" nsuperior
Substitution2: "'subs' Subscript lookup 20 subtable" uni2099
AlternateSubs2: "'aalt' Access All Alternates lookup 1 subtable" nsuperior n.sc uni2099
EndChar

StartChar: o
Encoding: 111 111 82
Width: 600
GlyphClass: 2
Flags: W
AnchorPoint: "Anchor-4" 580 532 basechar 0
AnchorPoint: "Anchor-3" 300 532 basechar 0
AnchorPoint: "Anchor-2" 300 10 basechar 0
AnchorPoint: "Anchor-1" 300 266 basechar 0
AnchorPoint: "Anchor-0" 300 0 basechar 0
LayerCount: 2
Fore
SplineSet
300 -10 m 0,0,1
 190 -10 190 -10 126 63.5 c 128,-1,2
 62 137 62 137 62 267 c 0,3,4
 62 400 62 400 127.5 471 c 128,-1,5
 193 542 193 542 302 542 c 0,6,7
 414 542 414 542 476 468 c 128,-1,8
 538 394 538 394 538 267 c 0,9,10
 538 138 538 138 475 64 c 128,-1,11
 412 -10 412 -10 300 -10 c 0,0,1
300 39 m 0,12,13
 392 39 392 39 435 101.5 c 128,-1,14
 478 164 478 164 478 267 c 0,15,16
 478 333 478 333 460 383.5 c 128,-1,17
 442 434 442 434 403 463 c 128,-1,18
 364 492 364 492 302 492 c 0,19,20
 214 492 214 492 167 432 c 128,-1,21
 120 372 120 372 120 266 c 0,22,23
 120 163 120 163 165 101 c 128,-1,24
 210 39 210 39 300 39 c 0,12,13
EndSplineSet
Substitution2: "'smcp' Lowercase to Small Capitals lookup 33 subtable" o.sc
Substitution2: "Single Substitution lookup 30 subtable" ordmasculine
AlternateSubs2: "'aalt' Access All Alternates lookup 1 subtable" ordmasculine o.sc
EndChar

StartChar: p
Encoding: 112 112 83
Width: 600
GlyphClass: 2
Flags: W
AnchorPoint: "Anchor-4" 580 532 basechar 0
AnchorPoint: "Anchor-3" 315 532 basechar 0
AnchorPoint: "Anchor-0" 315 -240 basechar 0
LayerCount: 2
Fore
SplineSet
92 -240 m 1,0,-1
 92 532 l 1,1,-1
 140 532 l 1,2,-1
 146 431 l 1,3,-1
 150 431 l 1,4,5
 170 477 170 477 213 509.5 c 128,-1,6
 256 542 256 542 328 542 c 0,7,8
 427 542 427 542 482.5 472.5 c 128,-1,9
 538 403 538 403 538 270 c 0,10,11
 538 134 538 134 480.5 62 c 128,-1,12
 423 -10 423 -10 323 -10 c 0,13,14
 254 -10 254 -10 212 21 c 128,-1,15
 170 52 170 52 150 94 c 1,16,-1
 146 94 l 1,17,18
 148 68 148 68 149 40 c 128,-1,19
 150 12 150 12 150 -13 c 2,20,-1
 150 -240 l 1,21,-1
 92 -240 l 1,0,-1
314 39 m 0,22,23
 478 39 478 39 478 272 c 0,24,25
 478 384 478 384 439 438 c 128,-1,26
 400 492 400 492 318 492 c 0,27,28
 235 492 235 492 192.5 436 c 128,-1,29
 150 380 150 380 150 277 c 2,30,-1
 150 266 l 2,31,32
 150 154 150 154 191 96.5 c 128,-1,33
 232 39 232 39 314 39 c 0,22,23
EndSplineSet
Substitution2: "'smcp' Lowercase to Small Capitals lookup 33 subtable" p.sc
Substitution2: "'subs' Subscript lookup 20 subtable" uni209A
AlternateSubs2: "'aalt' Access All Alternates lookup 1 subtable" p.sc uni209A
EndChar

StartChar: q
Encoding: 113 113 84
Width: 600
GlyphClass: 2
Flags: W
AnchorPoint: "Anchor-4" 580 532 basechar 0
AnchorPoint: "Anchor-3" 285 532 basechar 0
AnchorPoint: "Anchor-0" 285 -240 basechar 0
LayerCount: 2
Fore
SplineSet
450 -240 m 1,0,-1
 450 -4 l 2,1,2
 450 18 450 18 451 47 c 128,-1,3
 452 76 452 76 452 98 c 1,4,-1
 450 98 l 1,5,6
 429 52 429 52 387 21 c 128,-1,7
 345 -10 345 -10 276 -10 c 0,8,9
 176 -10 176 -10 119 60 c 128,-1,10
 62 130 62 130 62 260 c 256,11,12
 62 390 62 390 119 466 c 128,-1,13
 176 542 176 542 280 542 c 0,14,15
 348 542 348 542 388.5 512.5 c 128,-1,16
 429 483 429 483 449 443 c 1,17,-1
 452 443 l 1,18,-1
 460 532 l 1,19,-1
 508 532 l 1,20,-1
 508 -240 l 1,21,-1
 450 -240 l 1,0,-1
284 39 m 256,22,23
 366 39 366 39 408 95 c 128,-1,24
 450 151 450 151 450 256 c 2,25,-1
 450 271 l 2,26,27
 450 378 450 378 411 435 c 128,-1,28
 372 492 372 492 287 492 c 0,29,30
 204 492 204 492 163 432.5 c 128,-1,31
 122 373 122 373 122 261 c 0,32,33
 122 155 122 155 162 97 c 128,-1,34
 202 39 202 39 284 39 c 256,22,23
EndSplineSet
Substitution2: "'smcp' Lowercase to Small Capitals lookup 33 subtable" q.sc
Substitution2: "'aalt' Access All Alternates lookup 0 subtable" q.sc
EndChar

StartChar: r
Encoding: 114 114 85
Width: 600
GlyphClass: 2
Flags: W
AnchorPoint: "Anchor-4" 580 532 basechar 0
AnchorPoint: "Anchor-3" 343 532 basechar 0
AnchorPoint: "Anchor-0" 278 0 basechar 0
LayerCount: 2
Fore
SplineSet
81 0 m 1,0,-1
 81 40 l 1,1,-1
 250 50 l 1,2,-1
 250 482 l 1,3,-1
 98 490 l 1,4,-1
 98 532 l 1,5,-1
 298 532 l 1,6,-1
 304 422 l 1,7,-1
 308 422 l 1,8,9
 328 476 328 476 367 508.5 c 128,-1,10
 406 541 406 541 468 541 c 0,11,12
 498 541 498 541 524 536.5 c 128,-1,13
 550 532 550 532 570 524 c 1,14,-1
 554 471 l 1,15,16
 537 478 537 478 514.5 483 c 128,-1,17
 492 488 492 488 468 488 c 0,18,19
 418 488 418 488 382 460 c 128,-1,20
 346 432 346 432 327 383 c 128,-1,21
 308 334 308 334 308 271 c 2,22,-1
 308 50 l 1,23,-1
 486 40 l 1,24,-1
 486 0 l 1,25,-1
 81 0 l 1,0,-1
EndSplineSet
Substitution2: "'smcp' Lowercase to Small Capitals lookup 33 subtable" r.sc
Substitution2: "'aalt' Access All Alternates lookup 0 subtable" r.sc
EndChar

StartChar: s
Encoding: 115 115 86
Width: 600
GlyphClass: 2
Flags: W
AnchorPoint: "Anchor-4" 580 532 basechar 0
AnchorPoint: "Anchor-3" 302 532 basechar 0
AnchorPoint: "Anchor-0" 302 0 basechar 0
LayerCount: 2
Fore
SplineSet
284 -10 m 0,0,1
 234 -10 234 -10 189 0 c 128,-1,2
 144 10 144 10 112 24 c 1,3,-1
 112 80 l 1,4,5
 150 63 150 63 192.5 51 c 128,-1,6
 235 39 235 39 287 39 c 0,7,8
 364 39 364 39 396.5 65 c 128,-1,9
 429 91 429 91 429 137 c 0,10,11
 429 168 429 168 414 187 c 128,-1,12
 399 206 399 206 368 220 c 128,-1,13
 337 234 337 234 290 252 c 256,14,15
 243 270 243 270 206 287 c 128,-1,16
 169 304 169 304 147.5 331 c 128,-1,17
 126 358 126 358 126 404 c 0,18,19
 126 472 126 472 176 507 c 128,-1,20
 226 542 226 542 318 542 c 0,21,22
 362 542 362 542 401 533.5 c 128,-1,23
 440 525 440 525 477 510 c 1,24,-1
 458 462 l 1,25,26
 424 478 424 478 389 485 c 128,-1,27
 354 492 354 492 318 492 c 0,28,29
 182 492 182 492 182 405 c 0,30,31
 182 374 182 374 197.5 356 c 128,-1,32
 213 338 213 338 243.5 325 c 128,-1,33
 274 312 274 312 319 296 c 0,34,35
 370 277 370 277 408 259 c 128,-1,36
 446 241 446 241 467 213.5 c 128,-1,37
 488 186 488 186 488 140 c 0,38,39
 488 68 488 68 437.5 29 c 128,-1,40
 387 -10 387 -10 284 -10 c 0,0,1
EndSplineSet
Substitution2: "'smcp' Lowercase to Small Capitals lookup 33 subtable" s.sc
Substitution2: "'subs' Subscript lookup 20 subtable" uni209B
AlternateSubs2: "'aalt' Access All Alternates lookup 1 subtable" s.sc uni209B
EndChar

StartChar: t
Encoding: 116 116 87
Width: 600
GlyphClass: 2
Flags: W
AnchorPoint: "Anchor-4" 580 669 basechar 0
AnchorPoint: "Anchor-3" 262 669 basechar 0
AnchorPoint: "Anchor-1" 260 266 basechar 0
AnchorPoint: "Anchor-0" 380 0 basechar 0
LayerCount: 2
Fore
SplineSet
406 -10 m 0,0,1
 319 -10 319 -10 273.5 33.5 c 128,-1,2
 228 77 228 77 228 172 c 2,3,-1
 228 482 l 1,4,-1
 70 482 l 1,5,-1
 70 524 l 1,6,-1
 228 534 l 1,7,-1
 240 669 l 1,8,-1
 286 669 l 1,9,-1
 286 532 l 1,10,-1
 500 532 l 1,11,-1
 500 482 l 1,12,-1
 286 482 l 1,13,-1
 286 182 l 2,14,15
 286 111 286 111 313 75 c 128,-1,16
 340 39 340 39 410 39 c 0,17,18
 436 39 436 39 460 43 c 128,-1,19
 484 47 484 47 503 53 c 1,20,-1
 503 4 l 1,21,22
 483 -1 483 -1 459.5 -5.5 c 128,-1,23
 436 -10 436 -10 406 -10 c 0,0,1
EndSplineSet
Substitution2: "'smcp' Lowercase to Small Capitals lookup 33 subtable" t.sc
Substitution2: "'subs' Subscript lookup 20 subtable" uni209C
AlternateSubs2: "'aalt' Access All Alternates lookup 1 subtable" t.sc uni209C
EndChar

StartChar: u
Encoding: 117 117 88
Width: 600
GlyphClass: 2
Flags: W
AnchorPoint: "Anchor-4" 580 532 basechar 0
AnchorPoint: "Anchor-3" 300 532 basechar 0
AnchorPoint: "Anchor-2" 540 10 basechar 0
AnchorPoint: "Anchor-0" 300 0 basechar 0
LayerCount: 2
Fore
SplineSet
271 -10 m 0,0,1
 88 -10 88 -10 88 186 c 2,2,-1
 88 532 l 1,3,-1
 146 532 l 1,4,-1
 146 196 l 2,5,6
 146 116 146 116 179 77.5 c 128,-1,7
 212 39 212 39 282 39 c 0,8,9
 450 39 450 39 450 243 c 2,10,-1
 450 532 l 1,11,-1
 508 532 l 1,12,-1
 508 0 l 1,13,-1
 460 0 l 1,14,-1
 452 92 l 1,15,-1
 449 92 l 1,16,17
 426 47 426 47 383 18.5 c 128,-1,18
 340 -10 340 -10 271 -10 c 0,0,1
EndSplineSet
Substitution2: "'smcp' Lowercase to Small Capitals lookup 33 subtable" u.sc
Substitution2: "'aalt' Access All Alternates lookup 0 subtable" u.sc
EndChar

StartChar: v
Encoding: 118 118 89
Width: 600
GlyphClass: 2
Flags: W
AnchorPoint: "Anchor-4" 580 532 basechar 0
AnchorPoint: "Anchor-3" 300 532 basechar 0
AnchorPoint: "Anchor-0" 300 0 basechar 0
LayerCount: 2
Fore
SplineSet
266 0 m 1,0,-1
 65 532 l 1,1,-1
 125 532 l 1,2,-1
 255 178 l 2,3,4
 266 146 266 146 277 116.5 c 128,-1,5
 288 87 288 87 298 55 c 1,6,-1
 301 55 l 1,7,8
 312 87 312 87 323 116.5 c 128,-1,9
 334 146 334 146 344 178 c 2,10,-1
 474 532 l 1,11,-1
 534 532 l 1,12,-1
 332 0 l 1,13,-1
 266 0 l 1,0,-1
EndSplineSet
Substitution2: "'smcp' Lowercase to Small Capitals lookup 33 subtable" v.sc
Substitution2: "'aalt' Access All Alternates lookup 0 subtable" v.sc
EndChar

StartChar: w
Encoding: 119 119 90
Width: 600
GlyphClass: 2
Flags: W
AnchorPoint: "Anchor-4" 580 532 basechar 0
AnchorPoint: "Anchor-3" 304 532 basechar 0
AnchorPoint: "Anchor-0" 304 0 basechar 0
LayerCount: 2
Fore
SplineSet
130 0 m 1,0,-1
 20 532 l 1,1,-1
 75 532 l 1,2,-1
 142 211 l 2,3,4
 148 178 148 178 151.5 153.5 c 128,-1,5
 155 129 155 129 157.5 106.5 c 128,-1,6
 160 84 160 84 163 56 c 1,7,-1
 166 56 l 1,8,9
 170 80 170 80 179 119 c 128,-1,10
 188 158 188 158 202 203 c 2,11,-1
 272 434 l 1,12,-1
 334 434 l 1,13,-1
 403 203 l 2,14,15
 416 159 416 159 425.5 120.5 c 128,-1,16
 435 82 435 82 440 56 c 1,17,-1
 442 56 l 1,18,19
 445 84 445 84 447.5 106 c 128,-1,20
 450 128 450 128 453 153 c 128,-1,21
 456 178 456 178 463 211 c 2,22,-1
 526 532 l 1,23,-1
 580 532 l 1,24,-1
 476 0 l 1,25,-1
 410 0 l 1,26,-1
 340 240 l 2,27,28
 330 273 330 273 321 306.5 c 128,-1,29
 312 340 312 340 304 375 c 1,30,-1
 301 375 l 1,31,32
 294 340 294 340 283.5 306.5 c 128,-1,33
 273 273 273 273 264 240 c 2,34,-1
 194 0 l 1,35,-1
 130 0 l 1,0,-1
EndSplineSet
Substitution2: "'smcp' Lowercase to Small Capitals lookup 33 subtable" w.sc
Substitution2: "'aalt' Access All Alternates lookup 0 subtable" w.sc
EndChar

StartChar: x
Encoding: 120 120 91
Width: 600
GlyphClass: 2
Flags: W
AnchorPoint: "Anchor-4" 580 532 basechar 0
AnchorPoint: "Anchor-3" 300 532 basechar 0
AnchorPoint: "Anchor-0" 300 0 basechar 0
LayerCount: 2
Fore
SplineSet
65 0 m 1,0,-1
 266 272 l 1,1,-1
 76 532 l 1,2,-1
 142 532 l 1,3,-1
 299 312 l 1,4,-1
 458 532 l 1,5,-1
 524 532 l 1,6,-1
 333 272 l 1,7,-1
 534 0 l 1,8,-1
 468 0 l 1,9,-1
 300 232 l 1,10,-1
 131 0 l 1,11,-1
 65 0 l 1,0,-1
EndSplineSet
Substitution2: "'smcp' Lowercase to Small Capitals lookup 33 subtable" x.sc
Substitution2: "'aalt' Access All Alternates lookup 0 subtable" x.sc
EndChar

StartChar: y
Encoding: 121 121 92
Width: 600
GlyphClass: 2
Flags: W
AnchorPoint: "Anchor-4" 580 532 basechar 0
AnchorPoint: "Anchor-3" 300 532 basechar 0
AnchorPoint: "Anchor-0" 300 -246 basechar 0
LayerCount: 2
Fore
SplineSet
137 -246 m 0,0,1
 120 -246 120 -246 104.5 -243.5 c 128,-1,2
 89 -241 89 -241 74 -237 c 1,3,-1
 74 -190 l 1,4,5
 88 -193 88 -193 102.5 -195.5 c 128,-1,6
 117 -198 117 -198 132 -198 c 0,7,8
 174 -198 174 -198 198 -173.5 c 128,-1,9
 222 -149 222 -149 244 -92 c 2,10,-1
 279 1 l 1,11,-1
 68 532 l 1,12,-1
 126 532 l 1,13,-1
 258 192 l 2,14,15
 273 154 273 154 283.5 122.5 c 128,-1,16
 294 91 294 91 305 59 c 1,17,-1
 308 59 l 1,18,19
 318 93 318 93 329 124 c 128,-1,20
 340 155 340 155 354 195 c 2,21,-1
 474 532 l 1,22,-1
 534 532 l 1,23,-1
 299 -95 l 2,24,25
 281 -142 281 -142 261 -176 c 128,-1,26
 241 -210 241 -210 211.5 -228 c 128,-1,27
 182 -246 182 -246 137 -246 c 0,0,1
EndSplineSet
Substitution2: "'smcp' Lowercase to Small Capitals lookup 33 subtable" y.sc
Substitution2: "'aalt' Access All Alternates lookup 0 subtable" y.sc
EndChar

StartChar: z
Encoding: 122 122 93
Width: 600
GlyphClass: 2
Flags: W
AnchorPoint: "Anchor-4" 580 532 basechar 0
AnchorPoint: "Anchor-3" 310 532 basechar 0
AnchorPoint: "Anchor-0" 310 0 basechar 0
LayerCount: 2
Fore
SplineSet
102 0 m 1,0,-1
 102 39 l 1,1,-1
 426 485 l 1,2,-1
 124 485 l 1,3,-1
 124 532 l 1,4,-1
 494 532 l 1,5,-1
 494 489 l 1,6,-1
 174 50 l 1,7,-1
 496 50 l 1,8,-1
 496 0 l 1,9,-1
 102 0 l 1,0,-1
EndSplineSet
Substitution2: "'smcp' Lowercase to Small Capitals lookup 33 subtable" z.sc
Substitution2: "'aalt' Access All Alternates lookup 0 subtable" z.sc
EndChar

StartChar: braceleft
Encoding: 123 123 94
Width: 600
Flags: W
LayerCount: 2
Fore
SplineSet
450 -158 m 1,0,1
 358 -158 358 -158 313.5 -122.5 c 128,-1,2
 269 -87 269 -87 269 -13 c 2,3,-1
 269 150 l 2,4,5
 269 206 269 206 240.5 230 c 128,-1,6
 212 254 212 254 153 254 c 1,7,-1
 153 303 l 1,8,9
 212 304 212 304 240.5 327.5 c 128,-1,10
 269 351 269 351 269 408 c 2,11,-1
 269 569 l 2,12,13
 269 643 269 643 315.5 678.5 c 128,-1,14
 362 714 362 714 450 714 c 1,15,-1
 450 666 l 1,16,17
 385 664 385 664 355.5 641 c 128,-1,18
 326 618 326 618 326 564 c 2,19,-1
 326 404 l 2,20,21
 326 353 326 353 304 321.5 c 128,-1,22
 282 290 282 290 232 282 c 1,23,-1
 232 278 l 1,24,25
 282 268 282 268 304 236.5 c 128,-1,26
 326 205 326 205 326 154 c 2,27,-1
 326 -8 l 2,28,29
 326 -63 326 -63 355 -86 c 128,-1,30
 384 -109 384 -109 450 -110 c 1,31,-1
 450 -158 l 1,0,1
EndSplineSet
Substitution2: "'smcp' Lowercase to Small Capitals lookup 33 subtable" braceleft.sc
Substitution2: "'c2sc' Capitals to Small Capitals lookup 32 subtable" braceleft.sc
Substitution2: "'aalt' Access All Alternates lookup 0 subtable" braceleft.sc
EndChar

StartChar: bar
Encoding: 124 124 95
Width: 600
Flags: W
LayerCount: 2
Fore
SplineSet
276 -240 m 1,0,-1
 276 760 l 1,1,-1
 324 760 l 1,2,-1
 324 -240 l 1,3,-1
 276 -240 l 1,0,-1
EndSplineSet
EndChar

StartChar: asciitilde
Encoding: 126 126 97
Width: 600
Flags: W
LayerCount: 2
Fore
SplineSet
78 298 m 1,0,-1
 78 352 l 1,1,2
 101 376 101 376 131.5 392 c 128,-1,3
 162 408 162 408 198 408 c 0,4,5
 230 408 230 408 254.5 399.5 c 128,-1,6
 279 391 279 391 313 375 c 0,7,8
 341 362 341 362 362 354 c 128,-1,9
 383 346 383 346 408 346 c 0,10,11
 436 346 436 346 465.5 362 c 128,-1,12
 495 378 495 378 522 406 c 1,13,-1
 522 352 l 1,14,15
 501 329 501 329 471 313.5 c 128,-1,16
 441 298 441 298 405 298 c 0,17,18
 374 298 374 298 349 306.5 c 128,-1,19
 324 315 324 315 290 330 c 0,20,21
 262 344 262 344 241.5 352 c 128,-1,22
 221 360 221 360 196 360 c 0,23,24
 166 360 166 360 135 342.5 c 128,-1,25
 104 325 104 325 78 298 c 1,0,-1
EndSplineSet
EndChar

StartChar: cent
Encoding: 162 162 100
Width: 600
Flags: W
LayerCount: 2
Fore
SplineSet
309 -10 m 1,0,-1
 309 90 l 1,1,2
 203 99 203 99 147.5 168.5 c 128,-1,3
 92 238 92 238 92 362 c 0,4,5
 92 484 92 484 150.5 555 c 128,-1,6
 209 626 209 626 309 638 c 1,7,-1
 309 724 l 1,8,-1
 356 724 l 1,9,-1
 356 640 l 1,10,11
 396 640 396 640 431.5 633 c 128,-1,12
 467 626 467 626 494 614 c 1,13,-1
 478 566 l 1,14,15
 450 577 450 577 417.5 583.5 c 128,-1,16
 385 590 385 590 352 590 c 0,17,18
 254 590 254 590 202.5 529.5 c 128,-1,19
 151 469 151 469 151 362 c 0,20,21
 151 258 151 258 197.5 199 c 128,-1,22
 244 140 244 140 342 140 c 0,23,24
 384 140 384 140 421 147.5 c 128,-1,25
 458 155 458 155 488 168 c 1,26,-1
 488 116 l 1,27,28
 462 105 462 105 429 97.5 c 128,-1,29
 396 90 396 90 355 88 c 1,30,-1
 355 -10 l 1,31,-1
 309 -10 l 1,0,-1
EndSplineSet
EndChar

StartChar: sterling
Encoding: 163 163 101
Width: 600
Flags: W
LayerCount: 2
Fore
SplineSet
91 0 m 1,0,-1
 91 48 l 1,1,2
 141 58 141 58 170 94.5 c 128,-1,3
 199 131 199 131 199 201 c 2,4,-1
 199 328 l 1,5,-1
 100 328 l 1,6,-1
 100 373 l 1,7,-1
 199 373 l 1,8,-1
 199 525 l 2,9,10
 199 622 199 622 246 672.5 c 128,-1,11
 293 723 293 723 378 723 c 0,12,13
 423 723 423 723 457.5 712.5 c 128,-1,14
 492 702 492 702 524 683 c 1,15,-1
 504 637 l 1,16,17
 444 673 444 673 382 673 c 0,18,19
 318 673 318 673 287 636.5 c 128,-1,20
 256 600 256 600 256 518 c 2,21,-1
 256 373 l 1,22,-1
 434 373 l 1,23,-1
 434 328 l 1,24,-1
 256 328 l 1,25,-1
 256 197 l 2,26,27
 256 145 256 145 235 106.5 c 128,-1,28
 214 68 214 68 185 52 c 1,29,-1
 532 52 l 1,30,-1
 532 0 l 1,31,-1
 91 0 l 1,0,-1
EndSplineSet
EndChar

StartChar: currency
Encoding: 164 164 102
Width: 600
Flags: W
LayerCount: 2
Fore
SplineSet
495 128 m 1,0,-1
 422 199 l 1,1,2
 369 157 369 157 300 157 c 0,3,4
 230 157 230 157 178 200 c 1,5,-1
 106 129 l 1,6,-1
 72 162 l 1,7,-1
 144 234 l 1,8,9
 100 287 100 287 100 357 c 0,10,11
 100 426 100 426 142 479 c 1,12,-1
 70 552 l 1,13,-1
 104 586 l 1,14,-1
 176 514 l 1,15,16
 231 558 231 558 300 558 c 0,17,18
 334 558 334 558 365.5 546.5 c 128,-1,19
 397 535 397 535 424 514 c 1,20,-1
 496 585 l 1,21,-1
 530 552 l 1,22,-1
 458 480 l 1,23,24
 501 426 501 426 501 356 c 0,25,26
 501 287 501 287 458 233 c 1,27,-1
 528 160 l 1,28,-1
 495 128 l 1,0,-1
300 204 m 0,29,30
 343 204 343 204 378 224 c 128,-1,31
 413 244 413 244 433.5 278.5 c 128,-1,32
 454 313 454 313 454 358 c 0,33,34
 454 402 454 402 434 437 c 128,-1,35
 414 472 414 472 379.5 492 c 128,-1,36
 345 512 345 512 302 512 c 0,37,38
 258 512 258 512 222.5 492 c 128,-1,39
 187 472 187 472 167 437 c 128,-1,40
 147 402 147 402 147 356 c 0,41,42
 147 311 147 311 168 276.5 c 128,-1,43
 189 242 189 242 223.5 223 c 128,-1,44
 258 204 258 204 300 204 c 0,29,30
EndSplineSet
EndChar

StartChar: yen
Encoding: 165 165 103
Width: 600
Flags: W
LayerCount: 2
Fore
SplineSet
272 0 m 1,0,-1
 272 146 l 1,1,-1
 112 146 l 1,2,-1
 112 190 l 1,3,-1
 272 190 l 1,4,-1
 272 286 l 1,5,-1
 112 286 l 1,6,-1
 112 331 l 1,7,-1
 253 331 l 1,8,-1
 38 714 l 1,9,-1
 99 714 l 1,10,-1
 300 350 l 1,11,-1
 501 714 l 1,12,-1
 562 714 l 1,13,-1
 345 331 l 1,14,-1
 488 331 l 1,15,-1
 488 286 l 1,16,-1
 328 286 l 1,17,-1
 328 190 l 1,18,-1
 488 190 l 1,19,-1
 488 146 l 1,20,-1
 328 146 l 1,21,-1
 328 0 l 1,22,-1
 272 0 l 1,0,-1
EndSplineSet
EndChar

StartChar: brokenbar
Encoding: 166 166 104
Width: 600
Flags: W
LayerCount: 2
Fore
SplineSet
275 387 m 1,0,-1
 275 762 l 1,1,-1
 324 762 l 1,2,-1
 324 387 l 1,3,-1
 275 387 l 1,0,-1
275 -246 m 1,4,-1
 275 129 l 1,5,-1
 324 129 l 1,6,-1
 324 -246 l 1,7,-1
 275 -246 l 1,4,-1
EndSplineSet
EndChar

StartChar: section
Encoding: 167 167 105
Width: 600
Flags: W
LayerCount: 2
Fore
SplineSet
284 -5 m 0,0,1
 231 -5 231 -5 188.5 4.5 c 128,-1,2
 146 14 146 14 117 28 c 1,3,-1
 117 79 l 1,4,5
 152 62 152 62 196 50 c 128,-1,6
 240 38 240 38 286 38 c 0,7,8
 366 38 366 38 399 64.5 c 128,-1,9
 432 91 432 91 432 130 c 0,10,11
 432 171 432 171 398 193.5 c 128,-1,12
 364 216 364 216 292 242 c 0,13,14
 244 258 244 258 207.5 276 c 128,-1,15
 171 294 171 294 150.5 322 c 128,-1,16
 130 350 130 350 130 395 c 0,17,18
 130 444 130 444 157 474.5 c 128,-1,19
 184 505 184 505 224 521 c 1,20,21
 184 538 184 538 159 564.5 c 128,-1,22
 134 591 134 591 134 636 c 0,23,24
 134 694 134 694 182.5 728 c 128,-1,25
 231 762 231 762 318 762 c 0,26,27
 368 762 368 762 407 753 c 128,-1,28
 446 744 446 744 479 731 c 1,29,-1
 460 688 l 1,30,31
 431 702 431 702 395.5 710 c 128,-1,32
 360 718 360 718 316 718 c 0,33,34
 252 718 252 718 220 696.5 c 128,-1,35
 188 675 188 675 188 636 c 256,36,37
 188 597 188 597 222 577.5 c 128,-1,38
 256 558 256 558 324 534 c 0,39,40
 370 518 370 518 407.5 499.5 c 128,-1,41
 445 481 445 481 467.5 453.5 c 128,-1,42
 490 426 490 426 490 382 c 0,43,44
 490 332 490 332 465 299 c 128,-1,45
 440 266 440 266 405 248 c 1,46,47
 442 230 442 230 464 203 c 128,-1,48
 486 176 486 176 486 133 c 0,49,50
 486 68 486 68 434 31.5 c 128,-1,51
 382 -5 382 -5 284 -5 c 0,0,1
361 268 m 1,52,53
 394 283 394 283 417 310 c 128,-1,54
 440 337 440 337 440 376 c 0,55,56
 440 422 440 422 401 448.5 c 128,-1,57
 362 475 362 475 274 500 c 1,58,59
 235 490 235 490 206.5 465 c 128,-1,60
 178 440 178 440 178 400 c 0,61,62
 178 352 178 352 214.5 329 c 128,-1,63
 251 306 251 306 320 281 c 2,64,-1
 361 268 l 1,52,53
EndSplineSet
EndChar

StartChar: dieresis
Encoding: 168 168 106
Width: 600
GlyphClass: 2
Flags: W
AnchorPoint: "Anchor-13" 300 642 basemark 0
AnchorPoint: "Anchor-13" 300 532 mark 0
AnchorPoint: "Anchor-8" 300 532 mark 0
AnchorPoint: "Anchor-3" 300 532 mark 0
LayerCount: 2
Fore
SplineSet
406 632 m 0,0,1
 366 632 366 632 366 680 c 0,2,3
 366 726 366 726 406 726 c 0,4,5
 426 726 426 726 436.5 713.5 c 128,-1,6
 447 701 447 701 447 680 c 0,7,8
 447 632 447 632 406 632 c 0,0,1
194 632 m 0,9,10
 154 632 154 632 154 680 c 0,11,12
 154 726 154 726 194 726 c 0,13,14
 214 726 214 726 224 713.5 c 128,-1,15
 234 701 234 701 234 680 c 0,16,17
 234 658 234 658 224 645 c 128,-1,18
 214 632 214 632 194 632 c 0,9,10
EndSplineSet
EndChar

StartChar: copyright
Encoding: 169 169 107
Width: 600
Flags: W
LayerCount: 2
Fore
SplineSet
298 102 m 0,0,1
 221 102 221 102 163.5 134.5 c 128,-1,2
 106 167 106 167 74 224.5 c 128,-1,3
 42 282 42 282 42 358 c 0,4,5
 42 436 42 436 75.5 494 c 128,-1,6
 109 552 109 552 167.5 584.5 c 128,-1,7
 226 617 226 617 302 617 c 256,8,9
 378 617 378 617 435.5 584 c 128,-1,10
 493 551 493 551 525.5 492.5 c 128,-1,11
 558 434 558 434 558 360 c 0,12,13
 558 283 558 283 524 225 c 128,-1,14
 490 167 490 167 431.5 134.5 c 128,-1,15
 373 102 373 102 298 102 c 0,0,1
299 137 m 256,16,17
 364 137 364 137 413.5 164.5 c 128,-1,18
 463 192 463 192 491.5 241.5 c 128,-1,19
 520 291 520 291 520 358 c 0,20,21
 520 424 520 424 492 474 c 128,-1,22
 464 524 464 524 414.5 552.5 c 128,-1,23
 365 581 365 581 300 581 c 0,24,25
 236 581 236 581 186.5 553.5 c 128,-1,26
 137 526 137 526 108.5 476.5 c 128,-1,27
 80 427 80 427 80 360 c 0,28,29
 80 294 80 294 107.5 244 c 128,-1,30
 135 194 135 194 184.5 165.5 c 128,-1,31
 234 137 234 137 299 137 c 256,16,17
314 202 m 0,32,33
 244 202 244 202 205 243 c 128,-1,34
 166 284 166 284 166 356 c 0,35,36
 166 429 166 429 205.5 473 c 128,-1,37
 245 517 245 517 317 517 c 0,38,39
 364 517 364 517 402 498 c 1,40,-1
 388 464 l 1,41,42
 372 472 372 472 353.5 476 c 128,-1,43
 335 480 335 480 317 480 c 0,44,45
 265 480 265 480 236.5 448 c 128,-1,46
 208 416 208 416 208 356 c 0,47,48
 208 237 208 237 316 237 c 0,49,50
 351 237 351 237 390 252 c 1,51,-1
 390 216 l 1,52,53
 374 210 374 210 355 206 c 128,-1,54
 336 202 336 202 314 202 c 0,32,33
EndSplineSet
EndChar

StartChar: ordfeminine
Encoding: 170 170 108
Width: 600
Flags: W
LayerCount: 2
Fore
SplineSet
268 388 m 0,0,1
 222 388 222 388 192.5 411.5 c 128,-1,2
 163 435 163 435 163 482 c 0,3,4
 163 533 163 533 201 558 c 128,-1,5
 239 583 239 583 317 586 c 2,6,-1
 382 588 l 1,7,-1
 382 614 l 2,8,9
 382 652 382 652 358.5 668 c 128,-1,10
 335 684 335 684 296 684 c 0,11,12
 270 684 270 684 246 677.5 c 128,-1,13
 222 671 222 671 199 659 c 1,14,-1
 183 694 l 1,15,16
 208 706 208 706 237 714 c 128,-1,17
 266 722 266 722 300 722 c 0,18,19
 426 722 426 722 426 616 c 2,20,-1
 426 393 l 1,21,-1
 392 393 l 1,22,-1
 384 439 l 1,23,24
 368 417 368 417 338 402.5 c 128,-1,25
 308 388 308 388 268 388 c 0,0,1
280 425 m 0,26,27
 331 425 331 425 356.5 451 c 128,-1,28
 382 477 382 477 382 522 c 2,29,-1
 382 554 l 1,30,-1
 320 552 l 2,31,32
 258 550 258 550 233 533 c 128,-1,33
 208 516 208 516 208 484 c 256,34,35
 208 452 208 452 227.5 438.5 c 128,-1,36
 247 425 247 425 280 425 c 0,26,27
EndSplineSet
EndChar

StartChar: guillemotleft
Encoding: 171 171 109
Width: 600
Flags: W
LayerCount: 2
Fore
SplineSet
448 67 m 1,0,-1
 286 262 l 1,1,-1
 286 275 l 1,2,-1
 448 472 l 1,3,-1
 484 444 l 1,4,-1
 348 269 l 1,5,-1
 484 93 l 1,6,-1
 448 67 l 1,0,-1
265 68 m 1,7,-1
 105 262 l 1,8,-1
 105 275 l 1,9,-1
 265 472 l 1,10,-1
 302 444 l 1,11,-1
 166 269 l 1,12,-1
 302 93 l 1,13,-1
 265 68 l 1,7,-1
EndSplineSet
EndChar

StartChar: logicalnot
Encoding: 172 172 110
Width: 600
Flags: W
LayerCount: 2
Fore
SplineSet
459 130 m 1,0,-1
 459 329 l 1,1,-1
 65 329 l 1,2,-1
 65 376 l 1,3,-1
 506 376 l 1,4,-1
 506 130 l 1,5,-1
 459 130 l 1,0,-1
EndSplineSet
EndChar

StartChar: registered
Encoding: 174 174 112
Width: 600
Flags: W
LayerCount: 2
Fore
SplineSet
298 102 m 0,0,1
 221 102 221 102 163.5 134.5 c 128,-1,2
 106 167 106 167 74 224.5 c 128,-1,3
 42 282 42 282 42 358 c 0,4,5
 42 436 42 436 75.5 494 c 128,-1,6
 109 552 109 552 167.5 584.5 c 128,-1,7
 226 617 226 617 302 617 c 256,8,9
 378 617 378 617 435.5 584 c 128,-1,10
 493 551 493 551 525.5 492.5 c 128,-1,11
 558 434 558 434 558 360 c 0,12,13
 558 283 558 283 524 225 c 128,-1,14
 490 167 490 167 431.5 134.5 c 128,-1,15
 373 102 373 102 298 102 c 0,0,1
299 137 m 256,16,17
 364 137 364 137 413.5 164.5 c 128,-1,18
 463 192 463 192 491.5 241.5 c 128,-1,19
 520 291 520 291 520 358 c 0,20,21
 520 424 520 424 492 474 c 128,-1,22
 464 524 464 524 414.5 552.5 c 128,-1,23
 365 581 365 581 300 581 c 0,24,25
 236 581 236 581 186.5 553.5 c 128,-1,26
 137 526 137 526 108.5 476.5 c 128,-1,27
 80 427 80 427 80 360 c 0,28,29
 80 294 80 294 107.5 244 c 128,-1,30
 135 194 135 194 184.5 165.5 c 128,-1,31
 234 137 234 137 299 137 c 256,16,17
210 198 m 1,32,-1
 210 525 l 1,33,-1
 302 525 l 2,34,35
 355 525 355 525 384.5 501 c 128,-1,36
 414 477 414 477 414 432 c 0,37,38
 414 392 414 392 394 370 c 128,-1,39
 374 348 374 348 348 339 c 1,40,-1
 435 198 l 1,41,-1
 391 198 l 1,42,-1
 312 330 l 1,43,-1
 246 330 l 1,44,-1
 246 198 l 1,45,-1
 210 198 l 1,32,-1
246 362 m 1,46,-1
 300 362 l 2,47,48
 333 362 333 362 354.5 378 c 128,-1,49
 376 394 376 394 376 429 c 0,50,51
 376 462 376 462 356 476.5 c 128,-1,52
 336 491 336 491 300 491 c 2,53,-1
 246 491 l 1,54,-1
 246 362 l 1,46,-1
EndSplineSet
EndChar

StartChar: overscore
Encoding: 175 175 113
Width: 600
Flags: W
LayerCount: 2
Fore
SplineSet
162 626 m 1,0,-1
 162 674 l 1,1,-1
 438 674 l 1,2,-1
 438 626 l 1,3,-1
 162 626 l 1,0,-1
EndSplineSet
EndChar

StartChar: degree
Encoding: 176 176 114
Width: 600
Flags: W
LayerCount: 2
Fore
SplineSet
301 431 m 0,0,1
 238 431 238 431 196 471.5 c 128,-1,2
 154 512 154 512 154 577 c 0,3,4
 154 620 154 620 173.5 653.5 c 128,-1,5
 193 687 193 687 226 705.5 c 128,-1,6
 259 724 259 724 300 724 c 0,7,8
 340 724 340 724 373.5 705 c 128,-1,9
 407 686 407 686 426.5 652.5 c 128,-1,10
 446 619 446 619 446 576 c 0,11,12
 446 512 446 512 404.5 471.5 c 128,-1,13
 363 431 363 431 301 431 c 0,0,1
301 472 m 256,14,15
 344 472 344 472 374 500.5 c 128,-1,16
 404 529 404 529 404 577 c 256,17,18
 404 625 404 625 374 653.5 c 128,-1,19
 344 682 344 682 300 682 c 256,20,21
 256 682 256 682 226.5 654 c 128,-1,22
 197 626 197 626 197 578 c 256,23,24
 197 530 197 530 227.5 501 c 128,-1,25
 258 472 258 472 301 472 c 256,14,15
EndSplineSet
EndChar

StartChar: plusminus
Encoding: 177 177 115
Width: 600
Flags: W
LayerCount: 2
Fore
SplineSet
275 124 m 1,0,-1
 275 330 l 1,1,-1
 73 330 l 1,2,-1
 73 378 l 1,3,-1
 275 378 l 1,4,-1
 275 586 l 1,5,-1
 323 586 l 1,6,-1
 323 378 l 1,7,-1
 525 378 l 1,8,-1
 525 330 l 1,9,-1
 323 330 l 1,10,-1
 323 124 l 1,11,-1
 275 124 l 1,0,-1
75 0 m 1,12,-1
 75 47 l 1,13,-1
 525 47 l 1,14,-1
 525 0 l 1,15,-1
 75 0 l 1,12,-1
EndSplineSet
EndChar

StartChar: uni00B2
Encoding: 178 178 116
Width: 600
Flags: W
LayerCount: 2
Fore
SplineSet
156 416 m 1,0,-1
 156 454 l 1,1,-1
 275 572 l 2,2,3
 314 611 314 611 338 638 c 128,-1,4
 362 665 362 665 373.5 687.5 c 128,-1,5
 385 710 385 710 385 736 c 0,6,7
 385 771 385 771 362.5 791.5 c 128,-1,8
 340 812 340 812 300 812 c 0,9,10
 268 812 268 812 242.5 801.5 c 128,-1,11
 217 791 217 791 190 770 c 1,12,-1
 166 804 l 1,13,14
 194 827 194 827 227.5 840.5 c 128,-1,15
 261 854 261 854 300 854 c 0,16,17
 362 854 362 854 397 822 c 128,-1,18
 432 790 432 790 432 738 c 0,19,20
 432 704 432 704 418 676 c 128,-1,21
 404 648 404 648 376.5 618.5 c 128,-1,22
 349 589 349 589 310 550 c 2,23,-1
 218 460 l 1,24,-1
 446 460 l 1,25,-1
 446 416 l 1,26,-1
 156 416 l 1,0,-1
EndSplineSet
EndChar

StartChar: uni00B3
Encoding: 179 179 117
Width: 600
Flags: W
LayerCount: 2
Fore
SplineSet
279 410 m 0,0,1
 211 410 211 410 156 436 c 1,2,-1
 156 482 l 1,3,4
 188 467 188 467 218.5 459 c 128,-1,5
 249 451 249 451 281 451 c 0,6,7
 336 451 336 451 363 474.5 c 128,-1,8
 390 498 390 498 390 539 c 0,9,10
 390 620 390 620 278 620 c 2,11,-1
 216 620 l 1,12,-1
 216 658 l 1,13,-1
 278 658 l 2,14,15
 328 658 328 658 353.5 680 c 128,-1,16
 379 702 379 702 379 740 c 0,17,18
 379 775 379 775 356.5 793 c 128,-1,19
 334 811 334 811 296 811 c 0,20,21
 266 811 266 811 238.5 800.5 c 128,-1,22
 211 790 211 790 184 773 c 1,23,-1
 161 807 l 1,24,25
 190 827 190 827 223 839.5 c 128,-1,26
 256 852 256 852 297 852 c 0,27,28
 359 852 359 852 393.5 823 c 128,-1,29
 428 794 428 794 428 744 c 0,30,31
 428 704 428 704 407.5 677.5 c 128,-1,32
 387 651 387 651 357 642 c 1,33,-1
 357 640 l 1,34,35
 397 631 397 631 418.5 605.5 c 128,-1,36
 440 580 440 580 440 538 c 0,37,38
 440 480 440 480 399 445 c 128,-1,39
 358 410 358 410 279 410 c 0,0,1
EndSplineSet
EndChar

StartChar: acute
Encoding: 180 180 118
Width: 600
Flags: W
LayerCount: 2
Fore
SplineSet
260 606 m 1,0,-1
 260 615 l 1,1,2
 278 634 278 634 300.5 661 c 128,-1,3
 323 688 323 688 343.5 716 c 128,-1,4
 364 744 364 744 377 766 c 1,5,-1
 445 766 l 1,6,-1
 445 758 l 1,7,8
 430 737 430 737 405.5 709 c 128,-1,9
 381 681 381 681 353 653.5 c 128,-1,10
 325 626 325 626 300 606 c 1,11,-1
 260 606 l 1,0,-1
EndSplineSet
EndChar

StartChar: uni00B5
Encoding: 181 181 119
Width: 600
GlyphClass: 2
Flags: W
AnchorPoint: "Anchor-4" 580 532 basechar 0
AnchorPoint: "Anchor-3" 300 532 basechar 0
AnchorPoint: "Anchor-2" 540 10 basechar 0
AnchorPoint: "Anchor-0" 300 0 basechar 0
LayerCount: 2
Fore
SplineSet
88 -240 m 1,0,-1
 88 532 l 1,1,-1
 146 532 l 1,2,-1
 146 196 l 2,3,4
 146 116 146 116 179 77.5 c 128,-1,5
 212 39 212 39 282 39 c 0,6,7
 450 39 450 39 450 243 c 2,8,-1
 450 532 l 1,9,-1
 508 532 l 1,10,-1
 508 0 l 1,11,-1
 460 0 l 1,12,-1
 452 92 l 1,13,-1
 449 92 l 1,14,15
 426 47 426 47 383 18.5 c 128,-1,16
 340 -10 340 -10 271 -10 c 0,17,18
 191 -10 191 -10 146 28 c 1,19,-1
 146 -240 l 1,20,-1
 88 -240 l 1,0,-1
EndSplineSet
EndChar

StartChar: paragraph
Encoding: 182 182 120
Width: 600
Flags: W
LayerCount: 2
Fore
SplineSet
300 -127 m 1,0,-1
 300 314 l 1,1,2
 270 305 270 305 230 305 c 0,3,4
 150 305 150 305 107 362.5 c 128,-1,5
 64 420 64 420 64 532 c 0,6,7
 64 652 64 652 111.5 706 c 128,-1,8
 159 760 159 760 247 760 c 2,9,-1
 511 760 l 1,10,-1
 511 -127 l 1,11,-1
 470 -127 l 1,12,-1
 470 719 l 1,13,-1
 342 719 l 1,14,-1
 342 -127 l 1,15,-1
 300 -127 l 1,0,-1
EndSplineSet
EndChar

StartChar: cedilla
Encoding: 184 184 122
Width: 600
Flags: W
LayerCount: 2
Fore
SplineSet
268 -240 m 0,0,1
 236 -240 236 -240 217 -234 c 1,2,-1
 217 -195 l 1,3,4
 228 -198 228 -198 242 -199 c 128,-1,5
 256 -200 256 -200 268 -200 c 0,6,7
 308 -200 308 -200 330.5 -186 c 128,-1,8
 353 -172 353 -172 353 -144 c 256,9,10
 353 -116 353 -116 329 -102.5 c 128,-1,11
 305 -89 305 -89 256 -86 c 1,12,-1
 299 2 l 1,13,-1
 341 2 l 1,14,-1
 312 -59 l 1,15,16
 351 -64 351 -64 376 -84 c 128,-1,17
 401 -104 401 -104 401 -144 c 0,18,19
 401 -188 401 -188 366.5 -214 c 128,-1,20
 332 -240 332 -240 268 -240 c 0,0,1
EndSplineSet
EndChar

StartChar: uni00B9
Encoding: 185 185 123
Width: 600
Flags: W
LayerCount: 2
Fore
SplineSet
185 416 m 1,0,-1
 185 451 l 1,1,-1
 290 457 l 1,2,-1
 290 694 l 2,3,4
 290 721 290 721 290 746.5 c 128,-1,5
 290 772 290 772 292 796 c 1,6,7
 278 786 278 786 264.5 777.5 c 128,-1,8
 251 769 251 769 233 760 c 2,9,-1
 180 730 l 1,10,-1
 158 770 l 1,11,-1
 292 844 l 1,12,-1
 336 844 l 1,13,-1
 336 457 l 1,14,-1
 440 451 l 1,15,-1
 440 416 l 1,16,-1
 185 416 l 1,0,-1
EndSplineSet
EndChar

StartChar: ordmasculine
Encoding: 186 186 124
Width: 600
Flags: W
LayerCount: 2
Fore
SplineSet
299 388 m 0,0,1
 234 388 234 388 198 434 c 128,-1,2
 162 480 162 480 162 556 c 0,3,4
 162 635 162 635 199.5 679 c 128,-1,5
 237 723 237 723 302 723 c 0,6,7
 368 723 368 723 403 677.5 c 128,-1,8
 438 632 438 632 438 556 c 256,9,10
 438 480 438 480 402 434 c 128,-1,11
 366 388 366 388 299 388 c 0,0,1
300 427 m 256,12,13
 348 427 348 427 370.5 462 c 128,-1,14
 393 497 393 497 393 556 c 0,15,16
 393 614 393 614 371.5 649 c 128,-1,17
 350 684 350 684 301 684 c 0,18,19
 254 684 254 684 230 650 c 128,-1,20
 206 616 206 616 206 556 c 256,21,22
 206 496 206 496 229 461.5 c 128,-1,23
 252 427 252 427 300 427 c 256,12,13
EndSplineSet
EndChar

StartChar: AE
Encoding: 198 198 136
Width: 600
GlyphClass: 2
Flags: W
AnchorPoint: "Anchor-3" 342 714 basechar 0
AnchorPoint: "Anchor-0" 300 0 basechar 0
LayerCount: 2
Fore
SplineSet
20 0 m 1,0,-1
 227 714 l 1,1,-1
 564 714 l 1,2,-1
 564 662 l 1,3,-1
 353 662 l 1,4,-1
 353 401 l 1,5,-1
 546 401 l 1,6,-1
 546 349 l 1,7,-1
 353 349 l 1,8,-1
 353 52 l 1,9,-1
 564 52 l 1,10,-1
 564 0 l 1,11,-1
 297 0 l 1,12,-1
 297 247 l 1,13,-1
 148 247 l 1,14,-1
 77 0 l 1,15,-1
 20 0 l 1,0,-1
266 662 m 1,16,-1
 162 298 l 1,17,-1
 297 298 l 1,18,-1
 297 662 l 1,19,-1
 266 662 l 1,16,-1
EndSplineSet
Substitution2: "'c2sc' Capitals to Small Capitals lookup 32 subtable" ae.sc
Substitution2: "'aalt' Access All Alternates lookup 0 subtable" ae.sc
EndChar

StartChar: Eth
Encoding: 208 208 146
Width: 600
GlyphClass: 2
Flags: W
AnchorPoint: "Anchor-4" 610 714 basechar 0
AnchorPoint: "Anchor-3" 300 714 basechar 0
AnchorPoint: "Anchor-1" 302 357 basechar 0
AnchorPoint: "Anchor-0" 300 0 basechar 0
LayerCount: 2
Fore
SplineSet
92 0 m 1,0,-1
 92 334 l 1,1,-1
 0 334 l 1,2,-1
 0 385 l 1,3,-1
 92 385 l 1,4,-1
 92 714 l 1,5,-1
 250 714 l 2,6,7
 398 714 398 714 479 624.5 c 128,-1,8
 560 535 560 535 560 364 c 0,9,10
 560 184 560 184 476 92 c 128,-1,11
 392 0 392 0 236 0 c 2,12,-1
 92 0 l 1,0,-1
150 51 m 1,13,-1
 226 51 l 2,14,15
 366 51 366 51 433 129.5 c 128,-1,16
 500 208 500 208 500 362 c 0,17,18
 500 662 500 662 240 662 c 2,19,-1
 150 662 l 1,20,-1
 150 385 l 1,21,-1
 284 385 l 1,22,-1
 284 334 l 1,23,-1
 150 334 l 1,24,-1
 150 51 l 1,13,-1
EndSplineSet
Substitution2: "'c2sc' Capitals to Small Capitals lookup 32 subtable" eth.sc
Substitution2: "'aalt' Access All Alternates lookup 0 subtable" eth.sc
EndChar

StartChar: multiply
Encoding: 215 215 153
Width: 600
Flags: W
LayerCount: 2
Fore
SplineSet
119 138 m 1,0,-1
 86 172 l 1,1,-1
 266 353 l 1,2,-1
 86 534 l 1,3,-1
 119 568 l 1,4,-1
 300 386 l 1,5,-1
 482 568 l 1,6,-1
 515 534 l 1,7,-1
 334 353 l 1,8,-1
 514 172 l 1,9,-1
 482 138 l 1,10,-1
 300 319 l 1,11,-1
 119 138 l 1,0,-1
EndSplineSet
EndChar

StartChar: Oslash
Encoding: 216 216 154
Width: 600
GlyphClass: 2
Flags: W
AnchorPoint: "Anchor-4" 600 714 basechar 0
AnchorPoint: "Anchor-3" 300 714 basechar 0
AnchorPoint: "Anchor-2" 300 10 basechar 0
AnchorPoint: "Anchor-1" 300 357 basechar 0
AnchorPoint: "Anchor-0" 300 0 basechar 0
LayerCount: 2
Fore
SplineSet
106 -33 m 1,0,-1
 62 -9 l 1,1,-1
 116 85 l 1,2,3
 82 135 82 135 66 205 c 128,-1,4
 50 275 50 275 50 358 c 0,5,6
 50 470 50 470 78 552.5 c 128,-1,7
 106 635 106 635 162 680 c 128,-1,8
 218 725 218 725 302 725 c 0,9,10
 348 725 348 725 385 711 c 128,-1,11
 422 697 422 697 451 671 c 1,12,-1
 492 743 l 1,13,-1
 535 719 l 1,14,-1
 485 632 l 1,15,16
 518 584 518 584 534 514.5 c 128,-1,17
 550 445 550 445 550 360 c 0,18,19
 550 253 550 253 524 169.5 c 128,-1,20
 498 86 498 86 443 38 c 128,-1,21
 388 -10 388 -10 300 -10 c 0,22,23
 253 -10 253 -10 216 4 c 128,-1,24
 179 18 179 18 150 45 c 1,25,-1
 106 -33 l 1,0,-1
109 358 m 0,26,27
 109 291 109 291 118.5 236.5 c 128,-1,28
 128 182 128 182 148 141 c 1,29,-1
 422 621 l 1,30,31
 377 672 377 672 302 672 c 0,32,33
 202 672 202 672 155.5 587 c 128,-1,34
 109 502 109 502 109 358 c 0,26,27
302 42 m 0,35,36
 401 42 401 42 445.5 126.5 c 128,-1,37
 490 211 490 211 490 358 c 0,38,39
 490 426 490 426 481 480.5 c 128,-1,40
 472 535 472 535 453 575 c 1,41,-1
 179 94 l 1,42,43
 226 42 226 42 302 42 c 0,35,36
EndSplineSet
Substitution2: "'c2sc' Capitals to Small Capitals lookup 32 subtable" oslash.sc
Substitution2: "'aalt' Access All Alternates lookup 0 subtable" oslash.sc
EndChar

StartChar: Thorn
Encoding: 222 222 160
Width: 600
GlyphClass: 2
Flags: W
AnchorPoint: "Anchor-3" 300 714 basechar 0
AnchorPoint: "Anchor-0" 300 0 basechar 0
LayerCount: 2
Fore
SplineSet
105 0 m 1,0,-1
 105 714 l 1,1,-1
 163 714 l 1,2,-1
 163 578 l 1,3,-1
 301 578 l 2,4,5
 424 578 424 578 483 527 c 128,-1,6
 542 476 542 476 542 374 c 0,7,8
 542 274 542 274 479 214 c 128,-1,9
 416 154 416 154 282 154 c 2,10,-1
 163 154 l 1,11,-1
 163 0 l 1,12,-1
 105 0 l 1,0,-1
163 206 m 1,13,-1
 275 206 l 2,14,15
 373 206 373 206 428 243 c 128,-1,16
 483 280 483 280 483 371 c 0,17,18
 483 451 483 451 437.5 488.5 c 128,-1,19
 392 526 392 526 294 526 c 2,20,-1
 163 526 l 1,21,-1
 163 206 l 1,13,-1
EndSplineSet
Substitution2: "'c2sc' Capitals to Small Capitals lookup 32 subtable" thorn.sc
Substitution2: "'aalt' Access All Alternates lookup 0 subtable" thorn.sc
EndChar

StartChar: germandbls
Encoding: 223 223 161
Width: 600
GlyphClass: 2
Flags: W
AnchorPoint: "Anchor-3" 300 765 basechar 0
AnchorPoint: "Anchor-0" 300 0 basechar 0
LayerCount: 2
Fore
SplineSet
371 -10 m 0,0,1
 326 -10 326 -10 293 -2 c 128,-1,2
 260 6 260 6 234 20 c 1,3,-1
 234 75 l 1,4,5
 262 59 262 59 297.5 49 c 128,-1,6
 333 39 333 39 372 39 c 0,7,8
 434 39 434 39 463 67 c 128,-1,9
 492 95 492 95 492 144 c 0,10,11
 492 175 492 175 481.5 196 c 128,-1,12
 471 217 471 217 450 235 c 128,-1,13
 429 253 429 253 398 274 c 0,14,15
 348 308 348 308 319 337 c 128,-1,16
 290 366 290 366 290 412 c 0,17,18
 290 447 290 447 303.5 469 c 128,-1,19
 317 491 317 491 337.5 507 c 128,-1,20
 358 523 358 523 378.5 538 c 128,-1,21
 399 553 399 553 412.5 573 c 128,-1,22
 426 593 426 593 426 623 c 0,23,24
 426 667 426 667 392 690.5 c 128,-1,25
 358 714 358 714 298 714 c 0,26,27
 229 714 229 714 189 679.5 c 128,-1,28
 149 645 149 645 149 568 c 2,29,-1
 149 0 l 1,30,-1
 92 0 l 1,31,-1
 92 574 l 2,32,33
 92 672 92 672 148 718.5 c 128,-1,34
 204 765 204 765 298 765 c 0,35,36
 385 765 385 765 435 728.5 c 128,-1,37
 485 692 485 692 485 628 c 0,38,39
 485 591 485 591 471 566.5 c 128,-1,40
 457 542 457 542 436.5 524.5 c 128,-1,41
 416 507 416 507 395 491.5 c 128,-1,42
 374 476 374 476 360 458 c 128,-1,43
 346 440 346 440 346 414 c 0,44,45
 346 383 346 383 368.5 364 c 128,-1,46
 391 345 391 345 438 312 c 0,47,48
 469 290 469 290 494 268.5 c 128,-1,49
 519 247 519 247 534 217 c 128,-1,50
 549 187 549 187 549 142 c 0,51,52
 549 72 549 72 502.5 31 c 128,-1,53
 456 -10 456 -10 371 -10 c 0,0,1
EndSplineSet
Substitution2: "'smcp' Lowercase to Small Capitals lookup 33 subtable" germandbls.sc
Substitution2: "'aalt' Access All Alternates lookup 0 subtable" germandbls.sc
EndChar

StartChar: ae
Encoding: 230 230 168
Width: 600
GlyphClass: 2
Flags: W
AnchorPoint: "Anchor-3" 300 532 basechar 0
AnchorPoint: "Anchor-0" 300 0 basechar 0
LayerCount: 2
Fore
SplineSet
150 -10 m 0,0,1
 93 -10 93 -10 60 29 c 128,-1,2
 27 68 27 68 27 139 c 0,3,4
 27 219 27 219 73.5 260 c 128,-1,5
 120 301 120 301 202 306 c 2,6,-1
 270 309 l 1,7,-1
 270 359 l 2,8,9
 270 430 270 430 245.5 461 c 128,-1,10
 221 492 221 492 176 492 c 0,11,12
 154 492 154 492 128 483 c 128,-1,13
 102 474 102 474 76 456 c 1,14,-1
 56 500 l 1,15,16
 82 518 82 518 115 530 c 128,-1,17
 148 542 148 542 179 542 c 0,18,19
 232 542 232 542 265 515 c 128,-1,20
 298 488 298 488 308 431 c 1,21,22
 322 483 322 483 353.5 512.5 c 128,-1,23
 385 542 385 542 434 542 c 0,24,25
 503 542 503 542 537.5 480 c 128,-1,26
 572 418 572 418 572 302 c 2,27,-1
 572 260 l 1,28,-1
 322 260 l 1,29,30
 322 146 322 146 356.5 92.5 c 128,-1,31
 391 39 391 39 454 39 c 0,32,33
 480 39 480 39 503 47 c 128,-1,34
 526 55 526 55 557 77 c 1,35,-1
 557 24 l 1,36,37
 531 6 531 6 506.5 -2 c 128,-1,38
 482 -10 482 -10 450 -10 c 0,39,40
 392 -10 392 -10 354 23.5 c 128,-1,41
 316 57 316 57 298 120 c 1,42,43
 280 58 280 58 244 24 c 128,-1,44
 208 -10 208 -10 150 -10 c 0,0,1
323 308 m 1,45,-1
 518 308 l 1,46,47
 518 401 518 401 497 447 c 128,-1,48
 476 493 476 493 429 493 c 256,49,50
 382 493 382 493 354.5 443.5 c 128,-1,51
 327 394 327 394 323 308 c 1,45,-1
158 39 m 0,52,53
 209 39 209 39 239 84.5 c 128,-1,54
 269 130 269 130 269 207 c 2,55,-1
 269 265 l 1,56,-1
 218 262 l 2,57,58
 148 257 148 257 114 226.5 c 128,-1,59
 80 196 80 196 80 138 c 0,60,61
 80 92 80 92 100.5 65.5 c 128,-1,62
 121 39 121 39 158 39 c 0,52,53
EndSplineSet
Substitution2: "'smcp' Lowercase to Small Capitals lookup 33 subtable" ae.sc
Substitution2: "'aalt' Access All Alternates lookup 0 subtable" ae.sc
EndChar

StartChar: eth
Encoding: 240 240 178
Width: 600
GlyphClass: 2
Flags: W
AnchorPoint: "Anchor-4" 580 760 basechar 0
AnchorPoint: "Anchor-3" 300 761 basechar 0
AnchorPoint: "Anchor-1" 300 266 basechar 0
AnchorPoint: "Anchor-0" 300 0 basechar 0
LayerCount: 2
Fore
SplineSet
301 -10 m 0,0,1
 229 -10 229 -10 175.5 19.5 c 128,-1,2
 122 49 122 49 92 102.5 c 128,-1,3
 62 156 62 156 62 228 c 0,4,5
 62 302 62 302 92 356.5 c 128,-1,6
 122 411 122 411 175 440 c 128,-1,7
 228 469 228 469 298 469 c 0,8,9
 358 469 358 469 401 449 c 128,-1,10
 444 429 444 429 468 396 c 1,11,-1
 472 398 l 1,12,13
 454 467 454 467 418 525.5 c 128,-1,14
 382 584 382 584 331 631 c 1,15,-1
 204 556 l 1,16,-1
 178 593 l 1,17,-1
 294 661 l 1,18,19
 249 696 249 696 197 720 c 1,20,-1
 222 761 l 1,21,22
 286 731 286 731 339 688 c 1,23,-1
 455 756 l 1,24,-1
 480 718 l 1,25,-1
 375 656 l 1,26,27
 456 577 456 577 497 475 c 128,-1,28
 538 373 538 373 538 270 c 0,29,30
 538 135 538 135 476 62.5 c 128,-1,31
 414 -10 414 -10 301 -10 c 0,0,1
300 38 m 0,32,33
 387 38 387 38 433.5 95 c 128,-1,34
 480 152 480 152 480 252 c 0,35,36
 480 294 480 294 462.5 333 c 128,-1,37
 445 372 445 372 407 396.5 c 128,-1,38
 369 421 369 421 308 421 c 0,39,40
 219 421 219 421 169.5 370 c 128,-1,41
 120 319 120 319 120 226 c 0,42,43
 120 139 120 139 168 88.5 c 128,-1,44
 216 38 216 38 300 38 c 0,32,33
EndSplineSet
Substitution2: "'smcp' Lowercase to Small Capitals lookup 33 subtable" eth.sc
Substitution2: "'aalt' Access All Alternates lookup 0 subtable" eth.sc
EndChar

StartChar: divide
Encoding: 247 247 185
Width: 600
Flags: W
LayerCount: 2
Fore
SplineSet
299 481 m 0,0,1
 280 481 280 481 269 492.5 c 128,-1,2
 258 504 258 504 258 527 c 256,3,4
 258 550 258 550 269 561 c 128,-1,5
 280 572 280 572 299 572 c 0,6,7
 340 572 340 572 340 527 c 0,8,9
 340 481 340 481 299 481 c 0,0,1
75 329 m 1,10,-1
 75 376 l 1,11,-1
 525 376 l 1,12,-1
 525 329 l 1,13,-1
 75 329 l 1,10,-1
299 132 m 0,14,15
 280 132 280 132 269 144 c 128,-1,16
 258 156 258 156 258 178 c 0,17,18
 258 201 258 201 269 212.5 c 128,-1,19
 280 224 280 224 299 224 c 0,20,21
 340 224 340 224 340 178 c 256,22,23
 340 132 340 132 299 132 c 0,14,15
EndSplineSet
EndChar

StartChar: oslash
Encoding: 248 248 186
Width: 600
GlyphClass: 2
Flags: W
AnchorPoint: "Anchor-4" 580 532 basechar 0
AnchorPoint: "Anchor-3" 300 532 basechar 0
AnchorPoint: "Anchor-2" 300 10 basechar 0
AnchorPoint: "Anchor-1" 300 266 basechar 0
AnchorPoint: "Anchor-0" 300 0 basechar 0
LayerCount: 2
Fore
SplineSet
109 -30 m 1,0,-1
 71 -3 l 1,1,-1
 124 66 l 1,2,3
 94 102 94 102 78 152.5 c 128,-1,4
 62 203 62 203 62 267 c 0,5,6
 62 400 62 400 127.5 471 c 128,-1,7
 193 542 193 542 302 542 c 0,8,9
 390 542 390 542 449 494 c 1,10,-1
 499 560 l 1,11,-1
 538 534 l 1,12,-1
 482 461 l 1,13,14
 538 388 538 388 538 267 c 0,15,16
 538 138 538 138 475 64 c 128,-1,17
 412 -10 412 -10 300 -10 c 0,18,19
 216 -10 216 -10 158 34 c 1,20,-1
 109 -30 l 1,0,-1
120 266 m 0,21,22
 120 170 120 170 158 111 c 1,23,-1
 417 452 l 1,24,25
 396 471 396 471 367.5 481.5 c 128,-1,26
 339 492 339 492 302 492 c 0,27,28
 214 492 214 492 167 432 c 128,-1,29
 120 372 120 372 120 266 c 0,21,22
300 39 m 0,30,31
 392 39 392 39 435 101.5 c 128,-1,32
 478 164 478 164 478 267 c 0,33,34
 478 310 478 310 470.5 347.5 c 128,-1,35
 463 385 463 385 446 414 c 1,36,-1
 189 76 l 1,37,38
 233 39 233 39 300 39 c 0,30,31
EndSplineSet
Substitution2: "'smcp' Lowercase to Small Capitals lookup 33 subtable" oslash.sc
Substitution2: "'aalt' Access All Alternates lookup 0 subtable" oslash.sc
EndChar

StartChar: thorn
Encoding: 254 254 192
Width: 600
GlyphClass: 2
Flags: W
AnchorPoint: "Anchor-3" 320 737 basechar 0
AnchorPoint: "Anchor-0" 320 -240 basechar 0
LayerCount: 2
Fore
SplineSet
92 -240 m 1,0,-1
 92 737 l 1,1,-1
 150 737 l 1,2,-1
 150 508 l 2,3,4
 150 489 150 489 149 469.5 c 128,-1,5
 148 450 148 450 146 431 c 1,6,-1
 150 431 l 1,7,8
 170 477 170 477 213 509.5 c 128,-1,9
 256 542 256 542 328 542 c 0,10,11
 427 542 427 542 482.5 472.5 c 128,-1,12
 538 403 538 403 538 270 c 0,13,14
 538 134 538 134 480.5 62 c 128,-1,15
 423 -10 423 -10 323 -10 c 0,16,17
 254 -10 254 -10 212 21 c 128,-1,18
 170 52 170 52 150 94 c 1,19,-1
 146 94 l 1,20,21
 148 68 148 68 149 40 c 128,-1,22
 150 12 150 12 150 -13 c 2,23,-1
 150 -240 l 1,24,-1
 92 -240 l 1,0,-1
314 39 m 0,25,26
 478 39 478 39 478 272 c 0,27,28
 478 384 478 384 439 438 c 128,-1,29
 400 492 400 492 318 492 c 0,30,31
 235 492 235 492 192.5 436 c 128,-1,32
 150 380 150 380 150 277 c 2,33,-1
 150 266 l 2,34,35
 150 154 150 154 191 96.5 c 128,-1,36
 232 39 232 39 314 39 c 0,25,26
EndSplineSet
Substitution2: "'smcp' Lowercase to Small Capitals lookup 33 subtable" thorn.sc
Substitution2: "'aalt' Access All Alternates lookup 0 subtable" thorn.sc
EndChar

StartChar: dcaron
Encoding: 271 271 209
Width: 600
GlyphClass: 2
Flags: W
AnchorPoint: "Anchor-4" 580 760 basechar 0
AnchorPoint: "Anchor-3" 324 760 basechar 0
AnchorPoint: "Anchor-1" 264 266 basechar 0
AnchorPoint: "Anchor-0" 286 0 basechar 0
LayerCount: 2
Fore
SplineSet
249 -10 m 0,0,1
 154 -10 154 -10 103 59 c 128,-1,2
 52 128 52 128 52 262 c 0,3,4
 52 398 52 398 104 470 c 128,-1,5
 156 542 156 542 254 542 c 0,6,7
 320 542 320 542 356 511.5 c 128,-1,8
 392 481 392 481 410 438 c 1,9,-1
 414 438 l 1,10,11
 412 464 412 464 411 491.5 c 128,-1,12
 410 519 410 519 410 547 c 2,13,-1
 410 760 l 1,14,-1
 468 760 l 1,15,-1
 468 0 l 1,16,-1
 420 0 l 1,17,-1
 414 92 l 1,18,-1
 410 92 l 1,19,20
 389 47 389 47 351 18.5 c 128,-1,21
 313 -10 313 -10 249 -10 c 0,0,1
527 600 m 1,22,-1
 527 609 l 1,23,24
 534 626 534 626 542.5 653.5 c 128,-1,25
 551 681 551 681 557.5 709.5 c 128,-1,26
 564 738 564 738 567 760 c 1,27,-1
 625 760 l 1,28,-1
 625 753 l 1,29,30
 617 720 617 720 599 677 c 128,-1,31
 581 634 581 634 560 600 c 1,32,-1
 527 600 l 1,22,-1
258 39 m 0,33,34
 338 39 338 39 374 96.5 c 128,-1,35
 410 154 410 154 410 255 c 2,36,-1
 410 266 l 2,37,38
 410 370 410 370 375 431 c 128,-1,39
 340 492 340 492 263 492 c 0,40,41
 190 492 190 492 151 434 c 128,-1,42
 112 376 112 376 112 258 c 0,43,44
 112 39 112 39 258 39 c 0,33,34
EndSplineSet
Substitution2: "'smcp' Lowercase to Small Capitals lookup 33 subtable" dcaron.sc
Substitution2: "'aalt' Access All Alternates lookup 0 subtable" dcaron.sc
EndChar

StartChar: dcroat
Encoding: 273 273 211
Width: 600
GlyphClass: 2
Flags: W
AnchorPoint: "Anchor-4" 580 760 basechar 0
AnchorPoint: "Anchor-3" 300 760 basechar 0
AnchorPoint: "Anchor-1" 300 266 basechar 0
AnchorPoint: "Anchor-0" 300 0 basechar 0
LayerCount: 2
Fore
SplineSet
278 -10 m 0,0,1
 175 -10 175 -10 118.5 59 c 128,-1,2
 62 128 62 128 62 262 c 256,3,4
 62 396 62 396 119 467.5 c 128,-1,5
 176 539 176 539 286 539 c 0,6,7
 354 539 354 539 393 508.5 c 128,-1,8
 432 478 432 478 450 436 c 1,9,-1
 454 436 l 1,10,11
 452 462 452 462 451 489 c 128,-1,12
 450 516 450 516 450 542 c 2,13,-1
 450 617 l 1,14,-1
 256 617 l 1,15,-1
 256 662 l 1,16,-1
 450 662 l 1,17,-1
 450 760 l 1,18,-1
 508 760 l 1,19,-1
 508 662 l 1,20,-1
 600 662 l 1,21,-1
 600 617 l 1,22,-1
 508 617 l 1,23,-1
 508 0 l 1,24,-1
 460 0 l 1,25,-1
 454 92 l 1,26,-1
 450 92 l 1,27,28
 429 48 429 48 388.5 19 c 128,-1,29
 348 -10 348 -10 278 -10 c 0,0,1
287 39 m 0,30,31
 373 39 373 39 411.5 96.5 c 128,-1,32
 450 154 450 154 450 254 c 2,33,-1
 450 266 l 2,34,35
 450 369 450 369 413 429.5 c 128,-1,36
 376 490 376 490 292 490 c 0,37,38
 211 490 211 490 166.5 432.5 c 128,-1,39
 122 375 122 375 122 257 c 0,40,41
 122 39 122 39 287 39 c 0,30,31
EndSplineSet
Substitution2: "'smcp' Lowercase to Small Capitals lookup 33 subtable" dcroat.sc
Substitution2: "'aalt' Access All Alternates lookup 0 subtable" dcroat.sc
EndChar

StartChar: eogonek
Encoding: 281 281 219
Width: 600
GlyphClass: 2
Flags: W
AnchorPoint: "Anchor-4" 580 532 basechar 0
AnchorPoint: "Anchor-3" 300 532 basechar 0
AnchorPoint: "Anchor-2" 310 10 basechar 0
AnchorPoint: "Anchor-0" 320 -218 basechar 0
LayerCount: 2
Fore
SplineSet
336 -10 m 0,0,1
 201 -10 201 -10 134.5 63.5 c 128,-1,2
 68 137 68 137 68 260 c 0,3,4
 68 343 68 343 96.5 406.5 c 128,-1,5
 125 470 125 470 180.5 506 c 128,-1,6
 236 542 236 542 316 542 c 0,7,8
 388 542 388 542 436 510.5 c 128,-1,9
 484 479 484 479 508 422.5 c 128,-1,10
 532 366 532 366 532 292 c 2,11,-1
 532 258 l 1,12,-1
 126 258 l 1,13,14
 129 39 129 39 340 39 c 0,15,16
 386 39 386 39 428 49.5 c 128,-1,17
 470 60 470 60 513 79 c 1,18,-1
 513 26 l 1,19,20
 488 6 488 6 462 -15.5 c 128,-1,21
 436 -37 436 -37 419 -62.5 c 128,-1,22
 402 -88 402 -88 402 -121 c 0,23,24
 402 -176 402 -176 459 -176 c 0,25,26
 469 -176 469 -176 481.5 -174.5 c 128,-1,27
 494 -173 494 -173 502 -170 c 1,28,-1
 502 -210 l 1,29,30
 491 -213 491 -213 477 -215.5 c 128,-1,31
 463 -218 463 -218 448 -218 c 0,32,33
 403 -218 403 -218 378.5 -194 c 128,-1,34
 354 -170 354 -170 354 -130 c 0,35,36
 354 -89 354 -89 376.5 -57.5 c 128,-1,37
 399 -26 399 -26 432 0 c 1,38,39
 384 -10 384 -10 336 -10 c 0,0,1
128 307 m 1,40,-1
 474 307 l 1,41,42
 472 392 472 392 433 442 c 128,-1,43
 394 492 394 492 316 492 c 256,44,45
 238 492 238 492 188 444 c 128,-1,46
 138 396 138 396 128 307 c 1,40,-1
EndSplineSet
Substitution2: "'smcp' Lowercase to Small Capitals lookup 33 subtable" eogonek.sc
Substitution2: "'locl' Localized Forms in Latin lookup 11 subtable" eogonek.loclNAV
Ligature2: "'ccmp' Glyph Composition/Decomposition lookup 6 subtable" e uni0328
AlternateSubs2: "'aalt' Access All Alternates lookup 1 subtable" eogonek.loclNAV eogonek.sc
EndChar

StartChar: Hbar
Encoding: 294 294 232
Width: 600
GlyphClass: 2
Flags: W
AnchorPoint: "Anchor-3" 300 714 basechar 0
AnchorPoint: "Anchor-1" 300 357 basechar 0
AnchorPoint: "Anchor-0" 300 0 basechar 0
LayerCount: 2
Fore
SplineSet
82 0 m 1,0,-1
 82 525 l 1,1,-1
 0 525 l 1,2,-1
 0 574 l 1,3,-1
 82 574 l 1,4,-1
 82 714 l 1,5,-1
 140 714 l 1,6,-1
 140 574 l 1,7,-1
 460 574 l 1,8,-1
 460 714 l 1,9,-1
 518 714 l 1,10,-1
 518 574 l 1,11,-1
 600 574 l 1,12,-1
 600 525 l 1,13,-1
 518 525 l 1,14,-1
 518 0 l 1,15,-1
 460 0 l 1,16,-1
 460 348 l 1,17,-1
 140 348 l 1,18,-1
 140 0 l 1,19,-1
 82 0 l 1,0,-1
140 400 m 1,20,-1
 460 400 l 1,21,-1
 460 525 l 1,22,-1
 140 525 l 1,23,-1
 140 400 l 1,20,-1
EndSplineSet
Substitution2: "'c2sc' Capitals to Small Capitals lookup 32 subtable" hbar.sc
Substitution2: "'aalt' Access All Alternates lookup 0 subtable" hbar.sc
EndChar

StartChar: hbar
Encoding: 295 295 233
Width: 600
GlyphClass: 2
Flags: W
AnchorPoint: "Anchor-3" 121 760 basechar 0
AnchorPoint: "Anchor-1" 300 266 basechar 0
AnchorPoint: "Anchor-0" 300 0 basechar 0
LayerCount: 2
Fore
SplineSet
92 0 m 1,0,-1
 92 617 l 1,1,-1
 0 617 l 1,2,-1
 0 662 l 1,3,-1
 92 662 l 1,4,-1
 92 760 l 1,5,-1
 150 760 l 1,6,-1
 150 662 l 1,7,-1
 344 662 l 1,8,-1
 344 617 l 1,9,-1
 150 617 l 1,10,-1
 150 520 l 2,11,12
 150 499 150 499 149 475 c 128,-1,13
 148 451 148 451 148 431 c 1,14,-1
 151 431 l 1,15,16
 171 480 171 480 216 511 c 128,-1,17
 261 542 261 542 330 542 c 0,18,19
 413 542 413 542 462.5 495.5 c 128,-1,20
 512 449 512 449 512 350 c 2,21,-1
 512 0 l 1,22,-1
 454 0 l 1,23,-1
 454 338 l 2,24,25
 454 419 454 419 418 455.5 c 128,-1,26
 382 492 382 492 318 492 c 0,27,28
 242 492 242 492 196 441 c 128,-1,29
 150 390 150 390 150 290 c 2,30,-1
 150 0 l 1,31,-1
 92 0 l 1,0,-1
EndSplineSet
Substitution2: "'smcp' Lowercase to Small Capitals lookup 33 subtable" hbar.sc
Substitution2: "'aalt' Access All Alternates lookup 0 subtable" hbar.sc
EndChar

StartChar: IJ
Encoding: 306 306 243
Width: 600
GlyphClass: 2
LigCaretCntFixed: 1
Flags: W
AnchorPoint: "Anchor-3" 300 714 basechar 0
AnchorPoint: "Anchor-0" 300 0 basechar 0
LayerCount: 2
Fore
SplineSet
280 -12 m 0,0,1
 232 -12 232 -12 185 -2.5 c 128,-1,2
 138 7 138 7 112 23 c 1,3,-1
 112 79 l 1,4,5
 134 66 134 66 180 53.5 c 128,-1,6
 226 41 226 41 276 41 c 0,7,8
 356 41 356 41 395 83 c 128,-1,9
 434 125 434 125 434 216 c 2,10,-1
 434 714 l 1,11,-1
 492 714 l 1,12,-1
 492 206 l 2,13,14
 492 102 492 102 441 45 c 128,-1,15
 390 -12 390 -12 280 -12 c 0,0,1
108 174 m 1,16,-1
 108 714 l 1,17,-1
 166 714 l 1,18,-1
 166 174 l 1,19,-1
 108 174 l 1,16,-1
EndSplineSet
Substitution2: "'c2sc' Capitals to Small Capitals lookup 32 subtable" ij.sc
Substitution2: "'aalt' Access All Alternates lookup 0 subtable" ij.sc
LCarets2: 1 0
EndChar

StartChar: ij
Encoding: 307 307 244
Width: 600
GlyphClass: 2
LigCaretCntFixed: 1
Flags: W
AnchorPoint: "Anchor-3" 300 747 basechar 0
AnchorPoint: "Anchor-0" 303 -246 basechar 0
LayerCount: 2
Fore
SplineSet
160 646 m 256,0,1
 138 646 138 646 125 660 c 128,-1,2
 112 674 112 674 112 697 c 256,3,4
 112 720 112 720 124.5 733.5 c 128,-1,5
 137 747 137 747 160 747 c 0,6,7
 206 747 206 747 206 696 c 0,8,9
 206 674 206 674 194 660 c 128,-1,10
 182 646 182 646 160 646 c 256,0,1
441 646 m 0,11,12
 418 646 418 646 406 660 c 128,-1,13
 394 674 394 674 394 697 c 256,14,15
 394 720 394 720 406 733.5 c 128,-1,16
 418 747 418 747 440 747 c 256,17,18
 462 747 462 747 475 733.5 c 128,-1,19
 488 720 488 720 488 696 c 0,20,21
 488 674 488 674 475.5 660 c 128,-1,22
 463 646 463 646 441 646 c 0,11,12
274 -246 m 0,23,24
 235 -246 235 -246 195.5 -239.5 c 128,-1,25
 156 -233 156 -233 131 -223 c 1,26,-1
 131 -170 l 1,27,28
 159 -182 159 -182 197 -189 c 128,-1,29
 235 -196 235 -196 270 -196 c 0,30,31
 346 -196 346 -196 380 -161 c 128,-1,32
 414 -126 414 -126 414 -59 c 2,33,-1
 414 532 l 1,34,-1
 472 532 l 1,35,-1
 472 -70 l 2,36,37
 472 -157 472 -157 420 -201.5 c 128,-1,38
 368 -246 368 -246 274 -246 c 0,23,24
130 0 m 1,39,-1
 130 532 l 1,40,-1
 188 532 l 1,41,-1
 188 0 l 1,42,-1
 130 0 l 1,39,-1
EndSplineSet
Substitution2: "'smcp' Lowercase to Small Capitals lookup 33 subtable" ij.sc
Substitution2: "'aalt' Access All Alternates lookup 0 subtable" ij.sc
LCarets2: 1 0
EndChar

StartChar: kgreenlandic
Encoding: 312 312 249
Width: 600
GlyphClass: 2
Flags: W
AnchorPoint: "Anchor-3" 300 532 basechar 0
AnchorPoint: "Anchor-0" 300 0 basechar 0
LayerCount: 2
Fore
SplineSet
123 0 m 1,0,-1
 123 532 l 1,1,-1
 180 532 l 1,2,-1
 180 390 l 2,3,4
 180 350 180 350 179 307 c 128,-1,5
 178 264 178 264 176 222 c 1,6,-1
 178 222 l 1,7,8
 196 242 196 242 213 261 c 128,-1,9
 230 280 230 280 249 300 c 2,10,-1
 470 532 l 1,11,-1
 540 532 l 1,12,-1
 330 310 l 1,13,-1
 558 0 l 1,14,-1
 490 0 l 1,15,-1
 292 274 l 1,16,-1
 180 168 l 1,17,-1
 180 0 l 1,18,-1
 123 0 l 1,0,-1
EndSplineSet
EndChar

StartChar: Lslash
Encoding: 321 321 258
Width: 600
GlyphClass: 2
Flags: W
AnchorPoint: "Anchor-4" 474 714 basechar 0
AnchorPoint: "Anchor-3" 202 714 basechar 0
AnchorPoint: "Anchor-1" 340 357 basechar 0
AnchorPoint: "Anchor-0" 372 0 basechar 0
LayerCount: 2
Fore
SplineSet
172 0 m 1,0,-1
 172 274 l 1,1,-1
 97 228 l 1,2,-1
 72 268 l 1,3,-1
 172 330 l 1,4,-1
 172 714 l 1,5,-1
 230 714 l 1,6,-1
 230 366 l 1,7,-1
 372 454 l 1,8,-1
 398 412 l 1,9,-1
 230 309 l 1,10,-1
 230 54 l 1,11,-1
 552 54 l 1,12,-1
 552 0 l 1,13,-1
 172 0 l 1,0,-1
EndSplineSet
Substitution2: "'c2sc' Capitals to Small Capitals lookup 32 subtable" lslash.sc
Substitution2: "'aalt' Access All Alternates lookup 0 subtable" lslash.sc
EndChar

StartChar: lslash
Encoding: 322 322 259
Width: 600
GlyphClass: 2
Flags: W
AnchorPoint: "Anchor-4" 490 760 basechar 0
AnchorPoint: "Anchor-3" 300 760 basechar 0
AnchorPoint: "Anchor-1" 318 383 basechar 0
AnchorPoint: "Anchor-0" 300 0 basechar 0
LayerCount: 2
Fore
SplineSet
90 0 m 1,0,-1
 90 40 l 1,1,-1
 288 50 l 1,2,-1
 288 318 l 1,3,-1
 180 250 l 1,4,-1
 154 290 l 1,5,-1
 288 375 l 1,6,-1
 288 710 l 1,7,-1
 104 718 l 1,8,-1
 104 760 l 1,9,-1
 346 760 l 1,10,-1
 346 411 l 1,11,-1
 453 479 l 1,12,-1
 479 439 l 1,13,-1
 346 355 l 1,14,-1
 346 50 l 1,15,-1
 535 40 l 1,16,-1
 535 0 l 1,17,-1
 90 0 l 1,0,-1
EndSplineSet
Substitution2: "'smcp' Lowercase to Small Capitals lookup 33 subtable" lslash.sc
Substitution2: "'aalt' Access All Alternates lookup 0 subtable" lslash.sc
EndChar

StartChar: napostrophe
Encoding: 329 329 266
Width: 600
GlyphClass: 2
Flags: W
AnchorPoint: "Anchor-3" 311 532 basechar 0
AnchorPoint: "Anchor-0" 314 0 basechar 0
LayerCount: 2
Fore
SplineSet
-27 469 m 1,0,1
 -15 506 -15 506 -3.5 550 c 128,-1,2
 8 594 8 594 16.5 636.5 c 128,-1,3
 25 679 25 679 29 714 c 1,4,-1
 91 714 l 1,5,-1
 97 704 l 1,6,7
 86 647 86 647 64.5 584.5 c 128,-1,8
 43 522 43 522 18 469 c 1,9,-1
 -27 469 l 1,0,1
111 0 m 1,10,-1
 111 532 l 1,11,-1
 158 532 l 1,12,-1
 166 437 l 1,13,-1
 169 437 l 1,14,15
 189 483 189 483 230.5 512.5 c 128,-1,16
 272 542 272 542 340 542 c 0,17,18
 420 542 420 542 466 496 c 128,-1,19
 512 450 512 450 512 356 c 2,20,-1
 512 0 l 1,21,-1
 454 0 l 1,22,-1
 454 344 l 2,23,24
 454 421 454 421 420.5 456.5 c 128,-1,25
 387 492 387 492 327 492 c 0,26,27
 250 492 250 492 209 440.5 c 128,-1,28
 168 389 168 389 168 288 c 2,29,-1
 168 0 l 1,30,-1
 111 0 l 1,10,-1
EndSplineSet
EndChar

StartChar: Eng
Encoding: 330 330 267
Width: 600
GlyphClass: 2
Flags: W
AnchorPoint: "Anchor-4" 600 714 basechar 0
AnchorPoint: "Anchor-3" 305 714 basechar 0
AnchorPoint: "Anchor-0" 315 -182 basechar 0
LayerCount: 2
Fore
SplineSet
82 0 m 1,0,-1
 82 714 l 1,1,-1
 156 714 l 1,2,-1
 464 86 l 1,3,-1
 466 86 l 1,4,5
 463 132 463 132 462 175.5 c 128,-1,6
 461 219 461 219 461 264 c 2,7,-1
 461 714 l 1,8,-1
 518 714 l 1,9,-1
 518 0 l 1,10,-1
 518 0 l 1,11,12
 517 -90 517 -90 472.5 -136 c 128,-1,13
 428 -182 428 -182 349 -182 c 0,14,15
 325 -182 325 -182 304.5 -178 c 128,-1,16
 284 -174 284 -174 271 -169 c 1,17,-1
 271 -118 l 1,18,19
 287 -123 287 -123 306.5 -126.5 c 128,-1,20
 326 -130 326 -130 346 -130 c 0,21,22
 397 -130 397 -130 429.5 -100 c 128,-1,23
 462 -70 462 -70 462 0 c 1,24,-1
 450 0 l 1,25,-1
 135 644 l 1,26,-1
 132 644 l 1,27,28
 135 599 135 599 137 556 c 128,-1,29
 139 513 139 513 139 464 c 2,30,-1
 139 0 l 1,31,-1
 82 0 l 1,0,-1
EndSplineSet
Substitution2: "'c2sc' Capitals to Small Capitals lookup 32 subtable" eng.sc
AlternateSubs2: "'aalt' Access All Alternates lookup 1 subtable" Eng.alt1 Eng.alt2 Eng.alt3 eng.sc
EndChar

StartChar: eng
Encoding: 331 331 268
Width: 600
GlyphClass: 2
Flags: W
AnchorPoint: "Anchor-4" 580 532 basechar 0
AnchorPoint: "Anchor-3" 310 532 basechar 0
AnchorPoint: "Anchor-0" 312 -240 basechar 0
LayerCount: 2
Fore
SplineSet
92 0 m 1,0,-1
 92 532 l 1,1,-1
 140 532 l 1,2,-1
 148 437 l 1,3,-1
 151 437 l 1,4,5
 171 483 171 483 215.5 512.5 c 128,-1,6
 260 542 260 542 332 542 c 0,7,8
 414 542 414 542 463 496 c 128,-1,9
 512 450 512 450 512 356 c 2,10,-1
 512 -90 l 2,11,12
 512 -164 512 -164 478 -202 c 128,-1,13
 444 -240 444 -240 384 -240 c 0,14,15
 361 -240 361 -240 343.5 -237 c 128,-1,16
 326 -234 326 -234 312 -229 c 1,17,-1
 312 -180 l 1,18,19
 327 -186 327 -186 343.5 -188.5 c 128,-1,20
 360 -191 360 -191 378 -191 c 0,21,22
 414 -191 414 -191 434 -166.5 c 128,-1,23
 454 -142 454 -142 454 -90 c 2,24,-1
 454 344 l 2,25,26
 454 421 454 421 420 456.5 c 128,-1,27
 386 492 386 492 319 492 c 0,28,29
 150 492 150 492 150 288 c 2,30,-1
 150 0 l 1,31,-1
 92 0 l 1,0,-1
EndSplineSet
Substitution2: "'smcp' Lowercase to Small Capitals lookup 33 subtable" eng.sc
Substitution2: "'aalt' Access All Alternates lookup 0 subtable" eng.sc
EndChar

StartChar: OE
Encoding: 338 338 275
Width: 600
GlyphClass: 2
Flags: W
AnchorPoint: "Anchor-3" 300 714 basechar 0
AnchorPoint: "Anchor-0" 300 0 basechar 0
LayerCount: 2
Fore
SplineSet
270 -6 m 0,0,1
 154 -6 154 -6 101 90 c 128,-1,2
 48 186 48 186 48 359 c 0,3,4
 48 468 48 468 69 548.5 c 128,-1,5
 90 629 90 629 140 674 c 128,-1,6
 190 719 190 719 277 719 c 0,7,8
 294 719 294 719 311 718 c 128,-1,9
 328 717 328 717 344 714 c 2,10,-1
 569 714 l 1,11,-1
 569 662 l 1,12,-1
 362 662 l 1,13,-1
 362 400 l 1,14,-1
 553 400 l 1,15,-1
 553 348 l 1,16,-1
 362 348 l 1,17,-1
 362 52 l 1,18,-1
 569 52 l 1,19,-1
 569 0 l 1,20,-1
 334 0 l 2,21,22
 319 -2 319 -2 303.5 -4 c 128,-1,23
 288 -6 288 -6 270 -6 c 0,0,1
270 46 m 0,24,25
 290 46 290 46 306 54 c 1,26,-1
 306 660 l 1,27,28
 298 663 298 663 289 665.5 c 128,-1,29
 280 668 280 668 270 668 c 0,30,31
 206 668 206 668 170 628.5 c 128,-1,32
 134 589 134 589 120 519.5 c 128,-1,33
 106 450 106 450 106 358 c 0,34,35
 106 214 106 214 145 130 c 128,-1,36
 184 46 184 46 270 46 c 0,24,25
EndSplineSet
Substitution2: "'c2sc' Capitals to Small Capitals lookup 32 subtable" oe.sc
Substitution2: "'aalt' Access All Alternates lookup 0 subtable" oe.sc
EndChar

StartChar: oe
Encoding: 339 339 276
Width: 600
GlyphClass: 2
Flags: W
AnchorPoint: "Anchor-3" 300 532 basechar 0
AnchorPoint: "Anchor-0" 300 0 basechar 0
LayerCount: 2
Fore
SplineSet
184 -10 m 0,0,1
 108 -10 108 -10 68.5 64 c 128,-1,2
 29 138 29 138 29 268 c 0,3,4
 29 402 29 402 69.5 472 c 128,-1,5
 110 542 110 542 186 542 c 0,6,7
 238 542 238 542 268.5 507 c 128,-1,8
 299 472 299 472 313 412 c 1,9,10
 329 470 329 470 359.5 506 c 128,-1,11
 390 542 390 542 438 542 c 0,12,13
 484 542 484 542 512.5 509.5 c 128,-1,14
 541 477 541 477 554 422.5 c 128,-1,15
 567 368 567 368 567 302 c 2,16,-1
 567 260 l 1,17,-1
 340 260 l 1,18,19
 343 36 343 36 456 36 c 0,20,21
 478 36 478 36 502 44 c 128,-1,22
 526 52 526 52 554 72 c 1,23,-1
 554 23 l 1,24,25
 526 5 526 5 501.5 -2.5 c 128,-1,26
 477 -10 477 -10 451 -10 c 0,27,28
 396 -10 396 -10 363 24.5 c 128,-1,29
 330 59 330 59 313 121 c 1,30,31
 298 62 298 62 266.5 26 c 128,-1,32
 235 -10 235 -10 184 -10 c 0,0,1
341 306 m 1,33,-1
 516 306 l 1,34,35
 516 359 516 359 508 402 c 128,-1,36
 500 445 500 445 482.5 470.5 c 128,-1,37
 465 496 465 496 436 496 c 0,38,39
 397 496 397 496 371 448.5 c 128,-1,40
 345 401 345 401 341 306 c 1,33,-1
186 37 m 256,41,42
 238 37 238 37 261.5 98.5 c 128,-1,43
 285 160 285 160 285 266 c 0,44,45
 285 373 285 373 262.5 433.5 c 128,-1,46
 240 494 240 494 188 494 c 0,47,48
 134 494 134 494 108 435.5 c 128,-1,49
 82 377 82 377 82 267 c 256,50,51
 82 157 82 157 108 97 c 128,-1,52
 134 37 134 37 186 37 c 256,41,42
EndSplineSet
Substitution2: "'smcp' Lowercase to Small Capitals lookup 33 subtable" oe.sc
Substitution2: "'aalt' Access All Alternates lookup 0 subtable" oe.sc
EndChar

StartChar: Tbar
Encoding: 358 358 295
Width: 600
GlyphClass: 2
Flags: W
AnchorPoint: "Anchor-4" 580 714 basechar 0
AnchorPoint: "Anchor-3" 300 714 basechar 0
AnchorPoint: "Anchor-1" 300 357 basechar 0
AnchorPoint: "Anchor-0" 300 0 basechar 0
LayerCount: 2
Fore
SplineSet
271 0 m 1,0,-1
 271 340 l 1,1,-1
 108 340 l 1,2,-1
 108 390 l 1,3,-1
 271 390 l 1,4,-1
 271 662 l 1,5,-1
 48 662 l 1,6,-1
 48 714 l 1,7,-1
 552 714 l 1,8,-1
 552 662 l 1,9,-1
 329 662 l 1,10,-1
 329 390 l 1,11,-1
 492 390 l 1,12,-1
 492 340 l 1,13,-1
 329 340 l 1,14,-1
 329 0 l 1,15,-1
 271 0 l 1,0,-1
EndSplineSet
Substitution2: "'c2sc' Capitals to Small Capitals lookup 32 subtable" tbar.sc
Substitution2: "'aalt' Access All Alternates lookup 0 subtable" tbar.sc
EndChar

StartChar: tbar
Encoding: 359 359 296
Width: 600
GlyphClass: 2
Flags: W
AnchorPoint: "Anchor-4" 580 669 basechar 0
AnchorPoint: "Anchor-3" 264 669 basechar 0
AnchorPoint: "Anchor-1" 260 266 basechar 0
AnchorPoint: "Anchor-0" 321 0 basechar 0
LayerCount: 2
Fore
SplineSet
70 282 m 1,0,-1
 70 328 l 1,1,-1
 228 328 l 1,2,-1
 228 482 l 1,3,-1
 70 482 l 1,4,-1
 70 524 l 1,5,-1
 228 534 l 1,6,-1
 240 669 l 1,7,-1
 286 669 l 1,8,-1
 286 532 l 1,9,-1
 500 532 l 1,10,-1
 500 482 l 1,11,-1
 286 482 l 1,12,-1
 286 328 l 1,13,-1
 507 328 l 1,14,-1
 507 282 l 1,15,-1
 286 282 l 1,16,-1
 286 182 l 2,17,18
 286 111 286 111 313 75 c 128,-1,19
 340 39 340 39 410 39 c 0,20,21
 436 39 436 39 460 43 c 128,-1,22
 484 47 484 47 503 53 c 1,23,-1
 503 4 l 1,24,25
 483 -1 483 -1 459.5 -5.5 c 128,-1,26
 436 -10 436 -10 406 -10 c 0,27,28
 319 -10 319 -10 273.5 33.5 c 128,-1,29
 228 77 228 77 228 172 c 2,30,-1
 228 282 l 1,31,-1
 70 282 l 1,0,-1
EndSplineSet
Substitution2: "'smcp' Lowercase to Small Capitals lookup 33 subtable" tbar.sc
Substitution2: "'aalt' Access All Alternates lookup 0 subtable" tbar.sc
EndChar

StartChar: Uogonek
Encoding: 370 370 307
Width: 600
GlyphClass: 2
Flags: W
AnchorPoint: "Anchor-4" 580 714 basechar 0
AnchorPoint: "Anchor-3" 300 714 basechar 0
AnchorPoint: "Anchor-2" 540 10 basechar 0
AnchorPoint: "Anchor-0" 315 -218 basechar 0
LayerCount: 2
Fore
SplineSet
297 -10 m 0,0,1
 183 -10 183 -10 132.5 60 c 128,-1,2
 82 130 82 130 82 254 c 2,3,-1
 82 714 l 1,4,-1
 140 714 l 1,5,-1
 140 258 l 2,6,7
 140 155 140 155 176 98.5 c 128,-1,8
 212 42 212 42 298 42 c 0,9,10
 386 42 386 42 423 99 c 128,-1,11
 460 156 460 156 460 259 c 2,12,-1
 460 714 l 1,13,-1
 518 714 l 1,14,-1
 518 252 l 2,15,16
 518 162 518 162 489.5 100 c 128,-1,17
 461 38 461 38 402 10 c 1,18,19
 372 -10 372 -10 346 -30 c 128,-1,20
 320 -50 320 -50 304 -72.5 c 128,-1,21
 288 -95 288 -95 288 -124 c 0,22,23
 288 -176 288 -176 344 -176 c 0,24,25
 355 -176 355 -176 367.5 -174.5 c 128,-1,26
 380 -173 380 -173 388 -170 c 1,27,-1
 388 -210 l 1,28,29
 377 -213 377 -213 363.5 -215.5 c 128,-1,30
 350 -218 350 -218 333 -218 c 0,31,32
 289 -218 289 -218 264.5 -195 c 128,-1,33
 240 -172 240 -172 240 -129 c 0,34,35
 240 -89 240 -89 263 -60.5 c 128,-1,36
 286 -32 286 -32 319 -9 c 1,37,38
 308 -10 308 -10 297 -10 c 0,0,1
EndSplineSet
Substitution2: "'c2sc' Capitals to Small Capitals lookup 32 subtable" uogonek.sc
Substitution2: "'locl' Localized Forms in Latin lookup 11 subtable" Uogonek.loclNAV
Ligature2: "'ccmp' Glyph Composition/Decomposition lookup 6 subtable" U uni0328
AlternateSubs2: "'aalt' Access All Alternates lookup 1 subtable" Uogonek.loclNAV uogonek.sc
EndChar

StartChar: longs
Encoding: 383 383 320
Width: 600
GlyphClass: 2
Flags: W
AnchorPoint: "Anchor-3" 410 765 basechar 0
AnchorPoint: "Anchor-0" 300 0 basechar 0
LayerCount: 2
Fore
SplineSet
241 0 m 1,0,-1
 241 566 l 2,1,2
 241 665 241 665 291.5 715 c 128,-1,3
 342 765 342 765 432 765 c 0,4,5
 461 765 461 765 485.5 761 c 128,-1,6
 510 757 510 757 529 751 c 1,7,-1
 516 704 l 1,8,9
 500 708 500 708 478.5 712 c 128,-1,10
 457 716 457 716 432 716 c 0,11,12
 366 716 366 716 332 678 c 128,-1,13
 298 640 298 640 298 557 c 2,14,-1
 298 0 l 1,15,-1
 241 0 l 1,0,-1
EndSplineSet
EndChar

StartChar: florin
Encoding: 402 402 321
Width: 600
GlyphClass: 2
Flags: W
AnchorPoint: "Anchor-3" 373 724 basechar 0
AnchorPoint: "Anchor-0" 282 -240 basechar 0
LayerCount: 2
Fore
SplineSet
180 -240 m 0,0,1
 158 -240 158 -240 138.5 -237.5 c 128,-1,2
 119 -235 119 -235 106 -231 c 1,3,-1
 106 -182 l 1,4,5
 122 -186 122 -186 140 -188.5 c 128,-1,6
 158 -191 158 -191 176 -191 c 0,7,8
 217 -191 217 -191 236.5 -164.5 c 128,-1,9
 256 -138 256 -138 256 -78 c 2,10,-1
 256 415 l 1,11,-1
 146 415 l 1,12,-1
 146 446 l 1,13,-1
 256 463 l 1,14,-1
 256 541 l 2,15,16
 256 637 256 637 296 680.5 c 128,-1,17
 336 724 336 724 416 724 c 0,18,19
 446 724 446 724 471 719 c 128,-1,20
 496 714 496 714 516 708 c 1,21,-1
 502 662 l 1,22,23
 486 667 486 667 464 671 c 128,-1,24
 442 675 442 675 417 675 c 0,25,26
 364 675 364 675 338 644.5 c 128,-1,27
 312 614 312 614 312 540 c 2,28,-1
 312 461 l 1,29,-1
 454 461 l 1,30,-1
 454 415 l 1,31,-1
 314 415 l 1,32,-1
 314 -81 l 2,33,34
 314 -161 314 -161 279.5 -200.5 c 128,-1,35
 245 -240 245 -240 180 -240 c 0,0,1
EndSplineSet
EndChar

StartChar: circumflex
Encoding: 710 710 330
Width: 600
Flags: W
LayerCount: 2
Fore
SplineSet
150 606 m 1,0,-1
 150 614 l 1,1,2
 168 634 168 634 191.5 661 c 128,-1,3
 215 688 215 688 236 715.5 c 128,-1,4
 257 743 257 743 270 764 c 1,5,-1
 326 764 l 1,6,7
 338 743 338 743 359 715.5 c 128,-1,8
 380 688 380 688 403 661 c 128,-1,9
 426 634 426 634 445 614 c 1,10,-1
 445 606 l 1,11,-1
 404 606 l 1,12,13
 377 628 377 628 349 658.5 c 128,-1,14
 321 689 321 689 297 717 c 1,15,16
 273 689 273 689 245 658.5 c 128,-1,17
 217 628 217 628 190 606 c 1,18,-1
 150 606 l 1,0,-1
EndSplineSet
EndChar

StartChar: caron
Encoding: 711 711 331
Width: 600
GlyphClass: 2
Flags: W
AnchorPoint: "Anchor-13" 299 763 basemark 0
AnchorPoint: "Anchor-13" 299 528 mark 0
AnchorPoint: "Anchor-8" 299 528 mark 0
AnchorPoint: "Anchor-3" 299 528 mark 0
LayerCount: 2
Fore
SplineSet
271 606 m 1,0,1
 258 628 258 628 237 655 c 128,-1,2
 216 682 216 682 193 709 c 128,-1,3
 170 736 170 736 152 755 c 1,4,-1
 152 764 l 1,5,-1
 193 764 l 1,6,7
 220 742 220 742 248 713 c 128,-1,8
 276 684 276 684 298 656 c 1,9,10
 322 684 322 684 350.5 713 c 128,-1,11
 379 742 379 742 406 764 c 1,12,-1
 448 764 l 1,13,-1
 448 755 l 1,14,15
 429 736 429 736 405.5 709 c 128,-1,16
 382 682 382 682 360.5 655 c 128,-1,17
 339 628 339 628 327 606 c 1,18,-1
 271 606 l 1,0,1
EndSplineSet
EndChar

StartChar: breve
Encoding: 728 728 333
Width: 600
GlyphClass: 2
Flags: W
AnchorPoint: "Anchor-13" 299 765 basemark 0
AnchorPoint: "Anchor-13" 300 532 mark 0
AnchorPoint: "Anchor-8" 300 532 mark 0
AnchorPoint: "Anchor-3" 300 532 mark 0
LayerCount: 2
Fore
SplineSet
298 606 m 0,0,1
 237 606 237 606 201 639.5 c 128,-1,2
 165 673 165 673 161 729 c 1,3,-1
 202 729 l 1,4,5
 210 686 210 686 237 667.5 c 128,-1,6
 264 649 264 649 300 649 c 0,7,8
 338 649 338 649 364 668 c 128,-1,9
 390 687 390 687 397 729 c 1,10,-1
 439 729 l 1,11,12
 435 673 435 673 398 639.5 c 128,-1,13
 361 606 361 606 298 606 c 0,0,1
EndSplineSet
EndChar

StartChar: dotaccent
Encoding: 729 729 334
Width: 600
Flags: W
LayerCount: 2
Fore
SplineSet
300 646 m 256,0,1
 278 646 278 646 265 660 c 128,-1,2
 252 674 252 674 252 696 c 0,3,4
 252 720 252 720 265 733.5 c 128,-1,5
 278 747 278 747 300 747 c 0,6,7
 346 747 346 747 346 696 c 0,8,9
 346 674 346 674 334 660 c 128,-1,10
 322 646 322 646 300 646 c 256,0,1
EndSplineSet
EndChar

StartChar: ring
Encoding: 730 730 335
Width: 600
Flags: W
LayerCount: 2
Fore
SplineSet
299 608 m 0,0,1
 255 608 255 608 224.5 635 c 128,-1,2
 194 662 194 662 194 710 c 256,3,4
 194 758 194 758 223.5 786 c 128,-1,5
 253 814 253 814 299 814 c 0,6,7
 344 814 344 814 374.5 786 c 128,-1,8
 405 758 405 758 405 712 c 0,9,10
 405 664 405 664 374.5 636 c 128,-1,11
 344 608 344 608 299 608 c 0,0,1
299 646 m 0,12,13
 328 646 328 646 346 664 c 128,-1,14
 364 682 364 682 364 712 c 0,15,16
 364 740 364 740 346 759 c 128,-1,17
 328 778 328 778 300 778 c 0,18,19
 271 778 271 778 252.5 759 c 128,-1,20
 234 740 234 740 234 711 c 0,21,22
 234 681 234 681 252.5 663.5 c 128,-1,23
 271 646 271 646 299 646 c 0,12,13
EndSplineSet
EndChar

StartChar: ogonek
Encoding: 731 731 336
Width: 600
Flags: W
LayerCount: 2
Fore
SplineSet
320 -218 m 0,0,1
 276 -218 276 -218 252 -195.5 c 128,-1,2
 228 -173 228 -173 228 -133 c 0,3,4
 228 -90 228 -90 255 -54 c 128,-1,5
 282 -18 282 -18 324 13 c 1,6,-1
 356 0 l 1,7,8
 323 -29 323 -29 299.5 -59 c 128,-1,9
 276 -89 276 -89 276 -123 c 0,10,11
 276 -176 276 -176 331 -176 c 0,12,13
 360 -176 360 -176 376 -170 c 1,14,-1
 376 -210 l 1,15,16
 365 -213 365 -213 351 -215.5 c 128,-1,17
 337 -218 337 -218 320 -218 c 0,0,1
EndSplineSet
EndChar

StartChar: tilde
Encoding: 732 732 337
Width: 600
Flags: W
LayerCount: 2
Fore
SplineSet
129 612 m 1,0,1
 134 666 134 666 160 695.5 c 128,-1,2
 186 725 186 725 228 725 c 0,3,4
 251 725 251 725 270 715 c 128,-1,5
 289 705 289 705 306 692 c 128,-1,6
 323 679 323 679 339.5 669 c 128,-1,7
 356 659 356 659 374 659 c 0,8,9
 396 659 396 659 412 673.5 c 128,-1,10
 428 688 428 688 434 726 c 1,11,-1
 472 726 l 1,12,13
 467 672 467 672 440.5 642 c 128,-1,14
 414 612 414 612 372 612 c 0,15,16
 349 612 349 612 330 622 c 128,-1,17
 311 632 311 632 294.5 645 c 128,-1,18
 278 658 278 658 261.5 668 c 128,-1,19
 245 678 245 678 226 678 c 0,20,21
 204 678 204 678 188 664 c 128,-1,22
 172 650 172 650 167 612 c 1,23,-1
 129 612 l 1,0,1
EndSplineSet
EndChar

StartChar: hungarumlaut
Encoding: 733 733 338
Width: 600
Flags: W
LayerCount: 2
Fore
SplineSet
331 606 m 1,0,-1
 331 615 l 1,1,2
 347 634 347 634 365.5 661 c 128,-1,3
 384 688 384 688 401 716 c 128,-1,4
 418 744 418 744 429 766 c 1,5,-1
 492 766 l 1,6,-1
 492 758 l 1,7,8
 480 737 480 737 458.5 709 c 128,-1,9
 437 681 437 681 412.5 653.5 c 128,-1,10
 388 626 388 626 366 606 c 1,11,-1
 331 606 l 1,0,-1
173 606 m 1,12,-1
 173 615 l 1,13,14
 189 634 189 634 207.5 661 c 128,-1,15
 226 688 226 688 243 716 c 128,-1,16
 260 744 260 744 271 766 c 1,17,-1
 334 766 l 1,18,-1
 334 758 l 1,19,20
 322 737 322 737 300.5 709 c 128,-1,21
 279 681 279 681 254.5 653.5 c 128,-1,22
 230 626 230 626 208 606 c 1,23,-1
 173 606 l 1,12,-1
EndSplineSet
EndChar

StartChar: tonos
Encoding: 900 900 339
Width: 600
GlyphClass: 2
Flags: W
AnchorPoint: "Anchor-13" 300 760 basemark 0
AnchorPoint: "Anchor-13" 290 532 mark 0
AnchorPoint: "Anchor-8" 290 532 mark 0
AnchorPoint: "Anchor-3" 290 532 mark 0
LayerCount: 2
Fore
SplineSet
268 606 m 1,0,-1
 268 616 l 1,1,2
 276 641 276 641 284 674 c 128,-1,3
 292 707 292 707 298 741.5 c 128,-1,4
 304 776 304 776 308 806 c 1,5,-1
 368 806 l 1,6,-1
 368 796 l 1,7,8
 364 770 364 770 353.5 736 c 128,-1,9
 343 702 343 702 329.5 667.5 c 128,-1,10
 316 633 316 633 304 606 c 1,11,-1
 268 606 l 1,0,-1
EndSplineSet
EndChar

StartChar: dieresistonos
Encoding: 901 901 340
Width: 600
GlyphClass: 2
Flags: W
AnchorPoint: "Anchor-13" 301 838 basemark 0
AnchorPoint: "Anchor-13" 300 532 mark 0
AnchorPoint: "Anchor-8" 300 532 mark 0
AnchorPoint: "Anchor-3" 300 532 mark 0
LayerCount: 2
Fore
SplineSet
276 674 m 1,0,-1
 276 683 l 1,1,2
 290 715 290 715 302 759 c 128,-1,3
 314 803 314 803 322 838 c 1,4,-1
 385 838 l 1,5,-1
 385 830 l 1,6,7
 374 797 374 797 351 752.5 c 128,-1,8
 328 708 328 708 306 674 c 1,9,-1
 276 674 l 1,0,-1
196 637 m 0,10,11
 160 637 160 637 160 680 c 0,12,13
 160 722 160 722 196 722 c 256,14,15
 232 722 232 722 232 680 c 0,16,17
 232 660 232 660 223 648.5 c 128,-1,18
 214 637 214 637 196 637 c 0,10,11
404 637 m 0,19,20
 367 637 367 637 367 680 c 0,21,22
 367 722 367 722 404 722 c 0,23,24
 440 722 440 722 440 680 c 0,25,26
 440 660 440 660 430.5 648.5 c 128,-1,27
 421 637 421 637 404 637 c 0,19,20
EndSplineSet
EndChar

StartChar: Epsilontonos
Encoding: 904 904 343
Width: 600
GlyphClass: 2
Flags: W
AnchorPoint: "Anchor-3" 327 714 basechar 0
AnchorPoint: "Anchor-0" 336 0 basechar 0
LayerCount: 2
Fore
SplineSet
-30 606 m 1,0,-1
 -30 616 l 1,1,2
 -22 641 -22 641 -14 674 c 128,-1,3
 -6 707 -6 707 0 741.5 c 128,-1,4
 6 776 6 776 10 806 c 1,5,-1
 70 806 l 1,6,-1
 70 796 l 1,7,8
 66 770 66 770 55.5 736 c 128,-1,9
 45 702 45 702 31.5 667.5 c 128,-1,10
 18 633 18 633 6 606 c 1,11,-1
 -30 606 l 1,0,-1
120 0 m 1,12,-1
 120 714 l 1,13,-1
 512 714 l 1,14,-1
 512 662 l 1,15,-1
 178 662 l 1,16,-1
 178 401 l 1,17,-1
 493 401 l 1,18,-1
 493 348 l 1,19,-1
 178 348 l 1,20,-1
 178 52 l 1,21,-1
 512 52 l 1,22,-1
 512 0 l 1,23,-1
 120 0 l 1,12,-1
EndSplineSet
EndChar

StartChar: Etatonos
Encoding: 905 905 344
Width: 600
GlyphClass: 2
Flags: W
AnchorPoint: "Anchor-3" 320 714 basechar 0
AnchorPoint: "Anchor-1" 320 377 basechar 0
AnchorPoint: "Anchor-0" 320 0 basechar 0
LayerCount: 2
Fore
SplineSet
-29 606 m 1,0,-1
 -29 616 l 1,1,2
 -21 641 -21 641 -13 674 c 128,-1,3
 -5 707 -5 707 1 741.5 c 128,-1,4
 7 776 7 776 11 806 c 1,5,-1
 71 806 l 1,6,-1
 71 796 l 1,7,8
 66 770 66 770 56 736 c 128,-1,9
 46 702 46 702 33 667.5 c 128,-1,10
 20 633 20 633 7 606 c 1,11,-1
 -29 606 l 1,0,-1
118 0 m 1,12,-1
 118 714 l 1,13,-1
 176 714 l 1,14,-1
 176 400 l 1,15,-1
 460 400 l 1,16,-1
 460 714 l 1,17,-1
 518 714 l 1,18,-1
 518 0 l 1,19,-1
 460 0 l 1,20,-1
 460 348 l 1,21,-1
 176 348 l 1,22,-1
 176 0 l 1,23,-1
 118 0 l 1,12,-1
EndSplineSet
EndChar

StartChar: Upsilontonos
Encoding: 910 910 347
Width: 600
GlyphClass: 2
Flags: W
AnchorPoint: "Anchor-3" 346 714 basechar 0
AnchorPoint: "Anchor-0" 346 0 basechar 0
LayerCount: 2
Fore
SplineSet
-14 606 m 1,0,-1
 -14 616 l 1,1,2
 -6 641 -6 641 2 674 c 128,-1,3
 10 707 10 707 16 741.5 c 128,-1,4
 22 776 22 776 26 806 c 1,5,-1
 86 806 l 1,6,-1
 86 796 l 1,7,8
 82 770 82 770 71.5 736 c 128,-1,9
 61 702 61 702 47.5 667.5 c 128,-1,10
 34 633 34 633 22 606 c 1,11,-1
 -14 606 l 1,0,-1
317 0 m 1,12,-1
 317 274 l 1,13,-1
 119 714 l 1,14,-1
 182 714 l 1,15,-1
 346 330 l 1,16,-1
 507 714 l 1,17,-1
 569 714 l 1,18,-1
 373 274 l 1,19,-1
 373 0 l 1,20,-1
 317 0 l 1,12,-1
EndSplineSet
EndChar

StartChar: Gamma
Encoding: 915 915 352
Width: 600
GlyphClass: 2
Flags: W
AnchorPoint: "Anchor-3" 340 714 basechar 0
AnchorPoint: "Anchor-0" 340 0 basechar 0
LayerCount: 2
Fore
SplineSet
132 0 m 1,0,-1
 132 714 l 1,1,-1
 512 714 l 1,2,-1
 512 662 l 1,3,-1
 190 662 l 1,4,-1
 190 0 l 1,5,-1
 132 0 l 1,0,-1
EndSplineSet
EndChar

StartChar: uni0394
Encoding: 916 916 353
Width: 600
GlyphClass: 2
Flags: W
AnchorPoint: "Anchor-3" 300 714 basechar 0
AnchorPoint: "Anchor-0" 300 0 basechar 0
LayerCount: 2
Fore
SplineSet
20 0 m 1,0,-1
 20 34 l 1,1,-1
 270 714 l 1,2,-1
 328 714 l 1,3,-1
 580 33 l 1,4,-1
 580 0 l 1,5,-1
 20 0 l 1,0,-1
84 52 m 1,6,-1
 514 52 l 1,7,-1
 347 509 l 2,8,9
 333 548 333 548 319.5 585.5 c 128,-1,10
 306 623 306 623 298 649 c 1,11,12
 290 622 290 622 279 587 c 128,-1,13
 268 552 268 552 254 514 c 2,14,-1
 84 52 l 1,6,-1
EndSplineSet
EndChar

StartChar: Theta
Encoding: 920 920 357
Width: 600
GlyphClass: 2
Flags: W
AnchorPoint: "Anchor-4" 600 714 basechar 0
AnchorPoint: "Anchor-3" 300 714 basechar 0
AnchorPoint: "Anchor-2" 300 10 basechar 0
AnchorPoint: "Anchor-1" 300 357 basechar 0
AnchorPoint: "Anchor-0" 300 0 basechar 0
LayerCount: 2
Fore
SplineSet
300 -10 m 256,0,1
 212 -10 212 -10 157 38 c 128,-1,2
 102 86 102 86 76 169.5 c 128,-1,3
 50 253 50 253 50 358 c 0,4,5
 50 470 50 470 78 552.5 c 128,-1,6
 106 635 106 635 162 680 c 128,-1,7
 218 725 218 725 302 725 c 0,8,9
 387 725 387 725 442 679.5 c 128,-1,10
 497 634 497 634 523.5 552 c 128,-1,11
 550 470 550 470 550 360 c 0,12,13
 550 253 550 253 524 169.5 c 128,-1,14
 498 86 498 86 443 38 c 128,-1,15
 388 -10 388 -10 300 -10 c 256,0,1
302 42 m 0,16,17
 401 42 401 42 445.5 126.5 c 128,-1,18
 490 211 490 211 490 358 c 0,19,20
 490 508 490 508 445 590 c 128,-1,21
 400 672 400 672 302 672 c 0,22,23
 202 672 202 672 155.5 587 c 128,-1,24
 109 502 109 502 109 358 c 0,25,26
 109 212 109 212 155.5 127 c 128,-1,27
 202 42 202 42 302 42 c 0,16,17
185 336 m 1,28,-1
 185 388 l 1,29,-1
 416 388 l 1,30,-1
 416 336 l 1,31,-1
 185 336 l 1,28,-1
EndSplineSet
EndChar

StartChar: Lambda
Encoding: 923 923 360
Width: 600
GlyphClass: 2
Flags: W
AnchorPoint: "Anchor-3" 300 714 basechar 0
AnchorPoint: "Anchor-0" 300 0 basechar 0
LayerCount: 2
Fore
SplineSet
20 0 m 1,0,-1
 270 714 l 1,1,-1
 329 714 l 1,2,-1
 580 0 l 1,3,-1
 518 0 l 1,4,-1
 342 510 l 2,5,6
 330 548 330 548 318.5 583 c 128,-1,7
 307 618 307 618 298 646 c 1,8,9
 290 618 290 618 280 584.5 c 128,-1,10
 270 551 270 551 257 511 c 2,11,-1
 81 0 l 1,12,-1
 20 0 l 1,0,-1
EndSplineSet
EndChar

StartChar: Xi
Encoding: 926 926 363
Width: 600
GlyphClass: 2
Flags: W
AnchorPoint: "Anchor-3" 300 714 basechar 0
AnchorPoint: "Anchor-0" 300 0 basechar 0
LayerCount: 2
Fore
SplineSet
102 662 m 1,0,-1
 102 714 l 1,1,-1
 498 714 l 1,2,-1
 498 662 l 1,3,-1
 102 662 l 1,0,-1
132 348 m 1,4,-1
 132 400 l 1,5,-1
 468 400 l 1,6,-1
 468 348 l 1,7,-1
 132 348 l 1,4,-1
82 0 m 1,8,-1
 82 52 l 1,9,-1
 518 52 l 1,10,-1
 518 0 l 1,11,-1
 82 0 l 1,8,-1
EndSplineSet
EndChar

StartChar: Pi
Encoding: 928 928 365
Width: 600
GlyphClass: 2
Flags: W
AnchorPoint: "Anchor-3" 300 714 basechar 0
AnchorPoint: "Anchor-0" 300 0 basechar 0
LayerCount: 2
Fore
SplineSet
82 0 m 1,0,-1
 82 714 l 1,1,-1
 518 714 l 1,2,-1
 518 0 l 1,3,-1
 460 0 l 1,4,-1
 460 662 l 1,5,-1
 140 662 l 1,6,-1
 140 0 l 1,7,-1
 82 0 l 1,0,-1
EndSplineSet
EndChar

StartChar: Sigma
Encoding: 931 931 367
Width: 600
GlyphClass: 2
Flags: W
AnchorPoint: "Anchor-3" 300 714 basechar 0
AnchorPoint: "Anchor-0" 300 0 basechar 0
LayerCount: 2
Fore
SplineSet
105 0 m 1,0,-1
 105 47 l 1,1,-1
 321 372 l 1,2,-1
 111 667 l 1,3,-1
 111 714 l 1,4,-1
 471 714 l 1,5,-1
 471 661 l 1,6,-1
 231 661 l 2,7,8
 220 661 220 661 204.5 661 c 128,-1,9
 189 661 189 661 181 662 c 1,10,-1
 388 374 l 1,11,-1
 172 52 l 1,12,-1
 500 52 l 1,13,-1
 500 0 l 1,14,-1
 105 0 l 1,0,-1
EndSplineSet
EndChar

StartChar: Phi
Encoding: 934 934 370
Width: 600
GlyphClass: 2
Flags: W
AnchorPoint: "Anchor-3" 300 714 basechar 0
AnchorPoint: "Anchor-0" 300 0 basechar 0
LayerCount: 2
Fore
SplineSet
273 -10 m 1,0,-1
 273 100 l 1,1,2
 207 100 207 100 155.5 132 c 128,-1,3
 104 164 104 164 74.5 224.5 c 128,-1,4
 45 285 45 285 45 371 c 0,5,6
 45 492 45 492 105.5 563 c 128,-1,7
 166 634 166 634 273 636 c 1,8,-1
 273 724 l 1,9,-1
 327 724 l 1,10,-1
 327 636 l 1,11,12
 433 636 433 636 494 568 c 128,-1,13
 555 500 555 500 555 372 c 256,14,15
 555 244 555 244 494 173 c 128,-1,16
 433 102 433 102 327 100 c 1,17,-1
 327 -10 l 1,18,-1
 273 -10 l 1,0,-1
273 149 m 1,19,-1
 273 588 l 1,20,21
 194 586 194 586 147.5 532 c 128,-1,22
 101 478 101 478 101 371 c 0,23,24
 101 261 101 261 148.5 205.5 c 128,-1,25
 196 150 196 150 273 149 c 1,19,-1
327 149 m 1,26,27
 406 150 406 150 453 206 c 128,-1,28
 500 262 500 262 500 374 c 0,29,30
 500 484 500 484 454.5 535 c 128,-1,31
 409 586 409 586 327 588 c 1,32,-1
 327 149 l 1,26,27
EndSplineSet
EndChar

StartChar: Psi
Encoding: 936 936 372
Width: 600
GlyphClass: 2
Flags: W
AnchorPoint: "Anchor-3" 300 714 basechar 0
AnchorPoint: "Anchor-0" 300 0 basechar 0
LayerCount: 2
Fore
SplineSet
273 0 m 1,0,-1
 273 218 l 1,1,2
 154 220 154 220 99.5 281 c 128,-1,3
 45 342 45 342 45 478 c 2,4,-1
 45 714 l 1,5,-1
 100 714 l 1,6,-1
 100 483 l 2,7,8
 100 416 100 416 114 368 c 128,-1,9
 128 320 128 320 165 294.5 c 128,-1,10
 202 269 202 269 273 268 c 1,11,-1
 273 714 l 1,12,-1
 327 714 l 1,13,-1
 327 268 l 1,14,15
 390 270 390 270 428 291 c 128,-1,16
 466 312 466 312 483 358.5 c 128,-1,17
 500 405 500 405 500 482 c 2,18,-1
 500 714 l 1,19,-1
 555 714 l 1,20,-1
 555 471 l 2,21,22
 555 343 555 343 500.5 281.5 c 128,-1,23
 446 220 446 220 327 218 c 1,24,-1
 327 0 l 1,25,-1
 273 0 l 1,0,-1
EndSplineSet
EndChar

StartChar: uni03A9
Encoding: 937 937 373
Width: 600
GlyphClass: 2
Flags: W
AnchorPoint: "Anchor-3" 299 714 basechar 0
AnchorPoint: "Anchor-0" 300 0 basechar 0
LayerCount: 2
Fore
SplineSet
26 0 m 1,0,-1
 26 50 l 1,1,-1
 176 50 l 1,2,3
 124 98 124 98 88 183.5 c 128,-1,4
 52 269 52 269 52 392 c 0,5,6
 52 551 52 551 118.5 637.5 c 128,-1,7
 185 724 185 724 300 724 c 0,8,9
 417 724 417 724 482 638.5 c 128,-1,10
 547 553 547 553 547 392 c 0,11,12
 547 266 547 266 511.5 181 c 128,-1,13
 476 96 476 96 424 50 c 1,14,-1
 574 50 l 1,15,-1
 574 0 l 1,16,-1
 354 0 l 1,17,-1
 354 43 l 1,18,19
 423 98 423 98 455.5 181 c 128,-1,20
 488 264 488 264 488 380 c 0,21,22
 488 524 488 524 439 599 c 128,-1,23
 390 674 390 674 302 674 c 256,24,25
 214 674 214 674 162.5 599 c 128,-1,26
 111 524 111 524 111 382 c 0,27,28
 111 263 111 263 147 179.5 c 128,-1,29
 183 96 183 96 244 43 c 1,30,-1
 244 0 l 1,31,-1
 26 0 l 1,0,-1
EndSplineSet
EndChar

StartChar: alpha
Encoding: 945 945 381
Width: 600
GlyphClass: 2
Flags: W
AnchorPoint: "Anchor-3" 300 532 basechar 0
AnchorPoint: "Anchor-0" 289 0 basechar 0
LayerCount: 2
Fore
SplineSet
268 -10 m 0,0,1
 169 -10 169 -10 115.5 59.5 c 128,-1,2
 62 129 62 129 62 264 c 0,3,4
 62 398 62 398 118.5 470 c 128,-1,5
 175 542 175 542 276 542 c 0,6,7
 336 542 336 542 376 517.5 c 128,-1,8
 416 493 416 493 438 446 c 1,9,-1
 442 446 l 1,10,11
 444 468 444 468 450.5 490.5 c 128,-1,12
 457 513 457 513 467 532 c 1,13,-1
 514 532 l 1,14,15
 492 463 492 463 492 337 c 2,16,-1
 492 118 l 2,17,18
 492 73 492 73 504.5 55.5 c 128,-1,19
 517 38 517 38 538 38 c 0,20,21
 547 38 547 38 556.5 40 c 128,-1,22
 566 42 566 42 572 44 c 1,23,-1
 572 0 l 1,24,25
 564 -4 564 -4 551.5 -7 c 128,-1,26
 539 -10 539 -10 524 -10 c 0,27,28
 486 -10 486 -10 465 13 c 128,-1,29
 444 36 444 36 440 92 c 1,30,-1
 435 92 l 1,31,32
 416 52 416 52 376.5 21 c 128,-1,33
 337 -10 337 -10 268 -10 c 0,0,1
278 39 m 0,34,35
 360 39 360 39 398 97 c 128,-1,36
 436 155 436 155 436 260 c 2,37,-1
 436 274 l 2,38,39
 436 492 436 492 282 492 c 0,40,41
 202 492 202 492 161.5 434 c 128,-1,42
 121 376 121 376 121 266 c 0,43,44
 121 150 121 150 160.5 94.5 c 128,-1,45
 200 39 200 39 278 39 c 0,34,35
EndSplineSet
EndChar

StartChar: beta
Encoding: 946 946 382
Width: 600
GlyphClass: 2
Flags: W
AnchorPoint: "Anchor-4" 580 765 basechar 0
AnchorPoint: "Anchor-3" 310 765 basechar 0
AnchorPoint: "Anchor-0" 331 0 basechar 0
LayerCount: 2
Fore
SplineSet
92 -240 m 1,0,-1
 92 538 l 2,1,2
 92 649 92 649 150 707 c 128,-1,3
 208 765 208 765 308 765 c 0,4,5
 405 765 405 765 463.5 717.5 c 128,-1,6
 522 670 522 670 522 578 c 0,7,8
 522 508 522 508 485 462.5 c 128,-1,9
 448 417 448 417 380 405 c 1,10,-1
 380 402 l 1,11,12
 462 392 462 392 507 343 c 128,-1,13
 552 294 552 294 552 206 c 0,14,15
 552 107 552 107 489 50 c 128,-1,16
 426 -7 426 -7 318 -7 c 0,17,18
 266 -7 266 -7 225.5 6 c 128,-1,19
 185 19 185 19 150 41 c 1,20,-1
 150 -240 l 1,21,-1
 92 -240 l 1,0,-1
312 41 m 0,22,23
 403 41 403 41 448.5 85.5 c 128,-1,24
 494 130 494 130 494 209 c 0,25,26
 494 289 494 289 446.5 332 c 128,-1,27
 399 375 399 375 305 375 c 2,28,-1
 249 375 l 1,29,-1
 249 424 l 1,30,-1
 300 424 l 2,31,32
 380 424 380 424 422 463 c 128,-1,33
 464 502 464 502 464 576 c 0,34,35
 464 644 464 644 422.5 680 c 128,-1,36
 381 716 381 716 306 716 c 0,37,38
 234 716 234 716 192 672 c 128,-1,39
 150 628 150 628 150 534 c 2,40,-1
 150 93 l 1,41,42
 183 70 183 70 221.5 55.5 c 128,-1,43
 260 41 260 41 312 41 c 0,22,23
EndSplineSet
EndChar

StartChar: gamma
Encoding: 947 947 383
Width: 600
GlyphClass: 2
Flags: W
AnchorPoint: "Anchor-4" 580 532 basechar 0
AnchorPoint: "Anchor-3" 309 532 basechar 0
AnchorPoint: "Anchor-0" 307 -240 basechar 0
LayerCount: 2
Fore
SplineSet
230 -240 m 1,0,1
 230 -204 230 -204 237 -159.5 c 128,-1,2
 244 -115 244 -115 255 -70.5 c 128,-1,3
 266 -26 266 -26 278 11 c 1,4,-1
 65 532 l 1,5,-1
 124 532 l 1,6,-1
 258 198 l 2,7,8
 268 174 268 174 282 135 c 128,-1,9
 296 96 296 96 304 68 c 1,10,-1
 308 68 l 1,11,12
 314 93 314 93 326.5 129.5 c 128,-1,13
 339 166 339 166 350 196 c 2,14,-1
 475 532 l 1,15,-1
 534 532 l 1,16,-1
 344 28 l 2,17,18
 318 -40 318 -40 305 -109 c 128,-1,19
 292 -178 292 -178 291 -240 c 1,20,-1
 230 -240 l 1,0,1
EndSplineSet
EndChar

StartChar: delta
Encoding: 948 948 384
Width: 600
GlyphClass: 2
Flags: W
AnchorPoint: "Anchor-3" 337 764 basechar 0
AnchorPoint: "Anchor-0" 306 0 basechar 0
LayerCount: 2
Fore
SplineSet
300 -10 m 0,0,1
 229 -10 229 -10 175.5 16.5 c 128,-1,2
 122 43 122 43 92 92.5 c 128,-1,3
 62 142 62 142 62 212 c 0,4,5
 62 306 62 306 118.5 368 c 128,-1,6
 175 430 175 430 279 462 c 1,7,8
 218 497 218 497 183 532.5 c 128,-1,9
 148 568 148 568 148 624 c 0,10,11
 148 692 148 692 197 728 c 128,-1,12
 246 764 246 764 326 764 c 0,13,14
 376 764 376 764 423 750 c 128,-1,15
 470 736 470 736 514 714 c 1,16,-1
 489 668 l 1,17,18
 451 689 451 689 409.5 702.5 c 128,-1,19
 368 716 368 716 326 716 c 0,20,21
 263 716 263 716 234.5 690.5 c 128,-1,22
 206 665 206 665 206 625 c 0,23,24
 206 592 206 592 223 569.5 c 128,-1,25
 240 547 240 547 271 527.5 c 128,-1,26
 302 508 302 508 344 484 c 0,27,28
 401 451 401 451 444.5 417.5 c 128,-1,29
 488 384 488 384 513 338.5 c 128,-1,30
 538 293 538 293 538 225 c 0,31,32
 538 118 538 118 474.5 54 c 128,-1,33
 411 -10 411 -10 300 -10 c 0,0,1
300 39 m 0,34,35
 386 39 386 39 432 88.5 c 128,-1,36
 478 138 478 138 478 223 c 0,37,38
 478 301 478 301 439 348.5 c 128,-1,39
 400 396 400 396 326 434 c 1,40,41
 270 420 270 420 223.5 393 c 128,-1,42
 177 366 177 366 149.5 322 c 128,-1,43
 122 278 122 278 122 215 c 0,44,45
 122 132 122 132 170 85.5 c 128,-1,46
 218 39 218 39 300 39 c 0,34,35
EndSplineSet
EndChar

StartChar: epsilon
Encoding: 949 949 385
Width: 600
GlyphClass: 2
Flags: W
AnchorPoint: "Anchor-3" 312 532 basechar 0
AnchorPoint: "Anchor-0" 326 0 basechar 0
LayerCount: 2
Fore
SplineSet
326 -10 m 0,0,1
 220 -10 220 -10 168.5 33 c 128,-1,2
 117 76 117 76 117 142 c 0,3,4
 117 199 117 199 149 232 c 128,-1,5
 181 265 181 265 235 279 c 1,6,-1
 235 282 l 1,7,8
 184 297 184 297 160 327.5 c 128,-1,9
 136 358 136 358 136 402 c 0,10,11
 136 450 136 450 162 481 c 128,-1,12
 188 512 188 512 232 527 c 128,-1,13
 276 542 276 542 330 542 c 0,14,15
 387 542 387 542 425 533 c 128,-1,16
 463 524 463 524 501 508 c 1,17,-1
 480 461 l 1,18,19
 448 475 448 475 412 484 c 128,-1,20
 376 493 376 493 330 493 c 0,21,22
 191 493 191 493 191 399 c 0,23,24
 191 350 191 350 232.5 327 c 128,-1,25
 274 304 274 304 354 304 c 2,26,-1
 419 304 l 1,27,-1
 419 256 l 1,28,-1
 342 256 l 2,29,30
 260 256 260 256 217 229 c 128,-1,31
 174 202 174 202 174 144 c 0,32,33
 174 93 174 93 215 65.5 c 128,-1,34
 256 38 256 38 329 38 c 0,35,36
 383 38 383 38 424.5 48.5 c 128,-1,37
 466 59 466 59 500 74 c 1,38,-1
 500 24 l 1,39,40
 472 10 472 10 429 0 c 128,-1,41
 386 -10 386 -10 326 -10 c 0,0,1
EndSplineSet
EndChar

StartChar: zeta
Encoding: 950 950 386
Width: 600
GlyphClass: 2
Flags: W
AnchorPoint: "Anchor-3" 339 760 basechar 0
AnchorPoint: "Anchor-0" 337 -196 basechar 0
LayerCount: 2
Fore
SplineSet
400 -196 m 1,0,1
 426 -163 426 -163 442 -129.5 c 128,-1,2
 458 -96 458 -96 458 -70 c 0,3,4
 458 -48 458 -48 447.5 -33.5 c 128,-1,5
 437 -19 437 -19 409.5 -9.5 c 128,-1,6
 382 0 382 0 332 9 c 0,7,8
 232 25 232 25 183 77 c 128,-1,9
 134 129 134 129 134 224 c 0,10,11
 134 295 134 295 155.5 355 c 128,-1,12
 177 415 177 415 218 471 c 128,-1,13
 259 527 259 527 317.5 586 c 128,-1,14
 376 645 376 645 449 714 c 1,15,16
 426 712 426 712 392.5 711.5 c 128,-1,17
 359 711 359 711 319 711 c 2,18,-1
 166 711 l 1,19,-1
 166 760 l 1,20,-1
 520 760 l 1,21,-1
 520 716 l 1,22,23
 422 628 422 628 358.5 560 c 128,-1,24
 295 492 295 492 258.5 436.5 c 128,-1,25
 222 381 222 381 207.5 330.5 c 128,-1,26
 193 280 193 280 193 227 c 0,27,28
 193 170 193 170 213 136.5 c 128,-1,29
 233 103 233 103 272.5 84.5 c 128,-1,30
 312 66 312 66 370 55 c 0,31,32
 444 42 444 42 480 17.5 c 128,-1,33
 516 -7 516 -7 516 -59 c 0,34,35
 516 -96 516 -96 500 -130 c 128,-1,36
 484 -164 484 -164 458 -196 c 1,37,-1
 400 -196 l 1,0,1
EndSplineSet
EndChar

StartChar: eta
Encoding: 951 951 387
Width: 600
GlyphClass: 2
Flags: W
AnchorPoint: "Anchor-4" 580 532 basechar 0
AnchorPoint: "Anchor-3" 304 532 basechar 0
AnchorPoint: "Anchor-0" 298 -242 basechar 0
LayerCount: 2
Fore
SplineSet
92 0 m 1,0,-1
 92 532 l 1,1,-1
 140 532 l 1,2,-1
 148 437 l 1,3,-1
 151 437 l 1,4,5
 171 483 171 483 215.5 512.5 c 128,-1,6
 260 542 260 542 332 542 c 0,7,8
 414 542 414 542 463 496 c 128,-1,9
 512 450 512 450 512 356 c 2,10,-1
 512 -242 l 1,11,-1
 454 -242 l 1,12,-1
 454 344 l 2,13,14
 454 421 454 421 420 456.5 c 128,-1,15
 386 492 386 492 319 492 c 0,16,17
 150 492 150 492 150 288 c 2,18,-1
 150 0 l 1,19,-1
 92 0 l 1,0,-1
EndSplineSet
EndChar

StartChar: theta
Encoding: 952 952 388
Width: 600
GlyphClass: 2
Flags: W
AnchorPoint: "Anchor-4" 580 770 basechar 0
AnchorPoint: "Anchor-3" 301 770 basechar 0
AnchorPoint: "Anchor-0" 299 0 basechar 0
LayerCount: 2
Fore
SplineSet
298 -10 m 0,0,1
 182 -10 182 -10 125 90 c 128,-1,2
 68 190 68 190 68 384 c 0,3,4
 68 573 68 573 124.5 671.5 c 128,-1,5
 181 770 181 770 299 770 c 0,6,7
 415 770 415 770 473.5 672 c 128,-1,8
 532 574 532 574 532 386 c 0,9,10
 532 191 532 191 475 90.5 c 128,-1,11
 418 -10 418 -10 298 -10 c 0,0,1
126 416 m 1,12,-1
 472 416 l 1,13,14
 469 568 469 568 427 645 c 128,-1,15
 385 722 385 722 299 722 c 0,16,17
 132 722 132 722 126 416 c 1,12,-1
298 38 m 0,18,19
 386 38 386 38 428.5 120 c 128,-1,20
 471 202 471 202 474 366 c 1,21,-1
 125 366 l 1,22,23
 127 202 127 202 169 120 c 128,-1,24
 211 38 211 38 298 38 c 0,18,19
EndSplineSet
EndChar

StartChar: iota
Encoding: 953 953 389
Width: 600
GlyphClass: 2
Flags: W
AnchorPoint: "Anchor-3" 290 532 basechar 0
AnchorPoint: "Anchor-0" 383 0 basechar 0
LayerCount: 2
Fore
SplineSet
402 -10 m 0,0,1
 336 -10 336 -10 298 24.5 c 128,-1,2
 260 59 260 59 260 146 c 2,3,-1
 260 532 l 1,4,-1
 317 532 l 1,5,-1
 317 150 l 2,6,7
 317 92 317 92 339.5 65 c 128,-1,8
 362 38 362 38 408 38 c 0,9,10
 427 38 427 38 446 41 c 128,-1,11
 465 44 465 44 478 47 c 1,12,-1
 478 1 l 1,13,14
 465 -4 465 -4 444 -7 c 128,-1,15
 423 -10 423 -10 402 -10 c 0,0,1
EndSplineSet
EndChar

StartChar: lambda
Encoding: 955 955 391
Width: 600
GlyphClass: 2
Flags: W
AnchorPoint: "Anchor-3" 301 766 basechar 0
AnchorPoint: "Anchor-0" 299 0 basechar 0
LayerCount: 2
Fore
SplineSet
522 -9 m 0,0,1
 489 -9 489 -9 470.5 8.5 c 128,-1,2
 452 26 452 26 439 63 c 2,3,-1
 339 351 l 2,4,5
 328 381 328 381 317 413.5 c 128,-1,6
 306 446 306 446 301 470 c 1,7,-1
 298 470 l 1,8,9
 290 443 290 443 279 414 c 128,-1,10
 268 385 268 385 256 357 c 2,11,-1
 104 0 l 1,12,-1
 44 0 l 1,13,-1
 274 532 l 1,14,-1
 242 624 l 2,15,16
 226 674 226 674 205 695.5 c 128,-1,17
 184 717 184 717 146 717 c 0,18,19
 130 717 130 717 118 715 c 128,-1,20
 106 713 106 713 96 710 c 1,21,-1
 96 758 l 1,22,23
 108 761 108 761 122 763.5 c 128,-1,24
 136 766 136 766 154 766 c 0,25,26
 194 766 194 766 220 752.5 c 128,-1,27
 246 739 246 739 264 708.5 c 128,-1,28
 282 678 282 678 300 629 c 2,29,-1
 488 90 l 2,30,31
 498 62 498 62 509.5 50.5 c 128,-1,32
 521 39 521 39 536 39 c 0,33,34
 544 39 544 39 552 40.5 c 128,-1,35
 560 42 560 42 564 44 c 1,36,-1
 564 -1 l 1,37,38
 546 -9 546 -9 522 -9 c 0,0,1
EndSplineSet
EndChar

StartChar: uni03BC
Encoding: 956 956 392
Width: 600
GlyphClass: 2
Flags: W
AnchorPoint: "Anchor-4" 580 532 basechar 0
AnchorPoint: "Anchor-3" 300 532 basechar 0
AnchorPoint: "Anchor-2" 540 10 basechar 0
AnchorPoint: "Anchor-0" 300 -240 basechar 0
LayerCount: 2
Fore
SplineSet
88 -240 m 1,0,-1
 88 532 l 1,1,-1
 146 532 l 1,2,-1
 146 196 l 2,3,4
 146 116 146 116 179 77.5 c 128,-1,5
 212 39 212 39 282 39 c 0,6,7
 450 39 450 39 450 243 c 2,8,-1
 450 532 l 1,9,-1
 508 532 l 1,10,-1
 508 0 l 1,11,-1
 460 0 l 1,12,-1
 452 92 l 1,13,-1
 449 92 l 1,14,15
 426 47 426 47 383 18.5 c 128,-1,16
 340 -10 340 -10 271 -10 c 0,17,18
 191 -10 191 -10 146 28 c 1,19,-1
 146 -240 l 1,20,-1
 88 -240 l 1,0,-1
EndSplineSet
EndChar

StartChar: nu
Encoding: 957 957 393
Width: 600
GlyphClass: 2
Flags: W
AnchorPoint: "Anchor-3" 313 532 basechar 0
AnchorPoint: "Anchor-0" 317 0 basechar 0
LayerCount: 2
Fore
SplineSet
256 0 m 1,0,-1
 75 532 l 1,1,-1
 135 532 l 1,2,-1
 258 157 l 2,3,4
 265 134 265 134 275.5 103 c 128,-1,5
 286 72 286 72 291 52 c 1,6,-1
 294 52 l 1,7,8
 382 143 382 143 425 259.5 c 128,-1,9
 468 376 468 376 468 532 c 1,10,-1
 524 532 l 1,11,12
 524 422 524 422 502.5 329 c 128,-1,13
 481 236 481 236 434.5 155.5 c 128,-1,14
 388 75 388 75 314 0 c 1,15,-1
 256 0 l 1,0,-1
EndSplineSet
EndChar

StartChar: xi
Encoding: 958 958 394
Width: 600
GlyphClass: 2
Flags: W
AnchorPoint: "Anchor-3" 339 760 basechar 0
AnchorPoint: "Anchor-0" 337 -196 basechar 0
LayerCount: 2
Fore
SplineSet
386 -196 m 1,0,1
 413 -158 413 -158 427.5 -126 c 128,-1,2
 442 -94 442 -94 442 -68 c 0,3,4
 442 -43 442 -43 428.5 -29.5 c 128,-1,5
 415 -16 415 -16 386.5 -7.5 c 128,-1,6
 358 1 358 1 313 11 c 0,7,8
 283 18 283 18 249 28.5 c 128,-1,9
 215 39 215 39 185 59.5 c 128,-1,10
 155 80 155 80 136.5 114.5 c 128,-1,11
 118 149 118 149 118 204 c 0,12,13
 118 286 118 286 161 333 c 128,-1,14
 204 380 204 380 270 398 c 1,15,-1
 270 402 l 1,16,17
 214 415 214 415 182 449.5 c 128,-1,18
 150 484 150 484 150 546 c 0,19,20
 150 598 150 598 171 631.5 c 128,-1,21
 192 665 192 665 227 684.5 c 128,-1,22
 262 704 262 704 304 715 c 1,23,24
 283 714 283 714 256 712.5 c 128,-1,25
 229 711 229 711 190 711 c 2,26,-1
 149 711 l 1,27,-1
 149 760 l 1,28,-1
 480 760 l 1,29,-1
 480 714 l 1,30,-1
 450 714 l 2,31,32
 406 714 406 714 363 704.5 c 128,-1,33
 320 695 320 695 284.5 675 c 128,-1,34
 249 655 249 655 227.5 623 c 128,-1,35
 206 591 206 591 206 546 c 0,36,37
 206 424 206 424 386 424 c 2,38,-1
 460 424 l 1,39,-1
 460 378 l 1,40,-1
 384 378 l 2,41,42
 291 378 291 378 234 334.5 c 128,-1,43
 177 291 177 291 177 206 c 0,44,45
 177 152 177 152 200 124 c 128,-1,46
 223 96 223 96 262.5 82 c 128,-1,47
 302 68 302 68 353 56 c 0,48,49
 426 40 426 40 462 17 c 128,-1,50
 498 -6 498 -6 498 -58 c 0,51,52
 498 -92 498 -92 482.5 -127 c 128,-1,53
 467 -162 467 -162 443 -196 c 1,54,-1
 386 -196 l 1,0,1
EndSplineSet
EndChar

StartChar: pi
Encoding: 960 960 396
Width: 600
GlyphClass: 2
Flags: W
AnchorPoint: "Anchor-3" 306 532 basechar 0
AnchorPoint: "Anchor-0" 306 0 basechar 0
LayerCount: 2
Fore
SplineSet
492 -10 m 0,0,1
 394 -10 394 -10 394 105 c 2,2,-1
 394 484 l 1,3,-1
 206 484 l 1,4,-1
 206 0 l 1,5,-1
 150 0 l 1,6,-1
 150 484 l 1,7,-1
 42 484 l 1,8,-1
 42 512 l 1,9,-1
 121 532 l 1,10,-1
 558 532 l 1,11,-1
 558 484 l 1,12,-1
 450 484 l 1,13,-1
 450 112 l 2,14,15
 450 38 450 38 505 38 c 0,16,17
 519 38 519 38 529.5 40.5 c 128,-1,18
 540 43 540 43 547 46 c 1,19,-1
 547 -1 l 1,20,21
 539 -4 539 -4 525 -7 c 128,-1,22
 511 -10 511 -10 492 -10 c 0,0,1
EndSplineSet
EndChar

StartChar: rho
Encoding: 961 961 397
Width: 600
GlyphClass: 2
Flags: W
AnchorPoint: "Anchor-3" 316 532 basechar 0
AnchorPoint: "Anchor-0" 300 -240 basechar 0
LayerCount: 2
Fore
SplineSet
92 -240 m 1,0,-1
 92 280 l 2,1,2
 92 410 92 410 150.5 476 c 128,-1,3
 209 542 209 542 316 542 c 0,4,5
 421 542 421 542 479.5 472 c 128,-1,6
 538 402 538 402 538 267 c 0,7,8
 538 134 538 134 478 62 c 128,-1,9
 418 -10 418 -10 308 -10 c 0,10,11
 258 -10 258 -10 218 4 c 128,-1,12
 178 18 178 18 150 40 c 1,13,-1
 146 40 l 1,14,15
 148 15 148 15 149 -14 c 128,-1,16
 150 -43 150 -43 150 -80 c 2,17,-1
 150 -240 l 1,18,-1
 92 -240 l 1,0,-1
308 39 m 0,19,20
 479 39 479 39 479 267 c 0,21,22
 479 379 479 379 440 435.5 c 128,-1,23
 401 492 401 492 314 492 c 0,24,25
 229 492 229 492 189.5 437 c 128,-1,26
 150 382 150 382 150 275 c 2,27,-1
 150 94 l 1,28,29
 213 39 213 39 308 39 c 0,19,20
EndSplineSet
EndChar

StartChar: sigma1
Encoding: 962 962 398
Width: 600
GlyphClass: 2
Flags: W
AnchorPoint: "Anchor-3" 356 532 basechar 0
AnchorPoint: "Anchor-0" 344 -203 basechar 0
LayerCount: 2
Fore
SplineSet
376 -196 m 1,0,1
 402 -162 402 -162 417.5 -128.5 c 128,-1,2
 433 -95 433 -95 433 -66 c 0,3,4
 433 -30 433 -30 404 -16.5 c 128,-1,5
 375 -3 375 -3 306 12 c 256,6,7
 237 27 237 27 188.5 54.5 c 128,-1,8
 140 82 140 82 114 131.5 c 128,-1,9
 88 181 88 181 88 262 c 0,10,11
 88 398 88 398 160 470 c 128,-1,12
 232 542 232 542 357 542 c 0,13,14
 398 542 398 542 432.5 535 c 128,-1,15
 467 528 467 528 494 517 c 1,16,-1
 478 468 l 1,17,18
 451 478 451 478 420.5 484.5 c 128,-1,19
 390 491 390 491 354 491 c 0,20,21
 249 491 249 491 197.5 430.5 c 128,-1,22
 146 370 146 370 146 258 c 0,23,24
 146 192 146 192 166 154 c 128,-1,25
 186 116 186 116 230 95 c 128,-1,26
 274 74 274 74 346 57 c 0,27,28
 387 48 387 48 419 36.5 c 128,-1,29
 451 25 451 25 469.5 3.5 c 128,-1,30
 488 -18 488 -18 488 -57 c 0,31,32
 488 -97 488 -97 470.5 -132.5 c 128,-1,33
 453 -168 453 -168 432 -196 c 1,34,-1
 376 -196 l 1,0,1
EndSplineSet
EndChar

StartChar: sigma
Encoding: 963 963 399
Width: 600
GlyphClass: 2
Flags: W
AnchorPoint: "Anchor-3" 295 532 basechar 0
AnchorPoint: "Anchor-0" 295 0 basechar 0
LayerCount: 2
Fore
SplineSet
296 -10 m 0,0,1
 185 -10 185 -10 123.5 60 c 128,-1,2
 62 130 62 130 62 252 c 0,3,4
 62 392 62 392 134.5 462 c 128,-1,5
 207 532 207 532 344 532 c 2,6,-1
 568 532 l 1,7,-1
 568 483 l 1,8,-1
 442 483 l 1,9,10
 482 436 482 436 505 379.5 c 128,-1,11
 528 323 528 323 528 249 c 0,12,13
 528 172 528 172 501 114 c 128,-1,14
 474 56 474 56 422.5 23 c 128,-1,15
 371 -10 371 -10 296 -10 c 0,0,1
298 39 m 0,16,17
 385 39 385 39 427.5 96.5 c 128,-1,18
 470 154 470 154 470 248 c 0,19,20
 470 320 470 320 447 377 c 128,-1,21
 424 434 424 434 382 483 c 1,22,-1
 344 483 l 2,23,24
 230 483 230 483 175.5 425.5 c 128,-1,25
 121 368 121 368 121 252 c 0,26,27
 121 190 121 190 140 142 c 128,-1,28
 159 94 159 94 198 66.5 c 128,-1,29
 237 39 237 39 298 39 c 0,16,17
EndSplineSet
EndChar

StartChar: tau
Encoding: 964 964 400
Width: 600
GlyphClass: 2
Flags: W
AnchorPoint: "Anchor-3" 300 532 basechar 0
AnchorPoint: "Anchor-0" 342 0 basechar 0
LayerCount: 2
Fore
SplineSet
391 -10 m 0,0,1
 320 -10 320 -10 279.5 28 c 128,-1,2
 239 66 239 66 239 152 c 2,3,-1
 239 482 l 1,4,-1
 94 482 l 1,5,-1
 94 512 l 1,6,-1
 167 532 l 1,7,-1
 506 532 l 1,8,-1
 506 482 l 1,9,-1
 296 482 l 1,10,-1
 296 159 l 2,11,12
 296 96 296 96 321 66.5 c 128,-1,13
 346 37 346 37 399 37 c 0,14,15
 419 37 419 37 441.5 40.5 c 128,-1,16
 464 44 464 44 480 49 c 1,17,-1
 480 4 l 1,18,19
 465 -2 465 -2 441 -6 c 128,-1,20
 417 -10 417 -10 391 -10 c 0,0,1
EndSplineSet
EndChar

StartChar: upsilon
Encoding: 965 965 401
Width: 600
GlyphClass: 2
Flags: W
AnchorPoint: "Anchor-3" 300 532 basechar 0
AnchorPoint: "Anchor-0" 305 0 basechar 0
LayerCount: 2
Fore
SplineSet
304 -10 m 0,0,1
 190 -10 190 -10 141 56 c 128,-1,2
 92 122 92 122 92 237 c 2,3,-1
 92 532 l 1,4,-1
 150 532 l 1,5,-1
 150 240 l 2,6,7
 150 38 150 38 308 38 c 0,8,9
 474 38 474 38 474 294 c 0,10,11
 474 358 474 358 466.5 416 c 128,-1,12
 459 474 459 474 444 532 c 1,13,-1
 502 532 l 1,14,15
 517 474 517 474 524.5 417 c 128,-1,16
 532 360 532 360 532 292 c 0,17,18
 532 -10 532 -10 304 -10 c 0,0,1
EndSplineSet
EndChar

StartChar: phi
Encoding: 966 966 402
Width: 600
GlyphClass: 2
Flags: W
AnchorPoint: "Anchor-3" 296 532 basechar 0
AnchorPoint: "Anchor-0" 296 -240 basechar 0
LayerCount: 2
Fore
SplineSet
268 -240 m 1,0,-1
 268 -10 l 1,1,2
 166 -3 166 -3 114 70 c 128,-1,3
 62 143 62 143 62 266 c 0,4,5
 62 350 62 350 87 415 c 128,-1,6
 112 480 112 480 159 538 c 1,7,-1
 202 512 l 1,8,9
 158 457 158 457 139 401.5 c 128,-1,10
 120 346 120 346 120 273 c 0,11,12
 120 166 120 166 156 107 c 128,-1,13
 192 48 192 48 268 40 c 1,14,-1
 268 368 l 2,15,16
 268 452 268 452 296 497 c 128,-1,17
 324 542 324 542 383 542 c 0,18,19
 436 542 436 542 470.5 508.5 c 128,-1,20
 505 475 505 475 521.5 418.5 c 128,-1,21
 538 362 538 362 538 292 c 0,22,23
 538 162 538 162 484 80.5 c 128,-1,24
 430 -1 430 -1 326 -10 c 1,25,-1
 326 -240 l 1,26,-1
 268 -240 l 1,0,-1
324 40 m 1,27,28
 395 45 395 45 437.5 110 c 128,-1,29
 480 175 480 175 480 292 c 0,30,31
 480 380 480 380 455.5 436.5 c 128,-1,32
 431 493 431 493 386 493 c 0,33,34
 349 493 349 493 336.5 458.5 c 128,-1,35
 324 424 324 424 324 366 c 2,36,-1
 324 40 l 1,27,28
EndSplineSet
EndChar

StartChar: chi
Encoding: 967 967 403
Width: 600
GlyphClass: 2
Flags: W
AnchorPoint: "Anchor-4" 580 532 basechar 0
AnchorPoint: "Anchor-3" 294 532 basechar 0
AnchorPoint: "Anchor-0" 294 -243 basechar 0
LayerCount: 2
Fore
SplineSet
487 -243 m 0,0,1
 446 -243 446 -243 421.5 -226.5 c 128,-1,2
 397 -210 397 -210 383.5 -183.5 c 128,-1,3
 370 -157 370 -157 360 -126 c 2,4,-1
 290 108 l 1,5,-1
 130 -240 l 1,6,-1
 69 -240 l 1,7,-1
 262 165 l 1,8,-1
 184 422 l 2,9,10
 173 458 173 458 156.5 474 c 128,-1,11
 140 490 140 490 118 490 c 0,12,13
 100 490 100 490 84 484 c 1,14,-1
 84 530 l 1,15,16
 93 533 93 533 106 535.5 c 128,-1,17
 119 538 119 538 134 538 c 0,18,19
 174 538 174 538 196.5 515 c 128,-1,20
 219 492 219 492 232 445 c 2,21,-1
 302 214 l 1,22,-1
 446 532 l 1,23,-1
 507 532 l 1,24,-1
 328 159 l 1,25,-1
 410 -103 l 2,26,27
 425 -155 425 -155 444.5 -174.5 c 128,-1,28
 464 -194 464 -194 496 -194 c 0,29,30
 506 -194 506 -194 516 -193 c 128,-1,31
 526 -192 526 -192 534 -190 c 1,32,-1
 534 -236 l 1,33,34
 525 -239 525 -239 513.5 -241 c 128,-1,35
 502 -243 502 -243 487 -243 c 0,0,1
EndSplineSet
EndChar

StartChar: psi
Encoding: 968 968 404
Width: 600
GlyphClass: 2
Flags: W
AnchorPoint: "Anchor-3" 310 760 basechar 0
AnchorPoint: "Anchor-0" 310 -240 basechar 0
LayerCount: 2
Fore
SplineSet
283 -240 m 1,0,-1
 283 -7 l 1,1,2
 188 -3 188 -3 140 65.5 c 128,-1,3
 92 134 92 134 92 259 c 2,4,-1
 92 532 l 1,5,-1
 146 532 l 1,6,-1
 146 262 l 2,7,8
 146 160 146 160 178 103.5 c 128,-1,9
 210 47 210 47 283 42 c 1,10,-1
 283 760 l 1,11,-1
 336 760 l 1,12,-1
 336 42 l 1,13,14
 414 47 414 47 448 111.5 c 128,-1,15
 482 176 482 176 482 296 c 0,16,17
 482 359 482 359 474 416.5 c 128,-1,18
 466 474 466 474 450 532 c 1,19,-1
 504 532 l 1,20,21
 520 472 520 472 529 415 c 128,-1,22
 538 358 538 358 538 296 c 0,23,24
 538 156 538 156 489 77.5 c 128,-1,25
 440 -1 440 -1 336 -7 c 1,26,-1
 336 -240 l 1,27,-1
 283 -240 l 1,0,-1
EndSplineSet
EndChar

StartChar: omega
Encoding: 969 969 405
Width: 600
GlyphClass: 2
Flags: W
AnchorPoint: "Anchor-3" 300 532 basechar 0
AnchorPoint: "Anchor-0" 300 0 basechar 0
LayerCount: 2
Fore
SplineSet
199 -10 m 0,0,1
 135 -10 135 -10 98.5 57 c 128,-1,2
 62 124 62 124 62 257 c 0,3,4
 62 333 62 333 76 398.5 c 128,-1,5
 90 464 90 464 118 532 c 1,6,-1
 174 532 l 1,7,8
 144 462 144 462 131 396 c 128,-1,9
 118 330 118 330 118 258 c 0,10,11
 118 146 118 146 140 93.5 c 128,-1,12
 162 41 162 41 205 41 c 0,13,14
 274 41 274 41 274 193 c 2,15,-1
 274 343 l 1,16,-1
 326 343 l 1,17,-1
 326 193 l 2,18,19
 326 41 326 41 395 41 c 0,20,21
 439 41 439 41 460.5 96 c 128,-1,22
 482 151 482 151 482 256 c 0,23,24
 482 401 482 401 427 532 c 1,25,-1
 482 532 l 1,26,27
 509 466 509 466 523.5 399 c 128,-1,28
 538 332 538 332 538 258 c 0,29,30
 538 179 538 179 523 118.5 c 128,-1,31
 508 58 508 58 477.5 24 c 128,-1,32
 447 -10 447 -10 400 -10 c 0,33,34
 360 -10 360 -10 335.5 14.5 c 128,-1,35
 311 39 311 39 301 84 c 1,36,-1
 299 84 l 1,37,38
 289 39 289 39 264 14.5 c 128,-1,39
 239 -10 239 -10 199 -10 c 0,0,1
EndSplineSet
EndChar

StartChar: afii10051
Encoding: 1026 1026 412
Width: 600
GlyphClass: 2
Flags: W
AnchorPoint: "Anchor-3" 195 714 basechar 0
AnchorPoint: "Anchor-0" 300 0 basechar 0
LayerCount: 2
Fore
SplineSet
360 -10 m 0,0,1
 344 -10 344 -10 328 -7.5 c 128,-1,2
 312 -5 312 -5 302 -1 c 1,3,-1
 302 51 l 1,4,5
 328 41 328 41 356 41 c 0,6,7
 401 41 401 41 428.5 69.5 c 128,-1,8
 456 98 456 98 456 163 c 2,9,-1
 456 256 l 2,10,11
 456 319 456 319 424.5 349.5 c 128,-1,12
 393 380 393 380 318 380 c 2,13,-1
 188 380 l 1,14,-1
 188 0 l 1,15,-1
 131 0 l 1,16,-1
 131 663 l 1,17,-1
 0 663 l 1,18,-1
 0 714 l 1,19,-1
 388 714 l 1,20,-1
 388 663 l 1,21,-1
 188 663 l 1,22,-1
 188 431 l 1,23,-1
 326 431 l 2,24,25
 512 431 512 431 512 263 c 2,26,-1
 512 158 l 2,27,28
 512 77 512 77 472 33.5 c 128,-1,29
 432 -10 432 -10 360 -10 c 0,0,1
EndSplineSet
EndChar

StartChar: afii10053
Encoding: 1028 1028 414
Width: 600
GlyphClass: 2
Flags: W
AnchorPoint: "Anchor-3" 389 714 basechar 0
AnchorPoint: "Anchor-0" 383 0 basechar 0
LayerCount: 2
Fore
SplineSet
378 -10 m 0,0,1
 269 -10 269 -10 196 36 c 128,-1,2
 123 82 123 82 86.5 163 c 128,-1,3
 50 244 50 244 50 350 c 0,4,5
 50 462 50 462 89 546 c 128,-1,6
 128 630 128 630 204 677 c 128,-1,7
 280 724 280 724 390 724 c 0,8,9
 486 724 486 724 563 685 c 1,10,-1
 542 636 l 1,11,12
 504 656 504 656 466 664.5 c 128,-1,13
 428 673 428 673 390 673 c 0,14,15
 302 673 302 673 242 636.5 c 128,-1,16
 182 600 182 600 149 537 c 128,-1,17
 116 474 116 474 110 394 c 1,18,-1
 471 394 l 1,19,-1
 471 344 l 1,20,-1
 109 344 l 1,21,22
 111 255 111 255 140.5 186.5 c 128,-1,23
 170 118 170 118 230 79.5 c 128,-1,24
 290 41 290 41 384 41 c 0,25,26
 428 41 428 41 469 49.5 c 128,-1,27
 510 58 510 58 544 71 c 1,28,-1
 544 20 l 1,29,30
 511 6 511 6 467.5 -2 c 128,-1,31
 424 -10 424 -10 378 -10 c 0,0,1
EndSplineSet
EndChar

StartChar: afii10058
Encoding: 1033 1033 419
Width: 600
GlyphClass: 2
Flags: W
AnchorPoint: "Anchor-3" 268 714 basechar 0
AnchorPoint: "Anchor-0" 300 0 basechar 0
LayerCount: 2
Fore
SplineSet
56 -10 m 0,0,1
 42 -10 42 -10 30.5 -7.5 c 128,-1,2
 19 -5 19 -5 10 -1 c 1,3,-1
 10 48 l 1,4,5
 26 40 26 40 46 40 c 0,6,7
 80 40 80 40 97.5 76 c 128,-1,8
 115 112 115 112 124 180 c 0,9,10
 132 238 132 238 138.5 322 c 128,-1,11
 145 406 145 406 151 506 c 128,-1,12
 157 606 157 606 162 714 c 1,13,-1
 369 714 l 1,14,-1
 369 402 l 1,15,-1
 414 402 l 2,16,17
 503 402 503 402 545.5 353 c 128,-1,18
 588 304 588 304 588 206 c 0,19,20
 588 107 588 107 546 53.5 c 128,-1,21
 504 0 504 0 420 0 c 2,22,-1
 315 0 l 1,23,-1
 315 662 l 1,24,-1
 210 662 l 1,25,26
 207 599 207 599 203 530 c 128,-1,27
 199 461 199 461 194.5 393.5 c 128,-1,28
 190 326 190 326 184.5 267 c 128,-1,29
 179 208 179 208 173 164 c 0,30,31
 162 82 162 82 135.5 36 c 128,-1,32
 109 -10 109 -10 56 -10 c 0,0,1
369 50 m 1,33,-1
 418 50 l 2,34,35
 477 50 477 50 504.5 89 c 128,-1,36
 532 128 532 128 532 205 c 0,37,38
 532 284 532 284 503.5 318 c 128,-1,39
 475 352 475 352 412 352 c 2,40,-1
 369 352 l 1,41,-1
 369 50 l 1,33,-1
EndSplineSet
EndChar

StartChar: afii10059
Encoding: 1034 1034 420
Width: 600
GlyphClass: 2
Flags: W
AnchorPoint: "Anchor-3" 204 714 basechar 0
AnchorPoint: "Anchor-0" 300 0 basechar 0
LayerCount: 2
Fore
SplineSet
55 0 m 1,0,-1
 55 714 l 1,1,-1
 111 714 l 1,2,-1
 111 403 l 1,3,-1
 296 403 l 1,4,-1
 296 714 l 1,5,-1
 352 714 l 1,6,-1
 352 402 l 1,7,-1
 410 402 l 2,8,9
 588 402 588 402 588 206 c 0,10,11
 588 107 588 107 544 53.5 c 128,-1,12
 500 0 500 0 416 0 c 2,13,-1
 296 0 l 1,14,-1
 296 352 l 1,15,-1
 111 352 l 1,16,-1
 111 0 l 1,17,-1
 55 0 l 1,0,-1
352 50 m 1,18,-1
 411 50 l 2,19,20
 530 50 530 50 530 205 c 0,21,22
 530 284 530 284 499 318 c 128,-1,23
 468 352 468 352 405 352 c 2,24,-1
 352 352 l 1,25,-1
 352 50 l 1,18,-1
EndSplineSet
EndChar

StartChar: afii10060
Encoding: 1035 1035 421
Width: 600
GlyphClass: 2
Flags: W
AnchorPoint: "Anchor-3" 204 714 basechar 0
AnchorPoint: "Anchor-0" 322 0 basechar 0
LayerCount: 2
Fore
SplineSet
130 0 m 1,0,-1
 130 662 l 1,1,-1
 0 662 l 1,2,-1
 0 714 l 1,3,-1
 396 714 l 1,4,-1
 396 662 l 1,5,-1
 188 662 l 1,6,-1
 188 431 l 1,7,-1
 336 431 l 2,8,9
 424 431 424 431 468 390 c 128,-1,10
 512 349 512 349 512 262 c 2,11,-1
 512 0 l 1,12,-1
 456 0 l 1,13,-1
 456 257 l 2,14,15
 456 321 456 321 426.5 350.5 c 128,-1,16
 397 380 397 380 329 380 c 2,17,-1
 188 380 l 1,18,-1
 188 0 l 1,19,-1
 130 0 l 1,0,-1
EndSplineSet
EndChar

StartChar: afii10145
Encoding: 1039 1039 424
Width: 600
GlyphClass: 2
Flags: W
AnchorPoint: "Anchor-3" 300 714 basechar 0
AnchorPoint: "Anchor-0" 300 -183 basechar 0
LayerCount: 2
Fore
SplineSet
272 -183 m 1,0,-1
 272 0 l 1,1,-1
 82 0 l 1,2,-1
 82 714 l 1,3,-1
 139 714 l 1,4,-1
 139 51 l 1,5,-1
 462 51 l 1,6,-1
 462 714 l 1,7,-1
 518 714 l 1,8,-1
 518 0 l 1,9,-1
 328 0 l 1,10,-1
 328 -183 l 1,11,-1
 272 -183 l 1,0,-1
EndSplineSet
EndChar

StartChar: afii10018
Encoding: 1041 1041 426
Width: 600
GlyphClass: 2
Flags: W
AnchorPoint: "Anchor-3" 300 714 basechar 0
AnchorPoint: "Anchor-0" 300 0 basechar 0
LayerCount: 2
Fore
SplineSet
105 0 m 1,0,-1
 105 714 l 1,1,-1
 510 714 l 1,2,-1
 510 663 l 1,3,-1
 162 663 l 1,4,-1
 162 404 l 1,5,-1
 306 404 l 2,6,7
 426 404 426 404 484 357 c 128,-1,8
 542 310 542 310 542 206 c 0,9,10
 542 106 542 106 485 53 c 128,-1,11
 428 0 428 0 316 0 c 2,12,-1
 105 0 l 1,0,-1
162 50 m 1,13,-1
 310 50 l 2,14,15
 400 50 400 50 442 88 c 128,-1,16
 484 126 484 126 484 206 c 0,17,18
 484 290 484 290 438 321.5 c 128,-1,19
 392 353 392 353 302 353 c 2,20,-1
 162 353 l 1,21,-1
 162 50 l 1,13,-1
EndSplineSet
EndChar

StartChar: afii10021
Encoding: 1044 1044 429
Width: 600
GlyphClass: 2
Flags: W
AnchorPoint: "Anchor-3" 370 714 basechar 0
AnchorPoint: "Anchor-0" 300 -183 basechar 0
LayerCount: 2
Fore
SplineSet
25 -183 m 1,0,-1
 25 51 l 1,1,-1
 74 51 l 1,2,3
 120 142 120 142 156.5 254.5 c 128,-1,4
 193 367 193 367 215.5 485.5 c 128,-1,5
 238 604 238 604 241 714 c 1,6,-1
 491 714 l 1,7,-1
 491 51 l 1,8,-1
 565 51 l 1,9,-1
 565 -183 l 1,10,-1
 510 -183 l 1,11,-1
 510 0 l 1,12,-1
 79 0 l 1,13,-1
 79 -183 l 1,14,-1
 25 -183 l 1,0,-1
135 51 m 1,15,-1
 435 51 l 1,16,-1
 435 662 l 1,17,-1
 293 662 l 1,18,19
 289 588 289 588 275.5 507 c 128,-1,20
 262 426 262 426 241 344.5 c 128,-1,21
 220 263 220 263 193 188 c 128,-1,22
 166 113 166 113 135 51 c 1,15,-1
EndSplineSet
EndChar

StartChar: afii10024
Encoding: 1046 1046 431
Width: 600
GlyphClass: 2
Flags: W
AnchorPoint: "Anchor-3" 300 714 basechar 0
AnchorPoint: "Anchor-0" 300 0 basechar 0
LayerCount: 2
Fore
SplineSet
19 0 m 1,0,-1
 217 367 l 1,1,-1
 27 714 l 1,2,-1
 88 714 l 1,3,-1
 274 368 l 1,4,-1
 274 714 l 1,5,-1
 328 714 l 1,6,-1
 328 368 l 1,7,-1
 516 714 l 1,8,-1
 578 714 l 1,9,-1
 384 367 l 1,10,-1
 586 0 l 1,11,-1
 524 0 l 1,12,-1
 328 362 l 1,13,-1
 328 0 l 1,14,-1
 274 0 l 1,15,-1
 274 362 l 1,16,-1
 81 0 l 1,17,-1
 19 0 l 1,0,-1
EndSplineSet
EndChar

StartChar: afii10025
Encoding: 1047 1047 432
Width: 600
GlyphClass: 2
Flags: W
AnchorPoint: "Anchor-3" 300 714 basechar 0
AnchorPoint: "Anchor-0" 300 0 basechar 0
LayerCount: 2
Fore
SplineSet
274 -10 m 0,0,1
 209 -10 209 -10 159.5 1.5 c 128,-1,2
 110 13 110 13 74 32 c 1,3,-1
 74 88 l 1,4,5
 110 68 110 68 161 54 c 128,-1,6
 212 40 212 40 272 40 c 0,7,8
 372 40 372 40 423 80 c 128,-1,9
 474 120 474 120 474 197 c 256,10,11
 474 274 474 274 419.5 310 c 128,-1,12
 365 346 365 346 254 346 c 2,13,-1
 148 346 l 1,14,-1
 148 396 l 1,15,-1
 258 396 l 2,16,17
 362 396 362 396 411 433.5 c 128,-1,18
 460 471 460 471 460 539 c 0,19,20
 460 604 460 604 418 639 c 128,-1,21
 376 674 376 674 298 674 c 0,22,23
 230 674 230 674 188 654 c 128,-1,24
 146 634 146 634 112 611 c 1,25,-1
 84 653 l 1,26,27
 123 680 123 680 174 702 c 128,-1,28
 225 724 225 724 301 724 c 0,29,30
 408 724 408 724 463 675 c 128,-1,31
 518 626 518 626 518 544 c 0,32,33
 518 472 518 472 478 430 c 128,-1,34
 438 388 438 388 366 374 c 1,35,-1
 366 371 l 1,36,37
 532 346 532 346 532 197 c 0,38,39
 532 102 532 102 467.5 46 c 128,-1,40
 403 -10 403 -10 274 -10 c 0,0,1
EndSplineSet
EndChar

StartChar: afii10026
Encoding: 1048 1048 433
Width: 600
GlyphClass: 2
Flags: W
AnchorPoint: "Anchor-3" 300 714 basechar 0
AnchorPoint: "Anchor-0" 280 0 basechar 0
LayerCount: 2
Fore
SplineSet
82 0 m 1,0,-1
 82 714 l 1,1,-1
 137 714 l 1,2,-1
 137 223 l 2,3,4
 137 160 137 160 134 94 c 1,5,-1
 136 94 l 1,6,-1
 456 714 l 1,7,-1
 518 714 l 1,8,-1
 518 0 l 1,9,-1
 463 0 l 1,10,-1
 463 487 l 2,11,12
 463 524 463 524 464.5 558.5 c 128,-1,13
 466 593 466 593 467 622 c 1,14,-1
 464 622 l 1,15,-1
 144 0 l 1,16,-1
 82 0 l 1,0,-1
EndSplineSet
EndChar

StartChar: afii10028
Encoding: 1050 1050 435
Width: 600
GlyphClass: 2
Flags: W
AnchorPoint: "Anchor-3" 300 714 basechar 0
AnchorPoint: "Anchor-0" 309 0 basechar 0
LayerCount: 2
Fore
SplineSet
82 0 m 1,0,-1
 82 714 l 1,1,-1
 139 714 l 1,2,-1
 139 369 l 1,3,-1
 466 714 l 1,4,-1
 534 714 l 1,5,-1
 204 368 l 1,6,-1
 545 0 l 1,7,-1
 476 0 l 1,8,-1
 139 365 l 1,9,-1
 139 0 l 1,10,-1
 82 0 l 1,0,-1
EndSplineSet
EndChar

StartChar: afii10029
Encoding: 1051 1051 436
Width: 600
GlyphClass: 2
Flags: W
AnchorPoint: "Anchor-3" 380 714 basechar 0
AnchorPoint: "Anchor-0" 300 0 basechar 0
LayerCount: 2
Fore
SplineSet
63 -10 m 0,0,1
 29 -10 29 -10 9 0 c 1,2,-1
 9 50 l 1,3,4
 19 46 19 46 31 43 c 128,-1,5
 43 40 43 40 57 40 c 0,6,7
 103 40 103 40 124 91.5 c 128,-1,8
 145 143 145 143 159 230 c 0,9,10
 171 298 171 298 182.5 381 c 128,-1,11
 194 464 194 464 204 550 c 128,-1,12
 214 636 214 636 221 714 c 1,13,-1
 518 714 l 1,14,-1
 518 0 l 1,15,-1
 461 0 l 1,16,-1
 461 662 l 1,17,-1
 270 662 l 1,18,19
 264 593 264 593 254.5 512.5 c 128,-1,20
 245 432 245 432 234.5 353.5 c 128,-1,21
 224 275 224 275 212 212 c 0,22,23
 200 144 200 144 183.5 94 c 128,-1,24
 167 44 167 44 138.5 17 c 128,-1,25
 110 -10 110 -10 63 -10 c 0,0,1
EndSplineSet
EndChar

StartChar: afii10033
Encoding: 1055 1055 440
Width: 600
GlyphClass: 2
Flags: W
AnchorPoint: "Anchor-3" 300 714 basechar 0
AnchorPoint: "Anchor-0" 300 0 basechar 0
LayerCount: 2
Fore
SplineSet
82 0 m 1,0,-1
 82 714 l 1,1,-1
 518 714 l 1,2,-1
 518 0 l 1,3,-1
 462 0 l 1,4,-1
 462 663 l 1,5,-1
 139 663 l 1,6,-1
 139 0 l 1,7,-1
 82 0 l 1,0,-1
EndSplineSet
EndChar

StartChar: afii10037
Encoding: 1059 1059 444
Width: 600
GlyphClass: 2
Flags: W
AnchorPoint: "Anchor-3" 300 714 basechar 0
AnchorPoint: "Anchor-0" 200 0 basechar 0
LayerCount: 2
Fore
SplineSet
149 -10 m 0,0,1
 121 -10 121 -10 103 -6 c 128,-1,2
 85 -2 85 -2 70 4 c 1,3,-1
 70 59 l 1,4,5
 104 42 104 42 145 42 c 0,6,7
 198 42 198 42 227.5 77.5 c 128,-1,8
 257 113 257 113 284 187 c 1,9,-1
 42 714 l 1,10,-1
 104 714 l 1,11,-1
 286 312 l 2,12,13
 301 278 301 278 314 242 c 1,14,-1
 317 242 l 1,15,16
 322 258 322 258 328 275.5 c 128,-1,17
 334 293 334 293 340 308 c 2,18,-1
 497 714 l 1,19,-1
 558 714 l 1,20,-1
 342 171 l 2,21,22
 319 113 319 113 293.5 72.5 c 128,-1,23
 268 32 268 32 234 11 c 128,-1,24
 200 -10 200 -10 149 -10 c 0,0,1
EndSplineSet
EndChar

StartChar: afii10038
Encoding: 1060 1060 445
Width: 600
GlyphClass: 2
Flags: W
AnchorPoint: "Anchor-3" 300 714 basechar 0
AnchorPoint: "Anchor-0" 300 0 basechar 0
LayerCount: 2
Fore
SplineSet
272 -10 m 1,0,-1
 272 100 l 1,1,2
 199 101 199 101 147 135 c 128,-1,3
 95 169 95 169 67.5 229.5 c 128,-1,4
 40 290 40 290 40 372 c 0,5,6
 40 490 40 490 100 562 c 128,-1,7
 160 634 160 634 272 636 c 1,8,-1
 272 724 l 1,9,-1
 328 724 l 1,10,-1
 328 636 l 1,11,12
 440 634 440 634 500 565.5 c 128,-1,13
 560 497 560 497 560 374 c 256,14,15
 560 251 560 251 500 176.5 c 128,-1,16
 440 102 440 102 328 100 c 1,17,-1
 328 -10 l 1,18,-1
 272 -10 l 1,0,-1
272 150 m 1,19,-1
 272 587 l 1,20,21
 189 586 189 586 143 531 c 128,-1,22
 97 476 97 476 97 372 c 0,23,24
 97 262 97 262 144.5 207 c 128,-1,25
 192 152 192 152 272 150 c 1,19,-1
328 150 m 1,26,27
 409 152 409 152 455.5 208 c 128,-1,28
 502 264 502 264 502 374 c 0,29,30
 502 480 502 480 458 533 c 128,-1,31
 414 586 414 586 328 587 c 1,32,-1
 328 150 l 1,26,27
EndSplineSet
EndChar

StartChar: afii10040
Encoding: 1062 1062 447
Width: 600
GlyphClass: 2
Flags: W
AnchorPoint: "Anchor-3" 300 714 basechar 0
AnchorPoint: "Anchor-0" 300 -186 basechar 0
LayerCount: 2
Fore
SplineSet
82 0 m 1,0,-1
 82 714 l 1,1,-1
 139 714 l 1,2,-1
 139 51 l 1,3,-1
 462 51 l 1,4,-1
 462 714 l 1,5,-1
 518 714 l 1,6,-1
 518 51 l 1,7,-1
 600 51 l 1,8,-1
 600 -182 l 1,9,-1
 545 -182 l 1,10,-1
 545 0 l 1,11,-1
 82 0 l 1,0,-1
EndSplineSet
EndChar

StartChar: afii10041
Encoding: 1063 1063 448
Width: 600
GlyphClass: 2
Flags: W
AnchorPoint: "Anchor-3" 300 714 basechar 0
AnchorPoint: "Anchor-0" 300 0 basechar 0
LayerCount: 2
Fore
SplineSet
461 0 m 1,0,-1
 461 306 l 1,1,2
 413 284 413 284 365.5 271 c 128,-1,3
 318 258 318 258 266 258 c 0,4,5
 172 258 172 258 127 303.5 c 128,-1,6
 82 349 82 349 82 436 c 2,7,-1
 82 714 l 1,8,-1
 139 714 l 1,9,-1
 139 446 l 2,10,11
 139 377 139 377 169.5 343 c 128,-1,12
 200 309 200 309 277 309 c 0,13,14
 324 309 324 309 369 321 c 128,-1,15
 414 333 414 333 461 354 c 1,16,-1
 461 714 l 1,17,-1
 518 714 l 1,18,-1
 518 0 l 1,19,-1
 461 0 l 1,0,-1
EndSplineSet
EndChar

StartChar: afii10042
Encoding: 1064 1064 449
Width: 600
GlyphClass: 2
Flags: W
AnchorPoint: "Anchor-3" 300 714 basechar 0
AnchorPoint: "Anchor-0" 300 0 basechar 0
LayerCount: 2
Fore
SplineSet
55 0 m 1,0,-1
 55 714 l 1,1,-1
 109 714 l 1,2,-1
 109 51 l 1,3,-1
 272 51 l 1,4,-1
 272 714 l 1,5,-1
 327 714 l 1,6,-1
 327 51 l 1,7,-1
 490 51 l 1,8,-1
 490 714 l 1,9,-1
 545 714 l 1,10,-1
 545 0 l 1,11,-1
 55 0 l 1,0,-1
EndSplineSet
EndChar

StartChar: afii10043
Encoding: 1065 1065 450
Width: 600
GlyphClass: 2
Flags: W
AnchorPoint: "Anchor-3" 300 714 basechar 0
AnchorPoint: "Anchor-0" 300 -182 basechar 0
LayerCount: 2
Fore
SplineSet
55 0 m 1,0,-1
 55 714 l 1,1,-1
 109 714 l 1,2,-1
 109 51 l 1,3,-1
 272 51 l 1,4,-1
 272 714 l 1,5,-1
 327 714 l 1,6,-1
 327 51 l 1,7,-1
 490 51 l 1,8,-1
 490 714 l 1,9,-1
 545 714 l 1,10,-1
 545 51 l 1,11,-1
 600 51 l 1,12,-1
 600 -182 l 1,13,-1
 545 -182 l 1,14,-1
 545 0 l 1,15,-1
 55 0 l 1,0,-1
EndSplineSet
EndChar

StartChar: afii10044
Encoding: 1066 1066 451
Width: 600
GlyphClass: 2
Flags: W
AnchorPoint: "Anchor-3" 300 714 basechar 0
AnchorPoint: "Anchor-0" 300 0 basechar 0
LayerCount: 2
Fore
SplineSet
125 0 m 1,0,-1
 125 662 l 1,1,-1
 0 662 l 1,2,-1
 0 714 l 1,3,-1
 182 714 l 1,4,-1
 182 404 l 1,5,-1
 319 404 l 2,6,7
 435 404 435 404 494.5 356 c 128,-1,8
 554 308 554 308 554 206 c 0,9,10
 554 107 554 107 496 53.5 c 128,-1,11
 438 0 438 0 328 0 c 2,12,-1
 125 0 l 1,0,-1
182 50 m 1,13,-1
 322 50 l 2,14,15
 409 50 409 50 452.5 88 c 128,-1,16
 496 126 496 126 496 206 c 0,17,18
 496 290 496 290 448.5 321.5 c 128,-1,19
 401 353 401 353 314 353 c 2,20,-1
 182 353 l 1,21,-1
 182 50 l 1,13,-1
EndSplineSet
EndChar

StartChar: afii10045
Encoding: 1067 1067 452
Width: 600
GlyphClass: 2
Flags: W
AnchorPoint: "Anchor-3" 300 714 basechar 0
AnchorPoint: "Anchor-0" 300 0 basechar 0
LayerCount: 2
Fore
SplineSet
55 0 m 1,0,-1
 55 714 l 1,1,-1
 111 714 l 1,2,-1
 111 404 l 1,3,-1
 193 404 l 2,4,5
 299 404 299 404 353 356 c 128,-1,6
 407 308 407 308 407 206 c 0,7,8
 407 107 407 107 354.5 53.5 c 128,-1,9
 302 0 302 0 202 0 c 2,10,-1
 55 0 l 1,0,-1
488 0 m 1,11,-1
 488 714 l 1,12,-1
 545 714 l 1,13,-1
 545 0 l 1,14,-1
 488 0 l 1,11,-1
111 50 m 1,15,-1
 196 50 l 2,16,17
 273 50 273 50 311 88 c 128,-1,18
 349 126 349 126 349 206 c 0,19,20
 349 290 349 290 307 321.5 c 128,-1,21
 265 353 265 353 188 353 c 2,22,-1
 111 353 l 1,23,-1
 111 50 l 1,15,-1
EndSplineSet
EndChar

StartChar: afii10046
Encoding: 1068 1068 453
Width: 600
GlyphClass: 2
Flags: W
AnchorPoint: "Anchor-3" 300 714 basechar 0
AnchorPoint: "Anchor-0" 300 0 basechar 0
LayerCount: 2
Fore
SplineSet
105 0 m 1,0,-1
 105 714 l 1,1,-1
 162 714 l 1,2,-1
 162 404 l 1,3,-1
 299 404 l 2,4,5
 415 404 415 404 474.5 356 c 128,-1,6
 534 308 534 308 534 206 c 0,7,8
 534 107 534 107 476 53.5 c 128,-1,9
 418 0 418 0 308 0 c 2,10,-1
 105 0 l 1,0,-1
162 50 m 1,11,-1
 302 50 l 2,12,13
 389 50 389 50 432.5 88 c 128,-1,14
 476 126 476 126 476 206 c 0,15,16
 476 290 476 290 428.5 321.5 c 128,-1,17
 381 353 381 353 294 353 c 2,18,-1
 162 353 l 1,19,-1
 162 50 l 1,11,-1
EndSplineSet
EndChar

StartChar: afii10048
Encoding: 1070 1070 455
Width: 600
GlyphClass: 2
Flags: W
AnchorPoint: "Anchor-3" 300 714 basechar 0
AnchorPoint: "Anchor-0" 300 0 basechar 0
LayerCount: 2
Fore
SplineSet
72 0 m 1,0,-1
 72 714 l 1,1,-1
 128 714 l 1,2,-1
 128 400 l 1,3,-1
 226 400 l 1,4,5
 230 553 230 553 268 639 c 128,-1,6
 306 725 306 725 390 725 c 0,7,8
 451 725 451 725 486 682 c 128,-1,9
 521 639 521 639 535.5 558 c 128,-1,10
 550 477 550 477 550 362 c 0,11,12
 550 251 550 251 535.5 167.5 c 128,-1,13
 521 84 521 84 485.5 37 c 128,-1,14
 450 -10 450 -10 388 -10 c 0,15,16
 328 -10 328 -10 293 34.5 c 128,-1,17
 258 79 258 79 242.5 159.5 c 128,-1,18
 227 240 227 240 226 348 c 1,19,-1
 128 348 l 1,20,-1
 128 0 l 1,21,-1
 72 0 l 1,0,-1
388 41 m 256,22,23
 445 41 445 41 468.5 125.5 c 128,-1,24
 492 210 492 210 492 359 c 0,25,26
 492 512 492 512 469.5 593 c 128,-1,27
 447 674 447 674 390 674 c 0,28,29
 334 674 334 674 308.5 590.5 c 128,-1,30
 283 507 283 507 283 360 c 0,31,32
 283 208 283 208 307 124.5 c 128,-1,33
 331 41 331 41 388 41 c 256,22,23
EndSplineSet
EndChar

StartChar: afii10066
Encoding: 1073 1073 458
Width: 600
GlyphClass: 2
Flags: W
AnchorPoint: "Anchor-3" 300 764 basechar 0
AnchorPoint: "Anchor-0" 300 0 basechar 0
LayerCount: 2
Fore
SplineSet
304 -10 m 0,0,1
 220 -10 220 -10 166.5 32 c 128,-1,2
 113 74 113 74 87.5 150.5 c 128,-1,3
 62 227 62 227 62 330 c 0,4,5
 62 472 62 472 101.5 560 c 128,-1,6
 141 648 141 648 227 688 c 1,7,8
 266 716 266 716 338 735 c 128,-1,9
 410 754 410 754 501 764 c 1,10,-1
 508 714 l 1,11,12
 418 704 418 704 352 688 c 128,-1,13
 286 672 286 672 248 646 c 1,14,15
 129 584 129 584 120 388 c 1,16,-1
 123 388 l 1,17,18
 151 436 151 436 204 465.5 c 128,-1,19
 257 495 257 495 327 495 c 0,20,21
 428 495 428 495 483 432 c 128,-1,22
 538 369 538 369 538 252 c 0,23,24
 538 134 538 134 479 62 c 128,-1,25
 420 -10 420 -10 304 -10 c 0,0,1
307 38 m 0,26,27
 395 38 395 38 437.5 94.5 c 128,-1,28
 480 151 480 151 480 249 c 0,29,30
 480 447 480 447 318 447 c 0,31,32
 249 447 249 447 197 411.5 c 128,-1,33
 145 376 145 376 119 324 c 1,34,35
 120 246 120 246 136.5 181 c 128,-1,36
 153 116 153 116 194 77 c 128,-1,37
 235 38 235 38 307 38 c 0,26,27
EndSplineSet
Substitution2: "'locl' Localized Forms in Cyrillic lookup 19 subtable" afii10066.loclSRB
Substitution2: "'aalt' Access All Alternates lookup 0 subtable" afii10066.loclSRB
EndChar

StartChar: afii10067
Encoding: 1074 1074 459
Width: 600
GlyphClass: 2
Flags: W
AnchorPoint: "Anchor-3" 300 532 basechar 0
AnchorPoint: "Anchor-0" 300 0 basechar 0
LayerCount: 2
Fore
SplineSet
137 0 m 1,0,-1
 137 532 l 1,1,-1
 328 532 l 2,2,3
 413 532 413 532 455.5 498.5 c 128,-1,4
 498 465 498 465 498 402 c 0,5,6
 498 352 498 352 473.5 323 c 128,-1,7
 449 294 449 294 408 284 c 1,8,-1
 408 281 l 1,9,10
 458 273 458 273 487.5 241 c 128,-1,11
 517 209 517 209 517 152 c 0,12,13
 517 82 517 82 472 41 c 128,-1,14
 427 0 427 0 334 0 c 2,15,-1
 137 0 l 1,0,-1
192 304 m 1,16,-1
 322 304 l 2,17,18
 384 304 384 304 413 327.5 c 128,-1,19
 442 351 442 351 442 398 c 0,20,21
 442 438 442 438 414.5 462 c 128,-1,22
 387 486 387 486 323 486 c 2,23,-1
 192 486 l 1,24,-1
 192 304 l 1,16,-1
192 46 m 1,25,-1
 326 46 l 2,26,27
 460 46 460 46 460 154 c 0,28,29
 460 209 460 209 426 233 c 128,-1,30
 392 257 392 257 324 257 c 2,31,-1
 192 257 l 1,32,-1
 192 46 l 1,25,-1
EndSplineSet
EndChar

StartChar: afii10068
Encoding: 1075 1075 460
Width: 600
GlyphClass: 2
Flags: W
AnchorPoint: "Anchor-3" 326 532 basechar 0
AnchorPoint: "Anchor-0" 300 0 basechar 0
LayerCount: 2
Fore
SplineSet
182 0 m 1,0,-1
 182 532 l 1,1,-1
 492 532 l 1,2,-1
 492 484 l 1,3,-1
 238 484 l 1,4,-1
 238 0 l 1,5,-1
 182 0 l 1,0,-1
EndSplineSet
EndChar

StartChar: afii10069
Encoding: 1076 1076 461
Width: 600
GlyphClass: 2
Flags: W
AnchorPoint: "Anchor-3" 346 532 basechar 0
AnchorPoint: "Anchor-0" 302 -182 basechar 0
LayerCount: 2
Fore
SplineSet
60 -182 m 1,0,-1
 60 49 l 1,1,-1
 97 49 l 1,2,3
 158 143 158 143 189 267.5 c 128,-1,4
 220 392 220 392 222 532 c 1,5,-1
 472 532 l 1,6,-1
 472 49 l 1,7,-1
 540 49 l 1,8,-1
 540 -182 l 1,9,-1
 486 -182 l 1,10,-1
 486 0 l 1,11,-1
 114 0 l 1,12,-1
 114 -182 l 1,13,-1
 60 -182 l 1,0,-1
156 49 m 1,14,-1
 418 49 l 1,15,-1
 418 485 l 1,16,-1
 272 485 l 1,17,18
 266 361 266 361 238 250 c 128,-1,19
 210 139 210 139 156 49 c 1,14,-1
EndSplineSet
EndChar

StartChar: afii10072
Encoding: 1078 1078 463
Width: 600
GlyphClass: 2
Flags: W
AnchorPoint: "Anchor-3" 300 532 basechar 0
AnchorPoint: "Anchor-0" 300 0 basechar 0
LayerCount: 2
Fore
SplineSet
16 0 m 1,0,-1
 218 276 l 1,1,-1
 31 532 l 1,2,-1
 92 532 l 1,3,-1
 273 276 l 1,4,-1
 273 532 l 1,5,-1
 326 532 l 1,6,-1
 326 276 l 1,7,-1
 508 532 l 1,8,-1
 568 532 l 1,9,-1
 382 276 l 1,10,-1
 584 0 l 1,11,-1
 520 0 l 1,12,-1
 326 272 l 1,13,-1
 326 0 l 1,14,-1
 273 0 l 1,15,-1
 273 272 l 1,16,-1
 79 0 l 1,17,-1
 16 0 l 1,0,-1
EndSplineSet
EndChar

StartChar: afii10073
Encoding: 1079 1079 464
Width: 600
GlyphClass: 2
Flags: W
AnchorPoint: "Anchor-3" 312 532 basechar 0
AnchorPoint: "Anchor-0" 312 0 basechar 0
LayerCount: 2
Fore
SplineSet
272 -10 m 0,0,1
 209 -10 209 -10 160 2 c 128,-1,2
 111 14 111 14 80 29 c 1,3,-1
 80 82 l 1,4,5
 118 64 118 64 166 51 c 128,-1,6
 214 38 214 38 274 38 c 0,7,8
 356 38 356 38 402.5 67 c 128,-1,9
 449 96 449 96 449 153 c 0,10,11
 449 207 449 207 403.5 232.5 c 128,-1,12
 358 258 358 258 264 258 c 2,13,-1
 183 258 l 1,14,-1
 183 304 l 1,15,-1
 260 304 l 2,16,17
 340 304 340 304 384 328 c 128,-1,18
 428 352 428 352 428 402 c 0,19,20
 428 494 428 494 286 494 c 0,21,22
 232 494 232 494 192 483.5 c 128,-1,23
 152 473 152 473 118 457 c 1,24,-1
 96 501 l 1,25,26
 134 518 134 518 181 530 c 128,-1,27
 228 542 228 542 288 542 c 0,28,29
 386 542 386 542 435 506 c 128,-1,30
 484 470 484 470 484 406 c 0,31,32
 484 314 484 314 376 286 c 1,33,-1
 376 283 l 1,34,35
 438 271 438 271 472 237.5 c 128,-1,36
 506 204 506 204 506 150 c 0,37,38
 506 76 506 76 446 33 c 128,-1,39
 386 -10 386 -10 272 -10 c 0,0,1
EndSplineSet
EndChar

StartChar: afii10074
Encoding: 1080 1080 465
Width: 600
GlyphClass: 2
Flags: W
AnchorPoint: "Anchor-3" 302 532 basechar 0
AnchorPoint: "Anchor-0" 309 0 basechar 0
LayerCount: 2
Fore
SplineSet
92 0 m 1,0,-1
 92 532 l 1,1,-1
 146 532 l 1,2,-1
 146 168 l 2,3,4
 146 144 146 144 145 119 c 128,-1,5
 144 94 144 94 143 69 c 1,6,-1
 442 532 l 1,7,-1
 508 532 l 1,8,-1
 508 0 l 1,9,-1
 454 0 l 1,10,-1
 454 366 l 2,11,12
 454 390 454 390 455 415 c 128,-1,13
 456 440 456 440 457 464 c 1,14,-1
 157 0 l 1,15,-1
 92 0 l 1,0,-1
EndSplineSet
EndChar

StartChar: afii10076
Encoding: 1082 1082 467
Width: 600
GlyphClass: 2
Flags: W
AnchorPoint: "Anchor-3" 325 532 basechar 0
AnchorPoint: "Anchor-0" 334 0 basechar 0
LayerCount: 2
Fore
SplineSet
123 0 m 1,0,-1
 123 532 l 1,1,-1
 178 532 l 1,2,-1
 178 275 l 1,3,-1
 469 532 l 1,4,-1
 544 532 l 1,5,-1
 246 275 l 1,6,-1
 555 0 l 1,7,-1
 482 0 l 1,8,-1
 178 271 l 1,9,-1
 178 0 l 1,10,-1
 123 0 l 1,0,-1
EndSplineSet
EndChar

StartChar: afii10077
Encoding: 1083 1083 468
Width: 600
GlyphClass: 2
Flags: W
AnchorPoint: "Anchor-3" 352 532 basechar 0
AnchorPoint: "Anchor-0" 347 0 basechar 0
LayerCount: 2
Fore
SplineSet
78 -5 m 0,0,1
 53 -5 53 -5 40 0 c 1,2,-1
 40 46 l 1,3,4
 44 44 44 44 51 43 c 128,-1,5
 58 42 58 42 68 42 c 0,6,7
 126 42 126 42 154 162 c 128,-1,8
 182 282 182 282 196 532 c 1,9,-1
 508 532 l 1,10,-1
 508 0 l 1,11,-1
 452 0 l 1,12,-1
 452 484 l 1,13,-1
 246 484 l 1,14,15
 235 318 235 318 217 209.5 c 128,-1,16
 199 101 199 101 166.5 48 c 128,-1,17
 134 -5 134 -5 78 -5 c 0,0,1
EndSplineSet
EndChar

StartChar: afii10078
Encoding: 1084 1084 469
Width: 600
GlyphClass: 2
Flags: W
AnchorPoint: "Anchor-3" 300 532 basechar 0
AnchorPoint: "Anchor-0" 300 0 basechar 0
LayerCount: 2
Fore
SplineSet
60 0 m 1,0,-1
 60 532 l 1,1,-1
 138 532 l 1,2,-1
 299 73 l 1,3,-1
 462 532 l 1,4,-1
 540 532 l 1,5,-1
 540 0 l 1,6,-1
 488 0 l 1,7,-1
 488 363 l 2,8,9
 488 385 488 385 488.5 408.5 c 128,-1,10
 489 432 489 432 491 460 c 1,11,-1
 488 460 l 1,12,-1
 323 0 l 1,13,-1
 274 0 l 1,14,-1
 112 460 l 1,15,-1
 109 460 l 1,16,17
 112 406 112 406 112 361 c 2,18,-1
 112 0 l 1,19,-1
 60 0 l 1,0,-1
EndSplineSet
EndChar

StartChar: afii10079
Encoding: 1085 1085 470
Width: 600
GlyphClass: 2
Flags: W
AnchorPoint: "Anchor-3" 300 532 basechar 0
AnchorPoint: "Anchor-0" 300 0 basechar 0
LayerCount: 2
Fore
SplineSet
92 0 m 1,0,-1
 92 532 l 1,1,-1
 148 532 l 1,2,-1
 148 302 l 1,3,-1
 452 302 l 1,4,-1
 452 532 l 1,5,-1
 508 532 l 1,6,-1
 508 0 l 1,7,-1
 452 0 l 1,8,-1
 452 253 l 1,9,-1
 148 253 l 1,10,-1
 148 0 l 1,11,-1
 92 0 l 1,0,-1
EndSplineSet
EndChar

StartChar: afii10081
Encoding: 1087 1087 472
Width: 600
GlyphClass: 2
Flags: W
AnchorPoint: "Anchor-3" 302 532 basechar 0
AnchorPoint: "Anchor-0" 302 0 basechar 0
LayerCount: 2
Fore
SplineSet
92 0 m 1,0,-1
 92 532 l 1,1,-1
 508 532 l 1,2,-1
 508 0 l 1,3,-1
 452 0 l 1,4,-1
 452 484 l 1,5,-1
 148 484 l 1,6,-1
 148 0 l 1,7,-1
 92 0 l 1,0,-1
EndSplineSet
EndChar

StartChar: afii10084
Encoding: 1090 1090 475
Width: 600
GlyphClass: 2
Flags: W
AnchorPoint: "Anchor-3" 303 528 basechar 0
AnchorPoint: "Anchor-0" 303 0 basechar 0
LayerCount: 2
Fore
SplineSet
272 0 m 1,0,-1
 272 484 l 1,1,-1
 87 484 l 1,2,-1
 87 532 l 1,3,-1
 513 532 l 1,4,-1
 513 484 l 1,5,-1
 327 484 l 1,6,-1
 327 0 l 1,7,-1
 272 0 l 1,0,-1
EndSplineSet
EndChar

StartChar: afii10086
Encoding: 1092 1092 477
Width: 600
GlyphClass: 2
Flags: W
AnchorPoint: "Anchor-3" 300 760 basechar 0
AnchorPoint: "Anchor-0" 300 -240 basechar 0
LayerCount: 2
Fore
SplineSet
272 -240 m 1,0,-1
 272 -8 l 1,1,2
 173 -1 173 -1 117.5 72 c 128,-1,3
 62 145 62 145 62 267 c 0,4,5
 62 386 62 386 117 459 c 128,-1,6
 172 532 172 532 273 540 c 1,7,-1
 273 760 l 1,8,-1
 327 760 l 1,9,-1
 327 540 l 1,10,11
 428 532 428 532 483 459 c 128,-1,12
 538 386 538 386 538 267 c 0,13,14
 538 190 538 190 513.5 130 c 128,-1,15
 489 70 489 70 441.5 34 c 128,-1,16
 394 -2 394 -2 327 -8 c 1,17,-1
 327 -240 l 1,18,-1
 272 -240 l 1,0,-1
273 40 m 1,19,-1
 273 492 l 1,20,21
 197 486 197 486 158.5 426.5 c 128,-1,22
 120 367 120 367 120 267 c 256,23,24
 120 167 120 167 158.5 106 c 128,-1,25
 197 45 197 45 273 40 c 1,19,-1
327 40 m 1,26,27
 403 47 403 47 441.5 109.5 c 128,-1,28
 480 172 480 172 480 267 c 0,29,30
 480 368 480 368 441.5 426.5 c 128,-1,31
 403 485 403 485 327 492 c 1,32,-1
 327 40 l 1,26,27
EndSplineSet
EndChar

